G75*
%MOIN*%
%OFA0B0*%
%FSLAX25Y25*%
%IPPOS*%
%LPD*%
%AMOC8*
5,1,8,0,0,1.08239X$1,22.5*
%
%ADD10C,0.00010*%
%ADD11C,0.00016*%
%ADD12C,0.13461*%
%ADD13C,0.26200*%
%ADD14C,0.03775*%
D10*
X0015108Y0040550D02*
X0015111Y0040793D01*
X0015120Y0041036D01*
X0015135Y0041278D01*
X0015156Y0041520D01*
X0015182Y0041762D01*
X0015215Y0042003D01*
X0015254Y0042243D01*
X0015298Y0042481D01*
X0015349Y0042719D01*
X0015405Y0042956D01*
X0015467Y0043190D01*
X0015534Y0043424D01*
X0015608Y0043655D01*
X0015687Y0043885D01*
X0015771Y0044113D01*
X0015862Y0044339D01*
X0015957Y0044562D01*
X0016059Y0044783D01*
X0016165Y0045001D01*
X0016277Y0045217D01*
X0016394Y0045430D01*
X0016516Y0045640D01*
X0016644Y0045846D01*
X0016776Y0046050D01*
X0016914Y0046251D01*
X0017056Y0046447D01*
X0017203Y0046641D01*
X0017355Y0046830D01*
X0017512Y0047016D01*
X0017673Y0047198D01*
X0017838Y0047376D01*
X0018008Y0047550D01*
X0018182Y0047720D01*
X0018360Y0047885D01*
X0018542Y0048046D01*
X0018728Y0048203D01*
X0018917Y0048355D01*
X0019111Y0048502D01*
X0019307Y0048644D01*
X0019508Y0048782D01*
X0019712Y0048914D01*
X0019918Y0049042D01*
X0020128Y0049164D01*
X0020341Y0049281D01*
X0020557Y0049393D01*
X0020775Y0049499D01*
X0020996Y0049601D01*
X0021219Y0049696D01*
X0021445Y0049787D01*
X0021673Y0049871D01*
X0021903Y0049950D01*
X0022134Y0050024D01*
X0022368Y0050091D01*
X0022602Y0050153D01*
X0022839Y0050209D01*
X0023077Y0050260D01*
X0023315Y0050304D01*
X0023555Y0050343D01*
X0023796Y0050376D01*
X0024038Y0050402D01*
X0024280Y0050423D01*
X0024522Y0050438D01*
X0024765Y0050447D01*
X0025008Y0050450D01*
X0025251Y0050447D01*
X0025494Y0050438D01*
X0025736Y0050423D01*
X0025978Y0050402D01*
X0026220Y0050376D01*
X0026461Y0050343D01*
X0026701Y0050304D01*
X0026939Y0050260D01*
X0027177Y0050209D01*
X0027414Y0050153D01*
X0027648Y0050091D01*
X0027882Y0050024D01*
X0028113Y0049950D01*
X0028343Y0049871D01*
X0028571Y0049787D01*
X0028797Y0049696D01*
X0029020Y0049601D01*
X0029241Y0049499D01*
X0029459Y0049393D01*
X0029675Y0049281D01*
X0029888Y0049164D01*
X0030098Y0049042D01*
X0030304Y0048914D01*
X0030508Y0048782D01*
X0030709Y0048644D01*
X0030905Y0048502D01*
X0031099Y0048355D01*
X0031288Y0048203D01*
X0031474Y0048046D01*
X0031656Y0047885D01*
X0031834Y0047720D01*
X0032008Y0047550D01*
X0032178Y0047376D01*
X0032343Y0047198D01*
X0032504Y0047016D01*
X0032661Y0046830D01*
X0032813Y0046641D01*
X0032960Y0046447D01*
X0033102Y0046251D01*
X0033240Y0046050D01*
X0033372Y0045846D01*
X0033500Y0045640D01*
X0033622Y0045430D01*
X0033739Y0045217D01*
X0033851Y0045001D01*
X0033957Y0044783D01*
X0034059Y0044562D01*
X0034154Y0044339D01*
X0034245Y0044113D01*
X0034329Y0043885D01*
X0034408Y0043655D01*
X0034482Y0043424D01*
X0034549Y0043190D01*
X0034611Y0042956D01*
X0034667Y0042719D01*
X0034718Y0042481D01*
X0034762Y0042243D01*
X0034801Y0042003D01*
X0034834Y0041762D01*
X0034860Y0041520D01*
X0034881Y0041278D01*
X0034896Y0041036D01*
X0034905Y0040793D01*
X0034908Y0040550D01*
X0034905Y0040307D01*
X0034896Y0040064D01*
X0034881Y0039822D01*
X0034860Y0039580D01*
X0034834Y0039338D01*
X0034801Y0039097D01*
X0034762Y0038857D01*
X0034718Y0038619D01*
X0034667Y0038381D01*
X0034611Y0038144D01*
X0034549Y0037910D01*
X0034482Y0037676D01*
X0034408Y0037445D01*
X0034329Y0037215D01*
X0034245Y0036987D01*
X0034154Y0036761D01*
X0034059Y0036538D01*
X0033957Y0036317D01*
X0033851Y0036099D01*
X0033739Y0035883D01*
X0033622Y0035670D01*
X0033500Y0035460D01*
X0033372Y0035254D01*
X0033240Y0035050D01*
X0033102Y0034849D01*
X0032960Y0034653D01*
X0032813Y0034459D01*
X0032661Y0034270D01*
X0032504Y0034084D01*
X0032343Y0033902D01*
X0032178Y0033724D01*
X0032008Y0033550D01*
X0031834Y0033380D01*
X0031656Y0033215D01*
X0031474Y0033054D01*
X0031288Y0032897D01*
X0031099Y0032745D01*
X0030905Y0032598D01*
X0030709Y0032456D01*
X0030508Y0032318D01*
X0030304Y0032186D01*
X0030098Y0032058D01*
X0029888Y0031936D01*
X0029675Y0031819D01*
X0029459Y0031707D01*
X0029241Y0031601D01*
X0029020Y0031499D01*
X0028797Y0031404D01*
X0028571Y0031313D01*
X0028343Y0031229D01*
X0028113Y0031150D01*
X0027882Y0031076D01*
X0027648Y0031009D01*
X0027414Y0030947D01*
X0027177Y0030891D01*
X0026939Y0030840D01*
X0026701Y0030796D01*
X0026461Y0030757D01*
X0026220Y0030724D01*
X0025978Y0030698D01*
X0025736Y0030677D01*
X0025494Y0030662D01*
X0025251Y0030653D01*
X0025008Y0030650D01*
X0024765Y0030653D01*
X0024522Y0030662D01*
X0024280Y0030677D01*
X0024038Y0030698D01*
X0023796Y0030724D01*
X0023555Y0030757D01*
X0023315Y0030796D01*
X0023077Y0030840D01*
X0022839Y0030891D01*
X0022602Y0030947D01*
X0022368Y0031009D01*
X0022134Y0031076D01*
X0021903Y0031150D01*
X0021673Y0031229D01*
X0021445Y0031313D01*
X0021219Y0031404D01*
X0020996Y0031499D01*
X0020775Y0031601D01*
X0020557Y0031707D01*
X0020341Y0031819D01*
X0020128Y0031936D01*
X0019918Y0032058D01*
X0019712Y0032186D01*
X0019508Y0032318D01*
X0019307Y0032456D01*
X0019111Y0032598D01*
X0018917Y0032745D01*
X0018728Y0032897D01*
X0018542Y0033054D01*
X0018360Y0033215D01*
X0018182Y0033380D01*
X0018008Y0033550D01*
X0017838Y0033724D01*
X0017673Y0033902D01*
X0017512Y0034084D01*
X0017355Y0034270D01*
X0017203Y0034459D01*
X0017056Y0034653D01*
X0016914Y0034849D01*
X0016776Y0035050D01*
X0016644Y0035254D01*
X0016516Y0035460D01*
X0016394Y0035670D01*
X0016277Y0035883D01*
X0016165Y0036099D01*
X0016059Y0036317D01*
X0015957Y0036538D01*
X0015862Y0036761D01*
X0015771Y0036987D01*
X0015687Y0037215D01*
X0015608Y0037445D01*
X0015534Y0037676D01*
X0015467Y0037910D01*
X0015405Y0038144D01*
X0015349Y0038381D01*
X0015298Y0038619D01*
X0015254Y0038857D01*
X0015215Y0039097D01*
X0015182Y0039338D01*
X0015156Y0039580D01*
X0015135Y0039822D01*
X0015120Y0040064D01*
X0015111Y0040307D01*
X0015108Y0040550D01*
X0015108Y0081800D02*
X0015111Y0082043D01*
X0015120Y0082286D01*
X0015135Y0082528D01*
X0015156Y0082770D01*
X0015182Y0083012D01*
X0015215Y0083253D01*
X0015254Y0083493D01*
X0015298Y0083731D01*
X0015349Y0083969D01*
X0015405Y0084206D01*
X0015467Y0084440D01*
X0015534Y0084674D01*
X0015608Y0084905D01*
X0015687Y0085135D01*
X0015771Y0085363D01*
X0015862Y0085589D01*
X0015957Y0085812D01*
X0016059Y0086033D01*
X0016165Y0086251D01*
X0016277Y0086467D01*
X0016394Y0086680D01*
X0016516Y0086890D01*
X0016644Y0087096D01*
X0016776Y0087300D01*
X0016914Y0087501D01*
X0017056Y0087697D01*
X0017203Y0087891D01*
X0017355Y0088080D01*
X0017512Y0088266D01*
X0017673Y0088448D01*
X0017838Y0088626D01*
X0018008Y0088800D01*
X0018182Y0088970D01*
X0018360Y0089135D01*
X0018542Y0089296D01*
X0018728Y0089453D01*
X0018917Y0089605D01*
X0019111Y0089752D01*
X0019307Y0089894D01*
X0019508Y0090032D01*
X0019712Y0090164D01*
X0019918Y0090292D01*
X0020128Y0090414D01*
X0020341Y0090531D01*
X0020557Y0090643D01*
X0020775Y0090749D01*
X0020996Y0090851D01*
X0021219Y0090946D01*
X0021445Y0091037D01*
X0021673Y0091121D01*
X0021903Y0091200D01*
X0022134Y0091274D01*
X0022368Y0091341D01*
X0022602Y0091403D01*
X0022839Y0091459D01*
X0023077Y0091510D01*
X0023315Y0091554D01*
X0023555Y0091593D01*
X0023796Y0091626D01*
X0024038Y0091652D01*
X0024280Y0091673D01*
X0024522Y0091688D01*
X0024765Y0091697D01*
X0025008Y0091700D01*
X0025251Y0091697D01*
X0025494Y0091688D01*
X0025736Y0091673D01*
X0025978Y0091652D01*
X0026220Y0091626D01*
X0026461Y0091593D01*
X0026701Y0091554D01*
X0026939Y0091510D01*
X0027177Y0091459D01*
X0027414Y0091403D01*
X0027648Y0091341D01*
X0027882Y0091274D01*
X0028113Y0091200D01*
X0028343Y0091121D01*
X0028571Y0091037D01*
X0028797Y0090946D01*
X0029020Y0090851D01*
X0029241Y0090749D01*
X0029459Y0090643D01*
X0029675Y0090531D01*
X0029888Y0090414D01*
X0030098Y0090292D01*
X0030304Y0090164D01*
X0030508Y0090032D01*
X0030709Y0089894D01*
X0030905Y0089752D01*
X0031099Y0089605D01*
X0031288Y0089453D01*
X0031474Y0089296D01*
X0031656Y0089135D01*
X0031834Y0088970D01*
X0032008Y0088800D01*
X0032178Y0088626D01*
X0032343Y0088448D01*
X0032504Y0088266D01*
X0032661Y0088080D01*
X0032813Y0087891D01*
X0032960Y0087697D01*
X0033102Y0087501D01*
X0033240Y0087300D01*
X0033372Y0087096D01*
X0033500Y0086890D01*
X0033622Y0086680D01*
X0033739Y0086467D01*
X0033851Y0086251D01*
X0033957Y0086033D01*
X0034059Y0085812D01*
X0034154Y0085589D01*
X0034245Y0085363D01*
X0034329Y0085135D01*
X0034408Y0084905D01*
X0034482Y0084674D01*
X0034549Y0084440D01*
X0034611Y0084206D01*
X0034667Y0083969D01*
X0034718Y0083731D01*
X0034762Y0083493D01*
X0034801Y0083253D01*
X0034834Y0083012D01*
X0034860Y0082770D01*
X0034881Y0082528D01*
X0034896Y0082286D01*
X0034905Y0082043D01*
X0034908Y0081800D01*
X0034905Y0081557D01*
X0034896Y0081314D01*
X0034881Y0081072D01*
X0034860Y0080830D01*
X0034834Y0080588D01*
X0034801Y0080347D01*
X0034762Y0080107D01*
X0034718Y0079869D01*
X0034667Y0079631D01*
X0034611Y0079394D01*
X0034549Y0079160D01*
X0034482Y0078926D01*
X0034408Y0078695D01*
X0034329Y0078465D01*
X0034245Y0078237D01*
X0034154Y0078011D01*
X0034059Y0077788D01*
X0033957Y0077567D01*
X0033851Y0077349D01*
X0033739Y0077133D01*
X0033622Y0076920D01*
X0033500Y0076710D01*
X0033372Y0076504D01*
X0033240Y0076300D01*
X0033102Y0076099D01*
X0032960Y0075903D01*
X0032813Y0075709D01*
X0032661Y0075520D01*
X0032504Y0075334D01*
X0032343Y0075152D01*
X0032178Y0074974D01*
X0032008Y0074800D01*
X0031834Y0074630D01*
X0031656Y0074465D01*
X0031474Y0074304D01*
X0031288Y0074147D01*
X0031099Y0073995D01*
X0030905Y0073848D01*
X0030709Y0073706D01*
X0030508Y0073568D01*
X0030304Y0073436D01*
X0030098Y0073308D01*
X0029888Y0073186D01*
X0029675Y0073069D01*
X0029459Y0072957D01*
X0029241Y0072851D01*
X0029020Y0072749D01*
X0028797Y0072654D01*
X0028571Y0072563D01*
X0028343Y0072479D01*
X0028113Y0072400D01*
X0027882Y0072326D01*
X0027648Y0072259D01*
X0027414Y0072197D01*
X0027177Y0072141D01*
X0026939Y0072090D01*
X0026701Y0072046D01*
X0026461Y0072007D01*
X0026220Y0071974D01*
X0025978Y0071948D01*
X0025736Y0071927D01*
X0025494Y0071912D01*
X0025251Y0071903D01*
X0025008Y0071900D01*
X0024765Y0071903D01*
X0024522Y0071912D01*
X0024280Y0071927D01*
X0024038Y0071948D01*
X0023796Y0071974D01*
X0023555Y0072007D01*
X0023315Y0072046D01*
X0023077Y0072090D01*
X0022839Y0072141D01*
X0022602Y0072197D01*
X0022368Y0072259D01*
X0022134Y0072326D01*
X0021903Y0072400D01*
X0021673Y0072479D01*
X0021445Y0072563D01*
X0021219Y0072654D01*
X0020996Y0072749D01*
X0020775Y0072851D01*
X0020557Y0072957D01*
X0020341Y0073069D01*
X0020128Y0073186D01*
X0019918Y0073308D01*
X0019712Y0073436D01*
X0019508Y0073568D01*
X0019307Y0073706D01*
X0019111Y0073848D01*
X0018917Y0073995D01*
X0018728Y0074147D01*
X0018542Y0074304D01*
X0018360Y0074465D01*
X0018182Y0074630D01*
X0018008Y0074800D01*
X0017838Y0074974D01*
X0017673Y0075152D01*
X0017512Y0075334D01*
X0017355Y0075520D01*
X0017203Y0075709D01*
X0017056Y0075903D01*
X0016914Y0076099D01*
X0016776Y0076300D01*
X0016644Y0076504D01*
X0016516Y0076710D01*
X0016394Y0076920D01*
X0016277Y0077133D01*
X0016165Y0077349D01*
X0016059Y0077567D01*
X0015957Y0077788D01*
X0015862Y0078011D01*
X0015771Y0078237D01*
X0015687Y0078465D01*
X0015608Y0078695D01*
X0015534Y0078926D01*
X0015467Y0079160D01*
X0015405Y0079394D01*
X0015349Y0079631D01*
X0015298Y0079869D01*
X0015254Y0080107D01*
X0015215Y0080347D01*
X0015182Y0080588D01*
X0015156Y0080830D01*
X0015135Y0081072D01*
X0015120Y0081314D01*
X0015111Y0081557D01*
X0015108Y0081800D01*
X0050108Y0101800D02*
X0050111Y0102043D01*
X0050120Y0102286D01*
X0050135Y0102528D01*
X0050156Y0102770D01*
X0050182Y0103012D01*
X0050215Y0103253D01*
X0050254Y0103493D01*
X0050298Y0103731D01*
X0050349Y0103969D01*
X0050405Y0104206D01*
X0050467Y0104440D01*
X0050534Y0104674D01*
X0050608Y0104905D01*
X0050687Y0105135D01*
X0050771Y0105363D01*
X0050862Y0105589D01*
X0050957Y0105812D01*
X0051059Y0106033D01*
X0051165Y0106251D01*
X0051277Y0106467D01*
X0051394Y0106680D01*
X0051516Y0106890D01*
X0051644Y0107096D01*
X0051776Y0107300D01*
X0051914Y0107501D01*
X0052056Y0107697D01*
X0052203Y0107891D01*
X0052355Y0108080D01*
X0052512Y0108266D01*
X0052673Y0108448D01*
X0052838Y0108626D01*
X0053008Y0108800D01*
X0053182Y0108970D01*
X0053360Y0109135D01*
X0053542Y0109296D01*
X0053728Y0109453D01*
X0053917Y0109605D01*
X0054111Y0109752D01*
X0054307Y0109894D01*
X0054508Y0110032D01*
X0054712Y0110164D01*
X0054918Y0110292D01*
X0055128Y0110414D01*
X0055341Y0110531D01*
X0055557Y0110643D01*
X0055775Y0110749D01*
X0055996Y0110851D01*
X0056219Y0110946D01*
X0056445Y0111037D01*
X0056673Y0111121D01*
X0056903Y0111200D01*
X0057134Y0111274D01*
X0057368Y0111341D01*
X0057602Y0111403D01*
X0057839Y0111459D01*
X0058077Y0111510D01*
X0058315Y0111554D01*
X0058555Y0111593D01*
X0058796Y0111626D01*
X0059038Y0111652D01*
X0059280Y0111673D01*
X0059522Y0111688D01*
X0059765Y0111697D01*
X0060008Y0111700D01*
X0060251Y0111697D01*
X0060494Y0111688D01*
X0060736Y0111673D01*
X0060978Y0111652D01*
X0061220Y0111626D01*
X0061461Y0111593D01*
X0061701Y0111554D01*
X0061939Y0111510D01*
X0062177Y0111459D01*
X0062414Y0111403D01*
X0062648Y0111341D01*
X0062882Y0111274D01*
X0063113Y0111200D01*
X0063343Y0111121D01*
X0063571Y0111037D01*
X0063797Y0110946D01*
X0064020Y0110851D01*
X0064241Y0110749D01*
X0064459Y0110643D01*
X0064675Y0110531D01*
X0064888Y0110414D01*
X0065098Y0110292D01*
X0065304Y0110164D01*
X0065508Y0110032D01*
X0065709Y0109894D01*
X0065905Y0109752D01*
X0066099Y0109605D01*
X0066288Y0109453D01*
X0066474Y0109296D01*
X0066656Y0109135D01*
X0066834Y0108970D01*
X0067008Y0108800D01*
X0067178Y0108626D01*
X0067343Y0108448D01*
X0067504Y0108266D01*
X0067661Y0108080D01*
X0067813Y0107891D01*
X0067960Y0107697D01*
X0068102Y0107501D01*
X0068240Y0107300D01*
X0068372Y0107096D01*
X0068500Y0106890D01*
X0068622Y0106680D01*
X0068739Y0106467D01*
X0068851Y0106251D01*
X0068957Y0106033D01*
X0069059Y0105812D01*
X0069154Y0105589D01*
X0069245Y0105363D01*
X0069329Y0105135D01*
X0069408Y0104905D01*
X0069482Y0104674D01*
X0069549Y0104440D01*
X0069611Y0104206D01*
X0069667Y0103969D01*
X0069718Y0103731D01*
X0069762Y0103493D01*
X0069801Y0103253D01*
X0069834Y0103012D01*
X0069860Y0102770D01*
X0069881Y0102528D01*
X0069896Y0102286D01*
X0069905Y0102043D01*
X0069908Y0101800D01*
X0069905Y0101557D01*
X0069896Y0101314D01*
X0069881Y0101072D01*
X0069860Y0100830D01*
X0069834Y0100588D01*
X0069801Y0100347D01*
X0069762Y0100107D01*
X0069718Y0099869D01*
X0069667Y0099631D01*
X0069611Y0099394D01*
X0069549Y0099160D01*
X0069482Y0098926D01*
X0069408Y0098695D01*
X0069329Y0098465D01*
X0069245Y0098237D01*
X0069154Y0098011D01*
X0069059Y0097788D01*
X0068957Y0097567D01*
X0068851Y0097349D01*
X0068739Y0097133D01*
X0068622Y0096920D01*
X0068500Y0096710D01*
X0068372Y0096504D01*
X0068240Y0096300D01*
X0068102Y0096099D01*
X0067960Y0095903D01*
X0067813Y0095709D01*
X0067661Y0095520D01*
X0067504Y0095334D01*
X0067343Y0095152D01*
X0067178Y0094974D01*
X0067008Y0094800D01*
X0066834Y0094630D01*
X0066656Y0094465D01*
X0066474Y0094304D01*
X0066288Y0094147D01*
X0066099Y0093995D01*
X0065905Y0093848D01*
X0065709Y0093706D01*
X0065508Y0093568D01*
X0065304Y0093436D01*
X0065098Y0093308D01*
X0064888Y0093186D01*
X0064675Y0093069D01*
X0064459Y0092957D01*
X0064241Y0092851D01*
X0064020Y0092749D01*
X0063797Y0092654D01*
X0063571Y0092563D01*
X0063343Y0092479D01*
X0063113Y0092400D01*
X0062882Y0092326D01*
X0062648Y0092259D01*
X0062414Y0092197D01*
X0062177Y0092141D01*
X0061939Y0092090D01*
X0061701Y0092046D01*
X0061461Y0092007D01*
X0061220Y0091974D01*
X0060978Y0091948D01*
X0060736Y0091927D01*
X0060494Y0091912D01*
X0060251Y0091903D01*
X0060008Y0091900D01*
X0059765Y0091903D01*
X0059522Y0091912D01*
X0059280Y0091927D01*
X0059038Y0091948D01*
X0058796Y0091974D01*
X0058555Y0092007D01*
X0058315Y0092046D01*
X0058077Y0092090D01*
X0057839Y0092141D01*
X0057602Y0092197D01*
X0057368Y0092259D01*
X0057134Y0092326D01*
X0056903Y0092400D01*
X0056673Y0092479D01*
X0056445Y0092563D01*
X0056219Y0092654D01*
X0055996Y0092749D01*
X0055775Y0092851D01*
X0055557Y0092957D01*
X0055341Y0093069D01*
X0055128Y0093186D01*
X0054918Y0093308D01*
X0054712Y0093436D01*
X0054508Y0093568D01*
X0054307Y0093706D01*
X0054111Y0093848D01*
X0053917Y0093995D01*
X0053728Y0094147D01*
X0053542Y0094304D01*
X0053360Y0094465D01*
X0053182Y0094630D01*
X0053008Y0094800D01*
X0052838Y0094974D01*
X0052673Y0095152D01*
X0052512Y0095334D01*
X0052355Y0095520D01*
X0052203Y0095709D01*
X0052056Y0095903D01*
X0051914Y0096099D01*
X0051776Y0096300D01*
X0051644Y0096504D01*
X0051516Y0096710D01*
X0051394Y0096920D01*
X0051277Y0097133D01*
X0051165Y0097349D01*
X0051059Y0097567D01*
X0050957Y0097788D01*
X0050862Y0098011D01*
X0050771Y0098237D01*
X0050687Y0098465D01*
X0050608Y0098695D01*
X0050534Y0098926D01*
X0050467Y0099160D01*
X0050405Y0099394D01*
X0050349Y0099631D01*
X0050298Y0099869D01*
X0050254Y0100107D01*
X0050215Y0100347D01*
X0050182Y0100588D01*
X0050156Y0100830D01*
X0050135Y0101072D01*
X0050120Y0101314D01*
X0050111Y0101557D01*
X0050108Y0101800D01*
X0085108Y0081800D02*
X0085111Y0082043D01*
X0085120Y0082286D01*
X0085135Y0082528D01*
X0085156Y0082770D01*
X0085182Y0083012D01*
X0085215Y0083253D01*
X0085254Y0083493D01*
X0085298Y0083731D01*
X0085349Y0083969D01*
X0085405Y0084206D01*
X0085467Y0084440D01*
X0085534Y0084674D01*
X0085608Y0084905D01*
X0085687Y0085135D01*
X0085771Y0085363D01*
X0085862Y0085589D01*
X0085957Y0085812D01*
X0086059Y0086033D01*
X0086165Y0086251D01*
X0086277Y0086467D01*
X0086394Y0086680D01*
X0086516Y0086890D01*
X0086644Y0087096D01*
X0086776Y0087300D01*
X0086914Y0087501D01*
X0087056Y0087697D01*
X0087203Y0087891D01*
X0087355Y0088080D01*
X0087512Y0088266D01*
X0087673Y0088448D01*
X0087838Y0088626D01*
X0088008Y0088800D01*
X0088182Y0088970D01*
X0088360Y0089135D01*
X0088542Y0089296D01*
X0088728Y0089453D01*
X0088917Y0089605D01*
X0089111Y0089752D01*
X0089307Y0089894D01*
X0089508Y0090032D01*
X0089712Y0090164D01*
X0089918Y0090292D01*
X0090128Y0090414D01*
X0090341Y0090531D01*
X0090557Y0090643D01*
X0090775Y0090749D01*
X0090996Y0090851D01*
X0091219Y0090946D01*
X0091445Y0091037D01*
X0091673Y0091121D01*
X0091903Y0091200D01*
X0092134Y0091274D01*
X0092368Y0091341D01*
X0092602Y0091403D01*
X0092839Y0091459D01*
X0093077Y0091510D01*
X0093315Y0091554D01*
X0093555Y0091593D01*
X0093796Y0091626D01*
X0094038Y0091652D01*
X0094280Y0091673D01*
X0094522Y0091688D01*
X0094765Y0091697D01*
X0095008Y0091700D01*
X0095251Y0091697D01*
X0095494Y0091688D01*
X0095736Y0091673D01*
X0095978Y0091652D01*
X0096220Y0091626D01*
X0096461Y0091593D01*
X0096701Y0091554D01*
X0096939Y0091510D01*
X0097177Y0091459D01*
X0097414Y0091403D01*
X0097648Y0091341D01*
X0097882Y0091274D01*
X0098113Y0091200D01*
X0098343Y0091121D01*
X0098571Y0091037D01*
X0098797Y0090946D01*
X0099020Y0090851D01*
X0099241Y0090749D01*
X0099459Y0090643D01*
X0099675Y0090531D01*
X0099888Y0090414D01*
X0100098Y0090292D01*
X0100304Y0090164D01*
X0100508Y0090032D01*
X0100709Y0089894D01*
X0100905Y0089752D01*
X0101099Y0089605D01*
X0101288Y0089453D01*
X0101474Y0089296D01*
X0101656Y0089135D01*
X0101834Y0088970D01*
X0102008Y0088800D01*
X0102178Y0088626D01*
X0102343Y0088448D01*
X0102504Y0088266D01*
X0102661Y0088080D01*
X0102813Y0087891D01*
X0102960Y0087697D01*
X0103102Y0087501D01*
X0103240Y0087300D01*
X0103372Y0087096D01*
X0103500Y0086890D01*
X0103622Y0086680D01*
X0103739Y0086467D01*
X0103851Y0086251D01*
X0103957Y0086033D01*
X0104059Y0085812D01*
X0104154Y0085589D01*
X0104245Y0085363D01*
X0104329Y0085135D01*
X0104408Y0084905D01*
X0104482Y0084674D01*
X0104549Y0084440D01*
X0104611Y0084206D01*
X0104667Y0083969D01*
X0104718Y0083731D01*
X0104762Y0083493D01*
X0104801Y0083253D01*
X0104834Y0083012D01*
X0104860Y0082770D01*
X0104881Y0082528D01*
X0104896Y0082286D01*
X0104905Y0082043D01*
X0104908Y0081800D01*
X0104905Y0081557D01*
X0104896Y0081314D01*
X0104881Y0081072D01*
X0104860Y0080830D01*
X0104834Y0080588D01*
X0104801Y0080347D01*
X0104762Y0080107D01*
X0104718Y0079869D01*
X0104667Y0079631D01*
X0104611Y0079394D01*
X0104549Y0079160D01*
X0104482Y0078926D01*
X0104408Y0078695D01*
X0104329Y0078465D01*
X0104245Y0078237D01*
X0104154Y0078011D01*
X0104059Y0077788D01*
X0103957Y0077567D01*
X0103851Y0077349D01*
X0103739Y0077133D01*
X0103622Y0076920D01*
X0103500Y0076710D01*
X0103372Y0076504D01*
X0103240Y0076300D01*
X0103102Y0076099D01*
X0102960Y0075903D01*
X0102813Y0075709D01*
X0102661Y0075520D01*
X0102504Y0075334D01*
X0102343Y0075152D01*
X0102178Y0074974D01*
X0102008Y0074800D01*
X0101834Y0074630D01*
X0101656Y0074465D01*
X0101474Y0074304D01*
X0101288Y0074147D01*
X0101099Y0073995D01*
X0100905Y0073848D01*
X0100709Y0073706D01*
X0100508Y0073568D01*
X0100304Y0073436D01*
X0100098Y0073308D01*
X0099888Y0073186D01*
X0099675Y0073069D01*
X0099459Y0072957D01*
X0099241Y0072851D01*
X0099020Y0072749D01*
X0098797Y0072654D01*
X0098571Y0072563D01*
X0098343Y0072479D01*
X0098113Y0072400D01*
X0097882Y0072326D01*
X0097648Y0072259D01*
X0097414Y0072197D01*
X0097177Y0072141D01*
X0096939Y0072090D01*
X0096701Y0072046D01*
X0096461Y0072007D01*
X0096220Y0071974D01*
X0095978Y0071948D01*
X0095736Y0071927D01*
X0095494Y0071912D01*
X0095251Y0071903D01*
X0095008Y0071900D01*
X0094765Y0071903D01*
X0094522Y0071912D01*
X0094280Y0071927D01*
X0094038Y0071948D01*
X0093796Y0071974D01*
X0093555Y0072007D01*
X0093315Y0072046D01*
X0093077Y0072090D01*
X0092839Y0072141D01*
X0092602Y0072197D01*
X0092368Y0072259D01*
X0092134Y0072326D01*
X0091903Y0072400D01*
X0091673Y0072479D01*
X0091445Y0072563D01*
X0091219Y0072654D01*
X0090996Y0072749D01*
X0090775Y0072851D01*
X0090557Y0072957D01*
X0090341Y0073069D01*
X0090128Y0073186D01*
X0089918Y0073308D01*
X0089712Y0073436D01*
X0089508Y0073568D01*
X0089307Y0073706D01*
X0089111Y0073848D01*
X0088917Y0073995D01*
X0088728Y0074147D01*
X0088542Y0074304D01*
X0088360Y0074465D01*
X0088182Y0074630D01*
X0088008Y0074800D01*
X0087838Y0074974D01*
X0087673Y0075152D01*
X0087512Y0075334D01*
X0087355Y0075520D01*
X0087203Y0075709D01*
X0087056Y0075903D01*
X0086914Y0076099D01*
X0086776Y0076300D01*
X0086644Y0076504D01*
X0086516Y0076710D01*
X0086394Y0076920D01*
X0086277Y0077133D01*
X0086165Y0077349D01*
X0086059Y0077567D01*
X0085957Y0077788D01*
X0085862Y0078011D01*
X0085771Y0078237D01*
X0085687Y0078465D01*
X0085608Y0078695D01*
X0085534Y0078926D01*
X0085467Y0079160D01*
X0085405Y0079394D01*
X0085349Y0079631D01*
X0085298Y0079869D01*
X0085254Y0080107D01*
X0085215Y0080347D01*
X0085182Y0080588D01*
X0085156Y0080830D01*
X0085135Y0081072D01*
X0085120Y0081314D01*
X0085111Y0081557D01*
X0085108Y0081800D01*
X0085108Y0041800D02*
X0085111Y0042043D01*
X0085120Y0042286D01*
X0085135Y0042528D01*
X0085156Y0042770D01*
X0085182Y0043012D01*
X0085215Y0043253D01*
X0085254Y0043493D01*
X0085298Y0043731D01*
X0085349Y0043969D01*
X0085405Y0044206D01*
X0085467Y0044440D01*
X0085534Y0044674D01*
X0085608Y0044905D01*
X0085687Y0045135D01*
X0085771Y0045363D01*
X0085862Y0045589D01*
X0085957Y0045812D01*
X0086059Y0046033D01*
X0086165Y0046251D01*
X0086277Y0046467D01*
X0086394Y0046680D01*
X0086516Y0046890D01*
X0086644Y0047096D01*
X0086776Y0047300D01*
X0086914Y0047501D01*
X0087056Y0047697D01*
X0087203Y0047891D01*
X0087355Y0048080D01*
X0087512Y0048266D01*
X0087673Y0048448D01*
X0087838Y0048626D01*
X0088008Y0048800D01*
X0088182Y0048970D01*
X0088360Y0049135D01*
X0088542Y0049296D01*
X0088728Y0049453D01*
X0088917Y0049605D01*
X0089111Y0049752D01*
X0089307Y0049894D01*
X0089508Y0050032D01*
X0089712Y0050164D01*
X0089918Y0050292D01*
X0090128Y0050414D01*
X0090341Y0050531D01*
X0090557Y0050643D01*
X0090775Y0050749D01*
X0090996Y0050851D01*
X0091219Y0050946D01*
X0091445Y0051037D01*
X0091673Y0051121D01*
X0091903Y0051200D01*
X0092134Y0051274D01*
X0092368Y0051341D01*
X0092602Y0051403D01*
X0092839Y0051459D01*
X0093077Y0051510D01*
X0093315Y0051554D01*
X0093555Y0051593D01*
X0093796Y0051626D01*
X0094038Y0051652D01*
X0094280Y0051673D01*
X0094522Y0051688D01*
X0094765Y0051697D01*
X0095008Y0051700D01*
X0095251Y0051697D01*
X0095494Y0051688D01*
X0095736Y0051673D01*
X0095978Y0051652D01*
X0096220Y0051626D01*
X0096461Y0051593D01*
X0096701Y0051554D01*
X0096939Y0051510D01*
X0097177Y0051459D01*
X0097414Y0051403D01*
X0097648Y0051341D01*
X0097882Y0051274D01*
X0098113Y0051200D01*
X0098343Y0051121D01*
X0098571Y0051037D01*
X0098797Y0050946D01*
X0099020Y0050851D01*
X0099241Y0050749D01*
X0099459Y0050643D01*
X0099675Y0050531D01*
X0099888Y0050414D01*
X0100098Y0050292D01*
X0100304Y0050164D01*
X0100508Y0050032D01*
X0100709Y0049894D01*
X0100905Y0049752D01*
X0101099Y0049605D01*
X0101288Y0049453D01*
X0101474Y0049296D01*
X0101656Y0049135D01*
X0101834Y0048970D01*
X0102008Y0048800D01*
X0102178Y0048626D01*
X0102343Y0048448D01*
X0102504Y0048266D01*
X0102661Y0048080D01*
X0102813Y0047891D01*
X0102960Y0047697D01*
X0103102Y0047501D01*
X0103240Y0047300D01*
X0103372Y0047096D01*
X0103500Y0046890D01*
X0103622Y0046680D01*
X0103739Y0046467D01*
X0103851Y0046251D01*
X0103957Y0046033D01*
X0104059Y0045812D01*
X0104154Y0045589D01*
X0104245Y0045363D01*
X0104329Y0045135D01*
X0104408Y0044905D01*
X0104482Y0044674D01*
X0104549Y0044440D01*
X0104611Y0044206D01*
X0104667Y0043969D01*
X0104718Y0043731D01*
X0104762Y0043493D01*
X0104801Y0043253D01*
X0104834Y0043012D01*
X0104860Y0042770D01*
X0104881Y0042528D01*
X0104896Y0042286D01*
X0104905Y0042043D01*
X0104908Y0041800D01*
X0104905Y0041557D01*
X0104896Y0041314D01*
X0104881Y0041072D01*
X0104860Y0040830D01*
X0104834Y0040588D01*
X0104801Y0040347D01*
X0104762Y0040107D01*
X0104718Y0039869D01*
X0104667Y0039631D01*
X0104611Y0039394D01*
X0104549Y0039160D01*
X0104482Y0038926D01*
X0104408Y0038695D01*
X0104329Y0038465D01*
X0104245Y0038237D01*
X0104154Y0038011D01*
X0104059Y0037788D01*
X0103957Y0037567D01*
X0103851Y0037349D01*
X0103739Y0037133D01*
X0103622Y0036920D01*
X0103500Y0036710D01*
X0103372Y0036504D01*
X0103240Y0036300D01*
X0103102Y0036099D01*
X0102960Y0035903D01*
X0102813Y0035709D01*
X0102661Y0035520D01*
X0102504Y0035334D01*
X0102343Y0035152D01*
X0102178Y0034974D01*
X0102008Y0034800D01*
X0101834Y0034630D01*
X0101656Y0034465D01*
X0101474Y0034304D01*
X0101288Y0034147D01*
X0101099Y0033995D01*
X0100905Y0033848D01*
X0100709Y0033706D01*
X0100508Y0033568D01*
X0100304Y0033436D01*
X0100098Y0033308D01*
X0099888Y0033186D01*
X0099675Y0033069D01*
X0099459Y0032957D01*
X0099241Y0032851D01*
X0099020Y0032749D01*
X0098797Y0032654D01*
X0098571Y0032563D01*
X0098343Y0032479D01*
X0098113Y0032400D01*
X0097882Y0032326D01*
X0097648Y0032259D01*
X0097414Y0032197D01*
X0097177Y0032141D01*
X0096939Y0032090D01*
X0096701Y0032046D01*
X0096461Y0032007D01*
X0096220Y0031974D01*
X0095978Y0031948D01*
X0095736Y0031927D01*
X0095494Y0031912D01*
X0095251Y0031903D01*
X0095008Y0031900D01*
X0094765Y0031903D01*
X0094522Y0031912D01*
X0094280Y0031927D01*
X0094038Y0031948D01*
X0093796Y0031974D01*
X0093555Y0032007D01*
X0093315Y0032046D01*
X0093077Y0032090D01*
X0092839Y0032141D01*
X0092602Y0032197D01*
X0092368Y0032259D01*
X0092134Y0032326D01*
X0091903Y0032400D01*
X0091673Y0032479D01*
X0091445Y0032563D01*
X0091219Y0032654D01*
X0090996Y0032749D01*
X0090775Y0032851D01*
X0090557Y0032957D01*
X0090341Y0033069D01*
X0090128Y0033186D01*
X0089918Y0033308D01*
X0089712Y0033436D01*
X0089508Y0033568D01*
X0089307Y0033706D01*
X0089111Y0033848D01*
X0088917Y0033995D01*
X0088728Y0034147D01*
X0088542Y0034304D01*
X0088360Y0034465D01*
X0088182Y0034630D01*
X0088008Y0034800D01*
X0087838Y0034974D01*
X0087673Y0035152D01*
X0087512Y0035334D01*
X0087355Y0035520D01*
X0087203Y0035709D01*
X0087056Y0035903D01*
X0086914Y0036099D01*
X0086776Y0036300D01*
X0086644Y0036504D01*
X0086516Y0036710D01*
X0086394Y0036920D01*
X0086277Y0037133D01*
X0086165Y0037349D01*
X0086059Y0037567D01*
X0085957Y0037788D01*
X0085862Y0038011D01*
X0085771Y0038237D01*
X0085687Y0038465D01*
X0085608Y0038695D01*
X0085534Y0038926D01*
X0085467Y0039160D01*
X0085405Y0039394D01*
X0085349Y0039631D01*
X0085298Y0039869D01*
X0085254Y0040107D01*
X0085215Y0040347D01*
X0085182Y0040588D01*
X0085156Y0040830D01*
X0085135Y0041072D01*
X0085120Y0041314D01*
X0085111Y0041557D01*
X0085108Y0041800D01*
X0050108Y0021800D02*
X0050111Y0022043D01*
X0050120Y0022286D01*
X0050135Y0022528D01*
X0050156Y0022770D01*
X0050182Y0023012D01*
X0050215Y0023253D01*
X0050254Y0023493D01*
X0050298Y0023731D01*
X0050349Y0023969D01*
X0050405Y0024206D01*
X0050467Y0024440D01*
X0050534Y0024674D01*
X0050608Y0024905D01*
X0050687Y0025135D01*
X0050771Y0025363D01*
X0050862Y0025589D01*
X0050957Y0025812D01*
X0051059Y0026033D01*
X0051165Y0026251D01*
X0051277Y0026467D01*
X0051394Y0026680D01*
X0051516Y0026890D01*
X0051644Y0027096D01*
X0051776Y0027300D01*
X0051914Y0027501D01*
X0052056Y0027697D01*
X0052203Y0027891D01*
X0052355Y0028080D01*
X0052512Y0028266D01*
X0052673Y0028448D01*
X0052838Y0028626D01*
X0053008Y0028800D01*
X0053182Y0028970D01*
X0053360Y0029135D01*
X0053542Y0029296D01*
X0053728Y0029453D01*
X0053917Y0029605D01*
X0054111Y0029752D01*
X0054307Y0029894D01*
X0054508Y0030032D01*
X0054712Y0030164D01*
X0054918Y0030292D01*
X0055128Y0030414D01*
X0055341Y0030531D01*
X0055557Y0030643D01*
X0055775Y0030749D01*
X0055996Y0030851D01*
X0056219Y0030946D01*
X0056445Y0031037D01*
X0056673Y0031121D01*
X0056903Y0031200D01*
X0057134Y0031274D01*
X0057368Y0031341D01*
X0057602Y0031403D01*
X0057839Y0031459D01*
X0058077Y0031510D01*
X0058315Y0031554D01*
X0058555Y0031593D01*
X0058796Y0031626D01*
X0059038Y0031652D01*
X0059280Y0031673D01*
X0059522Y0031688D01*
X0059765Y0031697D01*
X0060008Y0031700D01*
X0060251Y0031697D01*
X0060494Y0031688D01*
X0060736Y0031673D01*
X0060978Y0031652D01*
X0061220Y0031626D01*
X0061461Y0031593D01*
X0061701Y0031554D01*
X0061939Y0031510D01*
X0062177Y0031459D01*
X0062414Y0031403D01*
X0062648Y0031341D01*
X0062882Y0031274D01*
X0063113Y0031200D01*
X0063343Y0031121D01*
X0063571Y0031037D01*
X0063797Y0030946D01*
X0064020Y0030851D01*
X0064241Y0030749D01*
X0064459Y0030643D01*
X0064675Y0030531D01*
X0064888Y0030414D01*
X0065098Y0030292D01*
X0065304Y0030164D01*
X0065508Y0030032D01*
X0065709Y0029894D01*
X0065905Y0029752D01*
X0066099Y0029605D01*
X0066288Y0029453D01*
X0066474Y0029296D01*
X0066656Y0029135D01*
X0066834Y0028970D01*
X0067008Y0028800D01*
X0067178Y0028626D01*
X0067343Y0028448D01*
X0067504Y0028266D01*
X0067661Y0028080D01*
X0067813Y0027891D01*
X0067960Y0027697D01*
X0068102Y0027501D01*
X0068240Y0027300D01*
X0068372Y0027096D01*
X0068500Y0026890D01*
X0068622Y0026680D01*
X0068739Y0026467D01*
X0068851Y0026251D01*
X0068957Y0026033D01*
X0069059Y0025812D01*
X0069154Y0025589D01*
X0069245Y0025363D01*
X0069329Y0025135D01*
X0069408Y0024905D01*
X0069482Y0024674D01*
X0069549Y0024440D01*
X0069611Y0024206D01*
X0069667Y0023969D01*
X0069718Y0023731D01*
X0069762Y0023493D01*
X0069801Y0023253D01*
X0069834Y0023012D01*
X0069860Y0022770D01*
X0069881Y0022528D01*
X0069896Y0022286D01*
X0069905Y0022043D01*
X0069908Y0021800D01*
X0069905Y0021557D01*
X0069896Y0021314D01*
X0069881Y0021072D01*
X0069860Y0020830D01*
X0069834Y0020588D01*
X0069801Y0020347D01*
X0069762Y0020107D01*
X0069718Y0019869D01*
X0069667Y0019631D01*
X0069611Y0019394D01*
X0069549Y0019160D01*
X0069482Y0018926D01*
X0069408Y0018695D01*
X0069329Y0018465D01*
X0069245Y0018237D01*
X0069154Y0018011D01*
X0069059Y0017788D01*
X0068957Y0017567D01*
X0068851Y0017349D01*
X0068739Y0017133D01*
X0068622Y0016920D01*
X0068500Y0016710D01*
X0068372Y0016504D01*
X0068240Y0016300D01*
X0068102Y0016099D01*
X0067960Y0015903D01*
X0067813Y0015709D01*
X0067661Y0015520D01*
X0067504Y0015334D01*
X0067343Y0015152D01*
X0067178Y0014974D01*
X0067008Y0014800D01*
X0066834Y0014630D01*
X0066656Y0014465D01*
X0066474Y0014304D01*
X0066288Y0014147D01*
X0066099Y0013995D01*
X0065905Y0013848D01*
X0065709Y0013706D01*
X0065508Y0013568D01*
X0065304Y0013436D01*
X0065098Y0013308D01*
X0064888Y0013186D01*
X0064675Y0013069D01*
X0064459Y0012957D01*
X0064241Y0012851D01*
X0064020Y0012749D01*
X0063797Y0012654D01*
X0063571Y0012563D01*
X0063343Y0012479D01*
X0063113Y0012400D01*
X0062882Y0012326D01*
X0062648Y0012259D01*
X0062414Y0012197D01*
X0062177Y0012141D01*
X0061939Y0012090D01*
X0061701Y0012046D01*
X0061461Y0012007D01*
X0061220Y0011974D01*
X0060978Y0011948D01*
X0060736Y0011927D01*
X0060494Y0011912D01*
X0060251Y0011903D01*
X0060008Y0011900D01*
X0059765Y0011903D01*
X0059522Y0011912D01*
X0059280Y0011927D01*
X0059038Y0011948D01*
X0058796Y0011974D01*
X0058555Y0012007D01*
X0058315Y0012046D01*
X0058077Y0012090D01*
X0057839Y0012141D01*
X0057602Y0012197D01*
X0057368Y0012259D01*
X0057134Y0012326D01*
X0056903Y0012400D01*
X0056673Y0012479D01*
X0056445Y0012563D01*
X0056219Y0012654D01*
X0055996Y0012749D01*
X0055775Y0012851D01*
X0055557Y0012957D01*
X0055341Y0013069D01*
X0055128Y0013186D01*
X0054918Y0013308D01*
X0054712Y0013436D01*
X0054508Y0013568D01*
X0054307Y0013706D01*
X0054111Y0013848D01*
X0053917Y0013995D01*
X0053728Y0014147D01*
X0053542Y0014304D01*
X0053360Y0014465D01*
X0053182Y0014630D01*
X0053008Y0014800D01*
X0052838Y0014974D01*
X0052673Y0015152D01*
X0052512Y0015334D01*
X0052355Y0015520D01*
X0052203Y0015709D01*
X0052056Y0015903D01*
X0051914Y0016099D01*
X0051776Y0016300D01*
X0051644Y0016504D01*
X0051516Y0016710D01*
X0051394Y0016920D01*
X0051277Y0017133D01*
X0051165Y0017349D01*
X0051059Y0017567D01*
X0050957Y0017788D01*
X0050862Y0018011D01*
X0050771Y0018237D01*
X0050687Y0018465D01*
X0050608Y0018695D01*
X0050534Y0018926D01*
X0050467Y0019160D01*
X0050405Y0019394D01*
X0050349Y0019631D01*
X0050298Y0019869D01*
X0050254Y0020107D01*
X0050215Y0020347D01*
X0050182Y0020588D01*
X0050156Y0020830D01*
X0050135Y0021072D01*
X0050120Y0021314D01*
X0050111Y0021557D01*
X0050108Y0021800D01*
D11*
X0001008Y0061800D02*
X0001026Y0063248D01*
X0001079Y0064695D01*
X0001168Y0066140D01*
X0001292Y0067583D01*
X0001452Y0069022D01*
X0001647Y0070457D01*
X0001877Y0071887D01*
X0002142Y0073310D01*
X0002442Y0074727D01*
X0002776Y0076136D01*
X0003145Y0077536D01*
X0003549Y0078927D01*
X0003986Y0080307D01*
X0004457Y0081677D01*
X0004961Y0083034D01*
X0005499Y0084378D01*
X0006070Y0085709D01*
X0006673Y0087026D01*
X0007308Y0088327D01*
X0007975Y0089612D01*
X0008673Y0090881D01*
X0009402Y0092132D01*
X0010162Y0093365D01*
X0010951Y0094579D01*
X0011770Y0095773D01*
X0012619Y0096946D01*
X0013496Y0098099D01*
X0014400Y0099229D01*
X0015333Y0100337D01*
X0016292Y0101422D01*
X0017277Y0102483D01*
X0018289Y0103519D01*
X0019325Y0104531D01*
X0020386Y0105516D01*
X0021471Y0106475D01*
X0022579Y0107408D01*
X0023709Y0108312D01*
X0024862Y0109189D01*
X0026035Y0110038D01*
X0027229Y0110857D01*
X0028443Y0111646D01*
X0029676Y0112406D01*
X0030927Y0113135D01*
X0032196Y0113833D01*
X0033481Y0114500D01*
X0034782Y0115135D01*
X0036099Y0115738D01*
X0037430Y0116309D01*
X0038774Y0116847D01*
X0040131Y0117351D01*
X0041501Y0117822D01*
X0042881Y0118259D01*
X0044272Y0118663D01*
X0045672Y0119032D01*
X0047081Y0119366D01*
X0048498Y0119666D01*
X0049921Y0119931D01*
X0051351Y0120161D01*
X0052786Y0120356D01*
X0054225Y0120516D01*
X0055668Y0120640D01*
X0057113Y0120729D01*
X0058560Y0120782D01*
X0060008Y0120800D01*
X0061456Y0120782D01*
X0062903Y0120729D01*
X0064348Y0120640D01*
X0065791Y0120516D01*
X0067230Y0120356D01*
X0068665Y0120161D01*
X0070095Y0119931D01*
X0071518Y0119666D01*
X0072935Y0119366D01*
X0074344Y0119032D01*
X0075744Y0118663D01*
X0077135Y0118259D01*
X0078515Y0117822D01*
X0079885Y0117351D01*
X0081242Y0116847D01*
X0082586Y0116309D01*
X0083917Y0115738D01*
X0085234Y0115135D01*
X0086535Y0114500D01*
X0087820Y0113833D01*
X0089089Y0113135D01*
X0090340Y0112406D01*
X0091573Y0111646D01*
X0092787Y0110857D01*
X0093981Y0110038D01*
X0095154Y0109189D01*
X0096307Y0108312D01*
X0097437Y0107408D01*
X0098545Y0106475D01*
X0099630Y0105516D01*
X0100691Y0104531D01*
X0101727Y0103519D01*
X0102739Y0102483D01*
X0103724Y0101422D01*
X0104683Y0100337D01*
X0105616Y0099229D01*
X0106520Y0098099D01*
X0107397Y0096946D01*
X0108246Y0095773D01*
X0109065Y0094579D01*
X0109854Y0093365D01*
X0110614Y0092132D01*
X0111343Y0090881D01*
X0112041Y0089612D01*
X0112708Y0088327D01*
X0113343Y0087026D01*
X0113946Y0085709D01*
X0114517Y0084378D01*
X0115055Y0083034D01*
X0115559Y0081677D01*
X0116030Y0080307D01*
X0116467Y0078927D01*
X0116871Y0077536D01*
X0117240Y0076136D01*
X0117574Y0074727D01*
X0117874Y0073310D01*
X0118139Y0071887D01*
X0118369Y0070457D01*
X0118564Y0069022D01*
X0118724Y0067583D01*
X0118848Y0066140D01*
X0118937Y0064695D01*
X0118990Y0063248D01*
X0119008Y0061800D01*
X0118990Y0060352D01*
X0118937Y0058905D01*
X0118848Y0057460D01*
X0118724Y0056017D01*
X0118564Y0054578D01*
X0118369Y0053143D01*
X0118139Y0051713D01*
X0117874Y0050290D01*
X0117574Y0048873D01*
X0117240Y0047464D01*
X0116871Y0046064D01*
X0116467Y0044673D01*
X0116030Y0043293D01*
X0115559Y0041923D01*
X0115055Y0040566D01*
X0114517Y0039222D01*
X0113946Y0037891D01*
X0113343Y0036574D01*
X0112708Y0035273D01*
X0112041Y0033988D01*
X0111343Y0032719D01*
X0110614Y0031468D01*
X0109854Y0030235D01*
X0109065Y0029021D01*
X0108246Y0027827D01*
X0107397Y0026654D01*
X0106520Y0025501D01*
X0105616Y0024371D01*
X0104683Y0023263D01*
X0103724Y0022178D01*
X0102739Y0021117D01*
X0101727Y0020081D01*
X0100691Y0019069D01*
X0099630Y0018084D01*
X0098545Y0017125D01*
X0097437Y0016192D01*
X0096307Y0015288D01*
X0095154Y0014411D01*
X0093981Y0013562D01*
X0092787Y0012743D01*
X0091573Y0011954D01*
X0090340Y0011194D01*
X0089089Y0010465D01*
X0087820Y0009767D01*
X0086535Y0009100D01*
X0085234Y0008465D01*
X0083917Y0007862D01*
X0082586Y0007291D01*
X0081242Y0006753D01*
X0079885Y0006249D01*
X0078515Y0005778D01*
X0077135Y0005341D01*
X0075744Y0004937D01*
X0074344Y0004568D01*
X0072935Y0004234D01*
X0071518Y0003934D01*
X0070095Y0003669D01*
X0068665Y0003439D01*
X0067230Y0003244D01*
X0065791Y0003084D01*
X0064348Y0002960D01*
X0062903Y0002871D01*
X0061456Y0002818D01*
X0060008Y0002800D01*
X0058560Y0002818D01*
X0057113Y0002871D01*
X0055668Y0002960D01*
X0054225Y0003084D01*
X0052786Y0003244D01*
X0051351Y0003439D01*
X0049921Y0003669D01*
X0048498Y0003934D01*
X0047081Y0004234D01*
X0045672Y0004568D01*
X0044272Y0004937D01*
X0042881Y0005341D01*
X0041501Y0005778D01*
X0040131Y0006249D01*
X0038774Y0006753D01*
X0037430Y0007291D01*
X0036099Y0007862D01*
X0034782Y0008465D01*
X0033481Y0009100D01*
X0032196Y0009767D01*
X0030927Y0010465D01*
X0029676Y0011194D01*
X0028443Y0011954D01*
X0027229Y0012743D01*
X0026035Y0013562D01*
X0024862Y0014411D01*
X0023709Y0015288D01*
X0022579Y0016192D01*
X0021471Y0017125D01*
X0020386Y0018084D01*
X0019325Y0019069D01*
X0018289Y0020081D01*
X0017277Y0021117D01*
X0016292Y0022178D01*
X0015333Y0023263D01*
X0014400Y0024371D01*
X0013496Y0025501D01*
X0012619Y0026654D01*
X0011770Y0027827D01*
X0010951Y0029021D01*
X0010162Y0030235D01*
X0009402Y0031468D01*
X0008673Y0032719D01*
X0007975Y0033988D01*
X0007308Y0035273D01*
X0006673Y0036574D01*
X0006070Y0037891D01*
X0005499Y0039222D01*
X0004961Y0040566D01*
X0004457Y0041923D01*
X0003986Y0043293D01*
X0003549Y0044673D01*
X0003145Y0046064D01*
X0002776Y0047464D01*
X0002442Y0048873D01*
X0002142Y0050290D01*
X0001877Y0051713D01*
X0001647Y0053143D01*
X0001452Y0054578D01*
X0001292Y0056017D01*
X0001168Y0057460D01*
X0001079Y0058905D01*
X0001026Y0060352D01*
X0001008Y0061800D01*
D12*
X0035633Y0019300D03*
X0011258Y0061800D03*
X0035633Y0103987D03*
X0084383Y0103987D03*
X0108758Y0061800D03*
X0084383Y0019613D03*
D13*
X0060008Y0061800D03*
D14*
X0067094Y0068493D03*
X0069850Y0061800D03*
X0067094Y0055107D03*
X0060008Y0051957D03*
X0052921Y0055107D03*
X0050165Y0061800D03*
X0052921Y0068493D03*
X0060008Y0071643D03*
M02*
