G75*
%MOIN*%
%OFA0B0*%
%FSLAX25Y25*%
%IPPOS*%
%LPD*%
%AMOC8*
5,1,8,0,0,1.08239X$1,22.5*
%
%ADD10C,0.01600*%
%ADD11C,0.00010*%
%ADD12C,0.00016*%
%ADD13C,0.00800*%
D10*
X0041716Y0046528D02*
X0041720Y0046848D01*
X0041732Y0047168D01*
X0041751Y0047488D01*
X0041779Y0047807D01*
X0041814Y0048125D01*
X0041857Y0048443D01*
X0041908Y0048759D01*
X0041967Y0049074D01*
X0042033Y0049387D01*
X0042107Y0049699D01*
X0042189Y0050009D01*
X0042278Y0050316D01*
X0042375Y0050622D01*
X0042479Y0050924D01*
X0042590Y0051225D01*
X0042709Y0051522D01*
X0042836Y0051816D01*
X0042969Y0052108D01*
X0043109Y0052395D01*
X0043257Y0052680D01*
X0043411Y0052960D01*
X0043573Y0053237D01*
X0043741Y0053510D01*
X0043915Y0053778D01*
X0044097Y0054042D01*
X0044284Y0054302D01*
X0044478Y0054557D01*
X0044678Y0054807D01*
X0044884Y0055052D01*
X0045097Y0055292D01*
X0045315Y0055527D01*
X0045538Y0055756D01*
X0045767Y0055979D01*
X0046002Y0056197D01*
X0046242Y0056410D01*
X0046487Y0056616D01*
X0046737Y0056816D01*
X0046992Y0057010D01*
X0047252Y0057197D01*
X0047516Y0057379D01*
X0047784Y0057553D01*
X0048057Y0057721D01*
X0048334Y0057883D01*
X0048614Y0058037D01*
X0048899Y0058185D01*
X0049186Y0058325D01*
X0049478Y0058458D01*
X0049772Y0058585D01*
X0050069Y0058704D01*
X0050370Y0058815D01*
X0050672Y0058919D01*
X0050978Y0059016D01*
X0051285Y0059105D01*
X0051595Y0059187D01*
X0051907Y0059261D01*
X0052220Y0059327D01*
X0052535Y0059386D01*
X0052851Y0059437D01*
X0053169Y0059480D01*
X0053487Y0059515D01*
X0053806Y0059543D01*
X0054126Y0059562D01*
X0054446Y0059574D01*
X0054766Y0059578D01*
X0055086Y0059574D01*
X0055406Y0059562D01*
X0055726Y0059543D01*
X0056045Y0059515D01*
X0056363Y0059480D01*
X0056681Y0059437D01*
X0056997Y0059386D01*
X0057312Y0059327D01*
X0057625Y0059261D01*
X0057937Y0059187D01*
X0058247Y0059105D01*
X0058554Y0059016D01*
X0058860Y0058919D01*
X0059162Y0058815D01*
X0059463Y0058704D01*
X0059760Y0058585D01*
X0060054Y0058458D01*
X0060346Y0058325D01*
X0060633Y0058185D01*
X0060918Y0058037D01*
X0061198Y0057883D01*
X0061475Y0057721D01*
X0061748Y0057553D01*
X0062016Y0057379D01*
X0062280Y0057197D01*
X0062540Y0057010D01*
X0062795Y0056816D01*
X0063045Y0056616D01*
X0063290Y0056410D01*
X0063530Y0056197D01*
X0063765Y0055979D01*
X0063994Y0055756D01*
X0064217Y0055527D01*
X0064435Y0055292D01*
X0064648Y0055052D01*
X0064854Y0054807D01*
X0065054Y0054557D01*
X0065248Y0054302D01*
X0065435Y0054042D01*
X0065617Y0053778D01*
X0065791Y0053510D01*
X0065959Y0053237D01*
X0066121Y0052960D01*
X0066275Y0052680D01*
X0066423Y0052395D01*
X0066563Y0052108D01*
X0066696Y0051816D01*
X0066823Y0051522D01*
X0066942Y0051225D01*
X0067053Y0050924D01*
X0067157Y0050622D01*
X0067254Y0050316D01*
X0067343Y0050009D01*
X0067425Y0049699D01*
X0067499Y0049387D01*
X0067565Y0049074D01*
X0067624Y0048759D01*
X0067675Y0048443D01*
X0067718Y0048125D01*
X0067753Y0047807D01*
X0067781Y0047488D01*
X0067800Y0047168D01*
X0067812Y0046848D01*
X0067816Y0046528D01*
X0067812Y0046208D01*
X0067800Y0045888D01*
X0067781Y0045568D01*
X0067753Y0045249D01*
X0067718Y0044931D01*
X0067675Y0044613D01*
X0067624Y0044297D01*
X0067565Y0043982D01*
X0067499Y0043669D01*
X0067425Y0043357D01*
X0067343Y0043047D01*
X0067254Y0042740D01*
X0067157Y0042434D01*
X0067053Y0042132D01*
X0066942Y0041831D01*
X0066823Y0041534D01*
X0066696Y0041240D01*
X0066563Y0040948D01*
X0066423Y0040661D01*
X0066275Y0040376D01*
X0066121Y0040096D01*
X0065959Y0039819D01*
X0065791Y0039546D01*
X0065617Y0039278D01*
X0065435Y0039014D01*
X0065248Y0038754D01*
X0065054Y0038499D01*
X0064854Y0038249D01*
X0064648Y0038004D01*
X0064435Y0037764D01*
X0064217Y0037529D01*
X0063994Y0037300D01*
X0063765Y0037077D01*
X0063530Y0036859D01*
X0063290Y0036646D01*
X0063045Y0036440D01*
X0062795Y0036240D01*
X0062540Y0036046D01*
X0062280Y0035859D01*
X0062016Y0035677D01*
X0061748Y0035503D01*
X0061475Y0035335D01*
X0061198Y0035173D01*
X0060918Y0035019D01*
X0060633Y0034871D01*
X0060346Y0034731D01*
X0060054Y0034598D01*
X0059760Y0034471D01*
X0059463Y0034352D01*
X0059162Y0034241D01*
X0058860Y0034137D01*
X0058554Y0034040D01*
X0058247Y0033951D01*
X0057937Y0033869D01*
X0057625Y0033795D01*
X0057312Y0033729D01*
X0056997Y0033670D01*
X0056681Y0033619D01*
X0056363Y0033576D01*
X0056045Y0033541D01*
X0055726Y0033513D01*
X0055406Y0033494D01*
X0055086Y0033482D01*
X0054766Y0033478D01*
X0054446Y0033482D01*
X0054126Y0033494D01*
X0053806Y0033513D01*
X0053487Y0033541D01*
X0053169Y0033576D01*
X0052851Y0033619D01*
X0052535Y0033670D01*
X0052220Y0033729D01*
X0051907Y0033795D01*
X0051595Y0033869D01*
X0051285Y0033951D01*
X0050978Y0034040D01*
X0050672Y0034137D01*
X0050370Y0034241D01*
X0050069Y0034352D01*
X0049772Y0034471D01*
X0049478Y0034598D01*
X0049186Y0034731D01*
X0048899Y0034871D01*
X0048614Y0035019D01*
X0048334Y0035173D01*
X0048057Y0035335D01*
X0047784Y0035503D01*
X0047516Y0035677D01*
X0047252Y0035859D01*
X0046992Y0036046D01*
X0046737Y0036240D01*
X0046487Y0036440D01*
X0046242Y0036646D01*
X0046002Y0036859D01*
X0045767Y0037077D01*
X0045538Y0037300D01*
X0045315Y0037529D01*
X0045097Y0037764D01*
X0044884Y0038004D01*
X0044678Y0038249D01*
X0044478Y0038499D01*
X0044284Y0038754D01*
X0044097Y0039014D01*
X0043915Y0039278D01*
X0043741Y0039546D01*
X0043573Y0039819D01*
X0043411Y0040096D01*
X0043257Y0040376D01*
X0043109Y0040661D01*
X0042969Y0040948D01*
X0042836Y0041240D01*
X0042709Y0041534D01*
X0042590Y0041831D01*
X0042479Y0042132D01*
X0042375Y0042434D01*
X0042278Y0042740D01*
X0042189Y0043047D01*
X0042107Y0043357D01*
X0042033Y0043669D01*
X0041967Y0043982D01*
X0041908Y0044297D01*
X0041857Y0044613D01*
X0041814Y0044931D01*
X0041779Y0045249D01*
X0041751Y0045568D01*
X0041732Y0045888D01*
X0041720Y0046208D01*
X0041716Y0046528D01*
X0077018Y0027778D02*
X0077022Y0028091D01*
X0077033Y0028404D01*
X0077053Y0028716D01*
X0077079Y0029028D01*
X0077114Y0029338D01*
X0077156Y0029649D01*
X0077206Y0029957D01*
X0077263Y0030265D01*
X0077328Y0030571D01*
X0077400Y0030876D01*
X0077480Y0031178D01*
X0077567Y0031479D01*
X0077661Y0031777D01*
X0077763Y0032073D01*
X0077872Y0032366D01*
X0077988Y0032656D01*
X0078112Y0032944D01*
X0078242Y0033228D01*
X0078379Y0033510D01*
X0078523Y0033787D01*
X0078674Y0034061D01*
X0078832Y0034332D01*
X0078996Y0034598D01*
X0079166Y0034860D01*
X0079343Y0035118D01*
X0079527Y0035372D01*
X0079716Y0035621D01*
X0079912Y0035865D01*
X0080113Y0036105D01*
X0080320Y0036339D01*
X0080533Y0036568D01*
X0080752Y0036792D01*
X0080976Y0037011D01*
X0081205Y0037224D01*
X0081439Y0037431D01*
X0081679Y0037632D01*
X0081923Y0037828D01*
X0082172Y0038017D01*
X0082426Y0038201D01*
X0082684Y0038378D01*
X0082946Y0038548D01*
X0083212Y0038712D01*
X0083483Y0038870D01*
X0083757Y0039021D01*
X0084034Y0039165D01*
X0084316Y0039302D01*
X0084600Y0039432D01*
X0084888Y0039556D01*
X0085178Y0039672D01*
X0085471Y0039781D01*
X0085767Y0039883D01*
X0086065Y0039977D01*
X0086366Y0040064D01*
X0086668Y0040144D01*
X0086973Y0040216D01*
X0087279Y0040281D01*
X0087587Y0040338D01*
X0087895Y0040388D01*
X0088206Y0040430D01*
X0088516Y0040465D01*
X0088828Y0040491D01*
X0089140Y0040511D01*
X0089453Y0040522D01*
X0089766Y0040526D01*
X0090079Y0040522D01*
X0090392Y0040511D01*
X0090704Y0040491D01*
X0091016Y0040465D01*
X0091326Y0040430D01*
X0091637Y0040388D01*
X0091945Y0040338D01*
X0092253Y0040281D01*
X0092559Y0040216D01*
X0092864Y0040144D01*
X0093166Y0040064D01*
X0093467Y0039977D01*
X0093765Y0039883D01*
X0094061Y0039781D01*
X0094354Y0039672D01*
X0094644Y0039556D01*
X0094932Y0039432D01*
X0095216Y0039302D01*
X0095498Y0039165D01*
X0095775Y0039021D01*
X0096049Y0038870D01*
X0096320Y0038712D01*
X0096586Y0038548D01*
X0096848Y0038378D01*
X0097106Y0038201D01*
X0097360Y0038017D01*
X0097609Y0037828D01*
X0097853Y0037632D01*
X0098093Y0037431D01*
X0098327Y0037224D01*
X0098556Y0037011D01*
X0098780Y0036792D01*
X0098999Y0036568D01*
X0099212Y0036339D01*
X0099419Y0036105D01*
X0099620Y0035865D01*
X0099816Y0035621D01*
X0100005Y0035372D01*
X0100189Y0035118D01*
X0100366Y0034860D01*
X0100536Y0034598D01*
X0100700Y0034332D01*
X0100858Y0034061D01*
X0101009Y0033787D01*
X0101153Y0033510D01*
X0101290Y0033228D01*
X0101420Y0032944D01*
X0101544Y0032656D01*
X0101660Y0032366D01*
X0101769Y0032073D01*
X0101871Y0031777D01*
X0101965Y0031479D01*
X0102052Y0031178D01*
X0102132Y0030876D01*
X0102204Y0030571D01*
X0102269Y0030265D01*
X0102326Y0029957D01*
X0102376Y0029649D01*
X0102418Y0029338D01*
X0102453Y0029028D01*
X0102479Y0028716D01*
X0102499Y0028404D01*
X0102510Y0028091D01*
X0102514Y0027778D01*
X0102510Y0027465D01*
X0102499Y0027152D01*
X0102479Y0026840D01*
X0102453Y0026528D01*
X0102418Y0026218D01*
X0102376Y0025907D01*
X0102326Y0025599D01*
X0102269Y0025291D01*
X0102204Y0024985D01*
X0102132Y0024680D01*
X0102052Y0024378D01*
X0101965Y0024077D01*
X0101871Y0023779D01*
X0101769Y0023483D01*
X0101660Y0023190D01*
X0101544Y0022900D01*
X0101420Y0022612D01*
X0101290Y0022328D01*
X0101153Y0022046D01*
X0101009Y0021769D01*
X0100858Y0021495D01*
X0100700Y0021224D01*
X0100536Y0020958D01*
X0100366Y0020696D01*
X0100189Y0020438D01*
X0100005Y0020184D01*
X0099816Y0019935D01*
X0099620Y0019691D01*
X0099419Y0019451D01*
X0099212Y0019217D01*
X0098999Y0018988D01*
X0098780Y0018764D01*
X0098556Y0018545D01*
X0098327Y0018332D01*
X0098093Y0018125D01*
X0097853Y0017924D01*
X0097609Y0017728D01*
X0097360Y0017539D01*
X0097106Y0017355D01*
X0096848Y0017178D01*
X0096586Y0017008D01*
X0096320Y0016844D01*
X0096049Y0016686D01*
X0095775Y0016535D01*
X0095498Y0016391D01*
X0095216Y0016254D01*
X0094932Y0016124D01*
X0094644Y0016000D01*
X0094354Y0015884D01*
X0094061Y0015775D01*
X0093765Y0015673D01*
X0093467Y0015579D01*
X0093166Y0015492D01*
X0092864Y0015412D01*
X0092559Y0015340D01*
X0092253Y0015275D01*
X0091945Y0015218D01*
X0091637Y0015168D01*
X0091326Y0015126D01*
X0091016Y0015091D01*
X0090704Y0015065D01*
X0090392Y0015045D01*
X0090079Y0015034D01*
X0089766Y0015030D01*
X0089453Y0015034D01*
X0089140Y0015045D01*
X0088828Y0015065D01*
X0088516Y0015091D01*
X0088206Y0015126D01*
X0087895Y0015168D01*
X0087587Y0015218D01*
X0087279Y0015275D01*
X0086973Y0015340D01*
X0086668Y0015412D01*
X0086366Y0015492D01*
X0086065Y0015579D01*
X0085767Y0015673D01*
X0085471Y0015775D01*
X0085178Y0015884D01*
X0084888Y0016000D01*
X0084600Y0016124D01*
X0084316Y0016254D01*
X0084034Y0016391D01*
X0083757Y0016535D01*
X0083483Y0016686D01*
X0083212Y0016844D01*
X0082946Y0017008D01*
X0082684Y0017178D01*
X0082426Y0017355D01*
X0082172Y0017539D01*
X0081923Y0017728D01*
X0081679Y0017924D01*
X0081439Y0018125D01*
X0081205Y0018332D01*
X0080976Y0018545D01*
X0080752Y0018764D01*
X0080533Y0018988D01*
X0080320Y0019217D01*
X0080113Y0019451D01*
X0079912Y0019691D01*
X0079716Y0019935D01*
X0079527Y0020184D01*
X0079343Y0020438D01*
X0079166Y0020696D01*
X0078996Y0020958D01*
X0078832Y0021224D01*
X0078674Y0021495D01*
X0078523Y0021769D01*
X0078379Y0022046D01*
X0078242Y0022328D01*
X0078112Y0022612D01*
X0077988Y0022900D01*
X0077872Y0023190D01*
X0077763Y0023483D01*
X0077661Y0023779D01*
X0077567Y0024077D01*
X0077480Y0024378D01*
X0077400Y0024680D01*
X0077328Y0024985D01*
X0077263Y0025291D01*
X0077206Y0025599D01*
X0077156Y0025907D01*
X0077114Y0026218D01*
X0077079Y0026528D01*
X0077053Y0026840D01*
X0077033Y0027152D01*
X0077022Y0027465D01*
X0077018Y0027778D01*
X0112018Y0047778D02*
X0112022Y0048091D01*
X0112033Y0048404D01*
X0112053Y0048716D01*
X0112079Y0049028D01*
X0112114Y0049338D01*
X0112156Y0049649D01*
X0112206Y0049957D01*
X0112263Y0050265D01*
X0112328Y0050571D01*
X0112400Y0050876D01*
X0112480Y0051178D01*
X0112567Y0051479D01*
X0112661Y0051777D01*
X0112763Y0052073D01*
X0112872Y0052366D01*
X0112988Y0052656D01*
X0113112Y0052944D01*
X0113242Y0053228D01*
X0113379Y0053510D01*
X0113523Y0053787D01*
X0113674Y0054061D01*
X0113832Y0054332D01*
X0113996Y0054598D01*
X0114166Y0054860D01*
X0114343Y0055118D01*
X0114527Y0055372D01*
X0114716Y0055621D01*
X0114912Y0055865D01*
X0115113Y0056105D01*
X0115320Y0056339D01*
X0115533Y0056568D01*
X0115752Y0056792D01*
X0115976Y0057011D01*
X0116205Y0057224D01*
X0116439Y0057431D01*
X0116679Y0057632D01*
X0116923Y0057828D01*
X0117172Y0058017D01*
X0117426Y0058201D01*
X0117684Y0058378D01*
X0117946Y0058548D01*
X0118212Y0058712D01*
X0118483Y0058870D01*
X0118757Y0059021D01*
X0119034Y0059165D01*
X0119316Y0059302D01*
X0119600Y0059432D01*
X0119888Y0059556D01*
X0120178Y0059672D01*
X0120471Y0059781D01*
X0120767Y0059883D01*
X0121065Y0059977D01*
X0121366Y0060064D01*
X0121668Y0060144D01*
X0121973Y0060216D01*
X0122279Y0060281D01*
X0122587Y0060338D01*
X0122895Y0060388D01*
X0123206Y0060430D01*
X0123516Y0060465D01*
X0123828Y0060491D01*
X0124140Y0060511D01*
X0124453Y0060522D01*
X0124766Y0060526D01*
X0125079Y0060522D01*
X0125392Y0060511D01*
X0125704Y0060491D01*
X0126016Y0060465D01*
X0126326Y0060430D01*
X0126637Y0060388D01*
X0126945Y0060338D01*
X0127253Y0060281D01*
X0127559Y0060216D01*
X0127864Y0060144D01*
X0128166Y0060064D01*
X0128467Y0059977D01*
X0128765Y0059883D01*
X0129061Y0059781D01*
X0129354Y0059672D01*
X0129644Y0059556D01*
X0129932Y0059432D01*
X0130216Y0059302D01*
X0130498Y0059165D01*
X0130775Y0059021D01*
X0131049Y0058870D01*
X0131320Y0058712D01*
X0131586Y0058548D01*
X0131848Y0058378D01*
X0132106Y0058201D01*
X0132360Y0058017D01*
X0132609Y0057828D01*
X0132853Y0057632D01*
X0133093Y0057431D01*
X0133327Y0057224D01*
X0133556Y0057011D01*
X0133780Y0056792D01*
X0133999Y0056568D01*
X0134212Y0056339D01*
X0134419Y0056105D01*
X0134620Y0055865D01*
X0134816Y0055621D01*
X0135005Y0055372D01*
X0135189Y0055118D01*
X0135366Y0054860D01*
X0135536Y0054598D01*
X0135700Y0054332D01*
X0135858Y0054061D01*
X0136009Y0053787D01*
X0136153Y0053510D01*
X0136290Y0053228D01*
X0136420Y0052944D01*
X0136544Y0052656D01*
X0136660Y0052366D01*
X0136769Y0052073D01*
X0136871Y0051777D01*
X0136965Y0051479D01*
X0137052Y0051178D01*
X0137132Y0050876D01*
X0137204Y0050571D01*
X0137269Y0050265D01*
X0137326Y0049957D01*
X0137376Y0049649D01*
X0137418Y0049338D01*
X0137453Y0049028D01*
X0137479Y0048716D01*
X0137499Y0048404D01*
X0137510Y0048091D01*
X0137514Y0047778D01*
X0137510Y0047465D01*
X0137499Y0047152D01*
X0137479Y0046840D01*
X0137453Y0046528D01*
X0137418Y0046218D01*
X0137376Y0045907D01*
X0137326Y0045599D01*
X0137269Y0045291D01*
X0137204Y0044985D01*
X0137132Y0044680D01*
X0137052Y0044378D01*
X0136965Y0044077D01*
X0136871Y0043779D01*
X0136769Y0043483D01*
X0136660Y0043190D01*
X0136544Y0042900D01*
X0136420Y0042612D01*
X0136290Y0042328D01*
X0136153Y0042046D01*
X0136009Y0041769D01*
X0135858Y0041495D01*
X0135700Y0041224D01*
X0135536Y0040958D01*
X0135366Y0040696D01*
X0135189Y0040438D01*
X0135005Y0040184D01*
X0134816Y0039935D01*
X0134620Y0039691D01*
X0134419Y0039451D01*
X0134212Y0039217D01*
X0133999Y0038988D01*
X0133780Y0038764D01*
X0133556Y0038545D01*
X0133327Y0038332D01*
X0133093Y0038125D01*
X0132853Y0037924D01*
X0132609Y0037728D01*
X0132360Y0037539D01*
X0132106Y0037355D01*
X0131848Y0037178D01*
X0131586Y0037008D01*
X0131320Y0036844D01*
X0131049Y0036686D01*
X0130775Y0036535D01*
X0130498Y0036391D01*
X0130216Y0036254D01*
X0129932Y0036124D01*
X0129644Y0036000D01*
X0129354Y0035884D01*
X0129061Y0035775D01*
X0128765Y0035673D01*
X0128467Y0035579D01*
X0128166Y0035492D01*
X0127864Y0035412D01*
X0127559Y0035340D01*
X0127253Y0035275D01*
X0126945Y0035218D01*
X0126637Y0035168D01*
X0126326Y0035126D01*
X0126016Y0035091D01*
X0125704Y0035065D01*
X0125392Y0035045D01*
X0125079Y0035034D01*
X0124766Y0035030D01*
X0124453Y0035034D01*
X0124140Y0035045D01*
X0123828Y0035065D01*
X0123516Y0035091D01*
X0123206Y0035126D01*
X0122895Y0035168D01*
X0122587Y0035218D01*
X0122279Y0035275D01*
X0121973Y0035340D01*
X0121668Y0035412D01*
X0121366Y0035492D01*
X0121065Y0035579D01*
X0120767Y0035673D01*
X0120471Y0035775D01*
X0120178Y0035884D01*
X0119888Y0036000D01*
X0119600Y0036124D01*
X0119316Y0036254D01*
X0119034Y0036391D01*
X0118757Y0036535D01*
X0118483Y0036686D01*
X0118212Y0036844D01*
X0117946Y0037008D01*
X0117684Y0037178D01*
X0117426Y0037355D01*
X0117172Y0037539D01*
X0116923Y0037728D01*
X0116679Y0037924D01*
X0116439Y0038125D01*
X0116205Y0038332D01*
X0115976Y0038545D01*
X0115752Y0038764D01*
X0115533Y0038988D01*
X0115320Y0039217D01*
X0115113Y0039451D01*
X0114912Y0039691D01*
X0114716Y0039935D01*
X0114527Y0040184D01*
X0114343Y0040438D01*
X0114166Y0040696D01*
X0113996Y0040958D01*
X0113832Y0041224D01*
X0113674Y0041495D01*
X0113523Y0041769D01*
X0113379Y0042046D01*
X0113242Y0042328D01*
X0113112Y0042612D01*
X0112988Y0042900D01*
X0112872Y0043190D01*
X0112763Y0043483D01*
X0112661Y0043779D01*
X0112567Y0044077D01*
X0112480Y0044378D01*
X0112400Y0044680D01*
X0112328Y0044985D01*
X0112263Y0045291D01*
X0112206Y0045599D01*
X0112156Y0045907D01*
X0112114Y0046218D01*
X0112079Y0046528D01*
X0112053Y0046840D01*
X0112033Y0047152D01*
X0112022Y0047465D01*
X0112018Y0047778D01*
X0069150Y0067778D02*
X0069156Y0068284D01*
X0069175Y0068790D01*
X0069206Y0069295D01*
X0069249Y0069799D01*
X0069305Y0070302D01*
X0069373Y0070803D01*
X0069454Y0071303D01*
X0069546Y0071800D01*
X0069651Y0072295D01*
X0069768Y0072787D01*
X0069897Y0073277D01*
X0070038Y0073763D01*
X0070191Y0074245D01*
X0070355Y0074723D01*
X0070531Y0075198D01*
X0070719Y0075667D01*
X0070919Y0076132D01*
X0071129Y0076592D01*
X0071351Y0077047D01*
X0071584Y0077496D01*
X0071828Y0077940D01*
X0072083Y0078377D01*
X0072348Y0078808D01*
X0072624Y0079232D01*
X0072911Y0079649D01*
X0073207Y0080059D01*
X0073513Y0080462D01*
X0073830Y0080857D01*
X0074155Y0081244D01*
X0074491Y0081623D01*
X0074835Y0081994D01*
X0075188Y0082356D01*
X0075550Y0082709D01*
X0075921Y0083053D01*
X0076300Y0083389D01*
X0076687Y0083714D01*
X0077082Y0084031D01*
X0077485Y0084337D01*
X0077895Y0084633D01*
X0078312Y0084920D01*
X0078736Y0085196D01*
X0079167Y0085461D01*
X0079604Y0085716D01*
X0080048Y0085960D01*
X0080497Y0086193D01*
X0080952Y0086415D01*
X0081412Y0086625D01*
X0081877Y0086825D01*
X0082346Y0087013D01*
X0082821Y0087189D01*
X0083299Y0087353D01*
X0083781Y0087506D01*
X0084267Y0087647D01*
X0084757Y0087776D01*
X0085249Y0087893D01*
X0085744Y0087998D01*
X0086241Y0088090D01*
X0086741Y0088171D01*
X0087242Y0088239D01*
X0087745Y0088295D01*
X0088249Y0088338D01*
X0088754Y0088369D01*
X0089260Y0088388D01*
X0089766Y0088394D01*
X0090272Y0088388D01*
X0090778Y0088369D01*
X0091283Y0088338D01*
X0091787Y0088295D01*
X0092290Y0088239D01*
X0092791Y0088171D01*
X0093291Y0088090D01*
X0093788Y0087998D01*
X0094283Y0087893D01*
X0094775Y0087776D01*
X0095265Y0087647D01*
X0095751Y0087506D01*
X0096233Y0087353D01*
X0096711Y0087189D01*
X0097186Y0087013D01*
X0097655Y0086825D01*
X0098120Y0086625D01*
X0098580Y0086415D01*
X0099035Y0086193D01*
X0099484Y0085960D01*
X0099928Y0085716D01*
X0100365Y0085461D01*
X0100796Y0085196D01*
X0101220Y0084920D01*
X0101637Y0084633D01*
X0102047Y0084337D01*
X0102450Y0084031D01*
X0102845Y0083714D01*
X0103232Y0083389D01*
X0103611Y0083053D01*
X0103982Y0082709D01*
X0104344Y0082356D01*
X0104697Y0081994D01*
X0105041Y0081623D01*
X0105377Y0081244D01*
X0105702Y0080857D01*
X0106019Y0080462D01*
X0106325Y0080059D01*
X0106621Y0079649D01*
X0106908Y0079232D01*
X0107184Y0078808D01*
X0107449Y0078377D01*
X0107704Y0077940D01*
X0107948Y0077496D01*
X0108181Y0077047D01*
X0108403Y0076592D01*
X0108613Y0076132D01*
X0108813Y0075667D01*
X0109001Y0075198D01*
X0109177Y0074723D01*
X0109341Y0074245D01*
X0109494Y0073763D01*
X0109635Y0073277D01*
X0109764Y0072787D01*
X0109881Y0072295D01*
X0109986Y0071800D01*
X0110078Y0071303D01*
X0110159Y0070803D01*
X0110227Y0070302D01*
X0110283Y0069799D01*
X0110326Y0069295D01*
X0110357Y0068790D01*
X0110376Y0068284D01*
X0110382Y0067778D01*
X0110376Y0067272D01*
X0110357Y0066766D01*
X0110326Y0066261D01*
X0110283Y0065757D01*
X0110227Y0065254D01*
X0110159Y0064753D01*
X0110078Y0064253D01*
X0109986Y0063756D01*
X0109881Y0063261D01*
X0109764Y0062769D01*
X0109635Y0062279D01*
X0109494Y0061793D01*
X0109341Y0061311D01*
X0109177Y0060833D01*
X0109001Y0060358D01*
X0108813Y0059889D01*
X0108613Y0059424D01*
X0108403Y0058964D01*
X0108181Y0058509D01*
X0107948Y0058060D01*
X0107704Y0057616D01*
X0107449Y0057179D01*
X0107184Y0056748D01*
X0106908Y0056324D01*
X0106621Y0055907D01*
X0106325Y0055497D01*
X0106019Y0055094D01*
X0105702Y0054699D01*
X0105377Y0054312D01*
X0105041Y0053933D01*
X0104697Y0053562D01*
X0104344Y0053200D01*
X0103982Y0052847D01*
X0103611Y0052503D01*
X0103232Y0052167D01*
X0102845Y0051842D01*
X0102450Y0051525D01*
X0102047Y0051219D01*
X0101637Y0050923D01*
X0101220Y0050636D01*
X0100796Y0050360D01*
X0100365Y0050095D01*
X0099928Y0049840D01*
X0099484Y0049596D01*
X0099035Y0049363D01*
X0098580Y0049141D01*
X0098120Y0048931D01*
X0097655Y0048731D01*
X0097186Y0048543D01*
X0096711Y0048367D01*
X0096233Y0048203D01*
X0095751Y0048050D01*
X0095265Y0047909D01*
X0094775Y0047780D01*
X0094283Y0047663D01*
X0093788Y0047558D01*
X0093291Y0047466D01*
X0092791Y0047385D01*
X0092290Y0047317D01*
X0091787Y0047261D01*
X0091283Y0047218D01*
X0090778Y0047187D01*
X0090272Y0047168D01*
X0089766Y0047162D01*
X0089260Y0047168D01*
X0088754Y0047187D01*
X0088249Y0047218D01*
X0087745Y0047261D01*
X0087242Y0047317D01*
X0086741Y0047385D01*
X0086241Y0047466D01*
X0085744Y0047558D01*
X0085249Y0047663D01*
X0084757Y0047780D01*
X0084267Y0047909D01*
X0083781Y0048050D01*
X0083299Y0048203D01*
X0082821Y0048367D01*
X0082346Y0048543D01*
X0081877Y0048731D01*
X0081412Y0048931D01*
X0080952Y0049141D01*
X0080497Y0049363D01*
X0080048Y0049596D01*
X0079604Y0049840D01*
X0079167Y0050095D01*
X0078736Y0050360D01*
X0078312Y0050636D01*
X0077895Y0050923D01*
X0077485Y0051219D01*
X0077082Y0051525D01*
X0076687Y0051842D01*
X0076300Y0052167D01*
X0075921Y0052503D01*
X0075550Y0052847D01*
X0075188Y0053200D01*
X0074835Y0053562D01*
X0074491Y0053933D01*
X0074155Y0054312D01*
X0073830Y0054699D01*
X0073513Y0055094D01*
X0073207Y0055497D01*
X0072911Y0055907D01*
X0072624Y0056324D01*
X0072348Y0056748D01*
X0072083Y0057179D01*
X0071828Y0057616D01*
X0071584Y0058060D01*
X0071351Y0058509D01*
X0071129Y0058964D01*
X0070919Y0059424D01*
X0070719Y0059889D01*
X0070531Y0060358D01*
X0070355Y0060833D01*
X0070191Y0061311D01*
X0070038Y0061793D01*
X0069897Y0062279D01*
X0069768Y0062769D01*
X0069651Y0063261D01*
X0069546Y0063756D01*
X0069454Y0064253D01*
X0069373Y0064753D01*
X0069305Y0065254D01*
X0069249Y0065757D01*
X0069206Y0066261D01*
X0069175Y0066766D01*
X0069156Y0067272D01*
X0069150Y0067778D01*
X0042266Y0087778D02*
X0042270Y0088085D01*
X0042281Y0088391D01*
X0042300Y0088698D01*
X0042326Y0089003D01*
X0042360Y0089308D01*
X0042401Y0089612D01*
X0042450Y0089915D01*
X0042506Y0090217D01*
X0042570Y0090517D01*
X0042641Y0090815D01*
X0042719Y0091112D01*
X0042804Y0091407D01*
X0042897Y0091699D01*
X0042997Y0091989D01*
X0043104Y0092277D01*
X0043218Y0092562D01*
X0043338Y0092844D01*
X0043466Y0093122D01*
X0043601Y0093398D01*
X0043742Y0093670D01*
X0043890Y0093939D01*
X0044044Y0094204D01*
X0044205Y0094465D01*
X0044373Y0094723D01*
X0044546Y0094976D01*
X0044726Y0095224D01*
X0044912Y0095468D01*
X0045103Y0095708D01*
X0045301Y0095943D01*
X0045504Y0096172D01*
X0045713Y0096397D01*
X0045927Y0096617D01*
X0046147Y0096831D01*
X0046372Y0097040D01*
X0046601Y0097243D01*
X0046836Y0097441D01*
X0047076Y0097632D01*
X0047320Y0097818D01*
X0047568Y0097998D01*
X0047821Y0098171D01*
X0048079Y0098339D01*
X0048340Y0098500D01*
X0048605Y0098654D01*
X0048874Y0098802D01*
X0049146Y0098943D01*
X0049422Y0099078D01*
X0049700Y0099206D01*
X0049982Y0099326D01*
X0050267Y0099440D01*
X0050555Y0099547D01*
X0050845Y0099647D01*
X0051137Y0099740D01*
X0051432Y0099825D01*
X0051729Y0099903D01*
X0052027Y0099974D01*
X0052327Y0100038D01*
X0052629Y0100094D01*
X0052932Y0100143D01*
X0053236Y0100184D01*
X0053541Y0100218D01*
X0053846Y0100244D01*
X0054153Y0100263D01*
X0054459Y0100274D01*
X0054766Y0100278D01*
X0055073Y0100274D01*
X0055379Y0100263D01*
X0055686Y0100244D01*
X0055991Y0100218D01*
X0056296Y0100184D01*
X0056600Y0100143D01*
X0056903Y0100094D01*
X0057205Y0100038D01*
X0057505Y0099974D01*
X0057803Y0099903D01*
X0058100Y0099825D01*
X0058395Y0099740D01*
X0058687Y0099647D01*
X0058977Y0099547D01*
X0059265Y0099440D01*
X0059550Y0099326D01*
X0059832Y0099206D01*
X0060110Y0099078D01*
X0060386Y0098943D01*
X0060658Y0098802D01*
X0060927Y0098654D01*
X0061192Y0098500D01*
X0061453Y0098339D01*
X0061711Y0098171D01*
X0061964Y0097998D01*
X0062212Y0097818D01*
X0062456Y0097632D01*
X0062696Y0097441D01*
X0062931Y0097243D01*
X0063160Y0097040D01*
X0063385Y0096831D01*
X0063605Y0096617D01*
X0063819Y0096397D01*
X0064028Y0096172D01*
X0064231Y0095943D01*
X0064429Y0095708D01*
X0064620Y0095468D01*
X0064806Y0095224D01*
X0064986Y0094976D01*
X0065159Y0094723D01*
X0065327Y0094465D01*
X0065488Y0094204D01*
X0065642Y0093939D01*
X0065790Y0093670D01*
X0065931Y0093398D01*
X0066066Y0093122D01*
X0066194Y0092844D01*
X0066314Y0092562D01*
X0066428Y0092277D01*
X0066535Y0091989D01*
X0066635Y0091699D01*
X0066728Y0091407D01*
X0066813Y0091112D01*
X0066891Y0090815D01*
X0066962Y0090517D01*
X0067026Y0090217D01*
X0067082Y0089915D01*
X0067131Y0089612D01*
X0067172Y0089308D01*
X0067206Y0089003D01*
X0067232Y0088698D01*
X0067251Y0088391D01*
X0067262Y0088085D01*
X0067266Y0087778D01*
X0067262Y0087471D01*
X0067251Y0087165D01*
X0067232Y0086858D01*
X0067206Y0086553D01*
X0067172Y0086248D01*
X0067131Y0085944D01*
X0067082Y0085641D01*
X0067026Y0085339D01*
X0066962Y0085039D01*
X0066891Y0084741D01*
X0066813Y0084444D01*
X0066728Y0084149D01*
X0066635Y0083857D01*
X0066535Y0083567D01*
X0066428Y0083279D01*
X0066314Y0082994D01*
X0066194Y0082712D01*
X0066066Y0082434D01*
X0065931Y0082158D01*
X0065790Y0081886D01*
X0065642Y0081617D01*
X0065488Y0081352D01*
X0065327Y0081091D01*
X0065159Y0080833D01*
X0064986Y0080580D01*
X0064806Y0080332D01*
X0064620Y0080088D01*
X0064429Y0079848D01*
X0064231Y0079613D01*
X0064028Y0079384D01*
X0063819Y0079159D01*
X0063605Y0078939D01*
X0063385Y0078725D01*
X0063160Y0078516D01*
X0062931Y0078313D01*
X0062696Y0078115D01*
X0062456Y0077924D01*
X0062212Y0077738D01*
X0061964Y0077558D01*
X0061711Y0077385D01*
X0061453Y0077217D01*
X0061192Y0077056D01*
X0060927Y0076902D01*
X0060658Y0076754D01*
X0060386Y0076613D01*
X0060110Y0076478D01*
X0059832Y0076350D01*
X0059550Y0076230D01*
X0059265Y0076116D01*
X0058977Y0076009D01*
X0058687Y0075909D01*
X0058395Y0075816D01*
X0058100Y0075731D01*
X0057803Y0075653D01*
X0057505Y0075582D01*
X0057205Y0075518D01*
X0056903Y0075462D01*
X0056600Y0075413D01*
X0056296Y0075372D01*
X0055991Y0075338D01*
X0055686Y0075312D01*
X0055379Y0075293D01*
X0055073Y0075282D01*
X0054766Y0075278D01*
X0054459Y0075282D01*
X0054153Y0075293D01*
X0053846Y0075312D01*
X0053541Y0075338D01*
X0053236Y0075372D01*
X0052932Y0075413D01*
X0052629Y0075462D01*
X0052327Y0075518D01*
X0052027Y0075582D01*
X0051729Y0075653D01*
X0051432Y0075731D01*
X0051137Y0075816D01*
X0050845Y0075909D01*
X0050555Y0076009D01*
X0050267Y0076116D01*
X0049982Y0076230D01*
X0049700Y0076350D01*
X0049422Y0076478D01*
X0049146Y0076613D01*
X0048874Y0076754D01*
X0048605Y0076902D01*
X0048340Y0077056D01*
X0048079Y0077217D01*
X0047821Y0077385D01*
X0047568Y0077558D01*
X0047320Y0077738D01*
X0047076Y0077924D01*
X0046836Y0078115D01*
X0046601Y0078313D01*
X0046372Y0078516D01*
X0046147Y0078725D01*
X0045927Y0078939D01*
X0045713Y0079159D01*
X0045504Y0079384D01*
X0045301Y0079613D01*
X0045103Y0079848D01*
X0044912Y0080088D01*
X0044726Y0080332D01*
X0044546Y0080580D01*
X0044373Y0080833D01*
X0044205Y0081091D01*
X0044044Y0081352D01*
X0043890Y0081617D01*
X0043742Y0081886D01*
X0043601Y0082158D01*
X0043466Y0082434D01*
X0043338Y0082712D01*
X0043218Y0082994D01*
X0043104Y0083279D01*
X0042997Y0083567D01*
X0042897Y0083857D01*
X0042804Y0084149D01*
X0042719Y0084444D01*
X0042641Y0084741D01*
X0042570Y0085039D01*
X0042506Y0085339D01*
X0042450Y0085641D01*
X0042401Y0085944D01*
X0042360Y0086248D01*
X0042326Y0086553D01*
X0042300Y0086858D01*
X0042281Y0087165D01*
X0042270Y0087471D01*
X0042266Y0087778D01*
X0076303Y0107778D02*
X0076307Y0108108D01*
X0076319Y0108439D01*
X0076339Y0108768D01*
X0076368Y0109098D01*
X0076404Y0109426D01*
X0076449Y0109753D01*
X0076501Y0110080D01*
X0076562Y0110405D01*
X0076630Y0110728D01*
X0076706Y0111049D01*
X0076791Y0111369D01*
X0076883Y0111686D01*
X0076983Y0112001D01*
X0077090Y0112314D01*
X0077205Y0112623D01*
X0077328Y0112930D01*
X0077458Y0113234D01*
X0077596Y0113534D01*
X0077741Y0113831D01*
X0077893Y0114124D01*
X0078052Y0114414D01*
X0078218Y0114699D01*
X0078392Y0114981D01*
X0078572Y0115258D01*
X0078759Y0115530D01*
X0078952Y0115798D01*
X0079152Y0116061D01*
X0079359Y0116319D01*
X0079572Y0116572D01*
X0079791Y0116819D01*
X0080015Y0117061D01*
X0080246Y0117298D01*
X0080483Y0117529D01*
X0080725Y0117753D01*
X0080972Y0117972D01*
X0081225Y0118185D01*
X0081483Y0118392D01*
X0081746Y0118592D01*
X0082014Y0118785D01*
X0082286Y0118972D01*
X0082563Y0119152D01*
X0082845Y0119326D01*
X0083130Y0119492D01*
X0083420Y0119651D01*
X0083713Y0119803D01*
X0084010Y0119948D01*
X0084310Y0120086D01*
X0084614Y0120216D01*
X0084921Y0120339D01*
X0085230Y0120454D01*
X0085543Y0120561D01*
X0085858Y0120661D01*
X0086175Y0120753D01*
X0086495Y0120838D01*
X0086816Y0120914D01*
X0087139Y0120982D01*
X0087464Y0121043D01*
X0087791Y0121095D01*
X0088118Y0121140D01*
X0088446Y0121176D01*
X0088776Y0121205D01*
X0089105Y0121225D01*
X0089436Y0121237D01*
X0089766Y0121241D01*
X0090096Y0121237D01*
X0090427Y0121225D01*
X0090756Y0121205D01*
X0091086Y0121176D01*
X0091414Y0121140D01*
X0091741Y0121095D01*
X0092068Y0121043D01*
X0092393Y0120982D01*
X0092716Y0120914D01*
X0093037Y0120838D01*
X0093357Y0120753D01*
X0093674Y0120661D01*
X0093989Y0120561D01*
X0094302Y0120454D01*
X0094611Y0120339D01*
X0094918Y0120216D01*
X0095222Y0120086D01*
X0095522Y0119948D01*
X0095819Y0119803D01*
X0096112Y0119651D01*
X0096402Y0119492D01*
X0096687Y0119326D01*
X0096969Y0119152D01*
X0097246Y0118972D01*
X0097518Y0118785D01*
X0097786Y0118592D01*
X0098049Y0118392D01*
X0098307Y0118185D01*
X0098560Y0117972D01*
X0098807Y0117753D01*
X0099049Y0117529D01*
X0099286Y0117298D01*
X0099517Y0117061D01*
X0099741Y0116819D01*
X0099960Y0116572D01*
X0100173Y0116319D01*
X0100380Y0116061D01*
X0100580Y0115798D01*
X0100773Y0115530D01*
X0100960Y0115258D01*
X0101140Y0114981D01*
X0101314Y0114699D01*
X0101480Y0114414D01*
X0101639Y0114124D01*
X0101791Y0113831D01*
X0101936Y0113534D01*
X0102074Y0113234D01*
X0102204Y0112930D01*
X0102327Y0112623D01*
X0102442Y0112314D01*
X0102549Y0112001D01*
X0102649Y0111686D01*
X0102741Y0111369D01*
X0102826Y0111049D01*
X0102902Y0110728D01*
X0102970Y0110405D01*
X0103031Y0110080D01*
X0103083Y0109753D01*
X0103128Y0109426D01*
X0103164Y0109098D01*
X0103193Y0108768D01*
X0103213Y0108439D01*
X0103225Y0108108D01*
X0103229Y0107778D01*
X0103225Y0107448D01*
X0103213Y0107117D01*
X0103193Y0106788D01*
X0103164Y0106458D01*
X0103128Y0106130D01*
X0103083Y0105803D01*
X0103031Y0105476D01*
X0102970Y0105151D01*
X0102902Y0104828D01*
X0102826Y0104507D01*
X0102741Y0104187D01*
X0102649Y0103870D01*
X0102549Y0103555D01*
X0102442Y0103242D01*
X0102327Y0102933D01*
X0102204Y0102626D01*
X0102074Y0102322D01*
X0101936Y0102022D01*
X0101791Y0101725D01*
X0101639Y0101432D01*
X0101480Y0101142D01*
X0101314Y0100857D01*
X0101140Y0100575D01*
X0100960Y0100298D01*
X0100773Y0100026D01*
X0100580Y0099758D01*
X0100380Y0099495D01*
X0100173Y0099237D01*
X0099960Y0098984D01*
X0099741Y0098737D01*
X0099517Y0098495D01*
X0099286Y0098258D01*
X0099049Y0098027D01*
X0098807Y0097803D01*
X0098560Y0097584D01*
X0098307Y0097371D01*
X0098049Y0097164D01*
X0097786Y0096964D01*
X0097518Y0096771D01*
X0097246Y0096584D01*
X0096969Y0096404D01*
X0096687Y0096230D01*
X0096402Y0096064D01*
X0096112Y0095905D01*
X0095819Y0095753D01*
X0095522Y0095608D01*
X0095222Y0095470D01*
X0094918Y0095340D01*
X0094611Y0095217D01*
X0094302Y0095102D01*
X0093989Y0094995D01*
X0093674Y0094895D01*
X0093357Y0094803D01*
X0093037Y0094718D01*
X0092716Y0094642D01*
X0092393Y0094574D01*
X0092068Y0094513D01*
X0091741Y0094461D01*
X0091414Y0094416D01*
X0091086Y0094380D01*
X0090756Y0094351D01*
X0090427Y0094331D01*
X0090096Y0094319D01*
X0089766Y0094315D01*
X0089436Y0094319D01*
X0089105Y0094331D01*
X0088776Y0094351D01*
X0088446Y0094380D01*
X0088118Y0094416D01*
X0087791Y0094461D01*
X0087464Y0094513D01*
X0087139Y0094574D01*
X0086816Y0094642D01*
X0086495Y0094718D01*
X0086175Y0094803D01*
X0085858Y0094895D01*
X0085543Y0094995D01*
X0085230Y0095102D01*
X0084921Y0095217D01*
X0084614Y0095340D01*
X0084310Y0095470D01*
X0084010Y0095608D01*
X0083713Y0095753D01*
X0083420Y0095905D01*
X0083130Y0096064D01*
X0082845Y0096230D01*
X0082563Y0096404D01*
X0082286Y0096584D01*
X0082014Y0096771D01*
X0081746Y0096964D01*
X0081483Y0097164D01*
X0081225Y0097371D01*
X0080972Y0097584D01*
X0080725Y0097803D01*
X0080483Y0098027D01*
X0080246Y0098258D01*
X0080015Y0098495D01*
X0079791Y0098737D01*
X0079572Y0098984D01*
X0079359Y0099237D01*
X0079152Y0099495D01*
X0078952Y0099758D01*
X0078759Y0100026D01*
X0078572Y0100298D01*
X0078392Y0100575D01*
X0078218Y0100857D01*
X0078052Y0101142D01*
X0077893Y0101432D01*
X0077741Y0101725D01*
X0077596Y0102022D01*
X0077458Y0102322D01*
X0077328Y0102626D01*
X0077205Y0102933D01*
X0077090Y0103242D01*
X0076983Y0103555D01*
X0076883Y0103870D01*
X0076791Y0104187D01*
X0076706Y0104507D01*
X0076630Y0104828D01*
X0076562Y0105151D01*
X0076501Y0105476D01*
X0076449Y0105803D01*
X0076404Y0106130D01*
X0076368Y0106458D01*
X0076339Y0106788D01*
X0076319Y0107117D01*
X0076307Y0107448D01*
X0076303Y0107778D01*
X0112266Y0087778D02*
X0112270Y0088085D01*
X0112281Y0088391D01*
X0112300Y0088698D01*
X0112326Y0089003D01*
X0112360Y0089308D01*
X0112401Y0089612D01*
X0112450Y0089915D01*
X0112506Y0090217D01*
X0112570Y0090517D01*
X0112641Y0090815D01*
X0112719Y0091112D01*
X0112804Y0091407D01*
X0112897Y0091699D01*
X0112997Y0091989D01*
X0113104Y0092277D01*
X0113218Y0092562D01*
X0113338Y0092844D01*
X0113466Y0093122D01*
X0113601Y0093398D01*
X0113742Y0093670D01*
X0113890Y0093939D01*
X0114044Y0094204D01*
X0114205Y0094465D01*
X0114373Y0094723D01*
X0114546Y0094976D01*
X0114726Y0095224D01*
X0114912Y0095468D01*
X0115103Y0095708D01*
X0115301Y0095943D01*
X0115504Y0096172D01*
X0115713Y0096397D01*
X0115927Y0096617D01*
X0116147Y0096831D01*
X0116372Y0097040D01*
X0116601Y0097243D01*
X0116836Y0097441D01*
X0117076Y0097632D01*
X0117320Y0097818D01*
X0117568Y0097998D01*
X0117821Y0098171D01*
X0118079Y0098339D01*
X0118340Y0098500D01*
X0118605Y0098654D01*
X0118874Y0098802D01*
X0119146Y0098943D01*
X0119422Y0099078D01*
X0119700Y0099206D01*
X0119982Y0099326D01*
X0120267Y0099440D01*
X0120555Y0099547D01*
X0120845Y0099647D01*
X0121137Y0099740D01*
X0121432Y0099825D01*
X0121729Y0099903D01*
X0122027Y0099974D01*
X0122327Y0100038D01*
X0122629Y0100094D01*
X0122932Y0100143D01*
X0123236Y0100184D01*
X0123541Y0100218D01*
X0123846Y0100244D01*
X0124153Y0100263D01*
X0124459Y0100274D01*
X0124766Y0100278D01*
X0125073Y0100274D01*
X0125379Y0100263D01*
X0125686Y0100244D01*
X0125991Y0100218D01*
X0126296Y0100184D01*
X0126600Y0100143D01*
X0126903Y0100094D01*
X0127205Y0100038D01*
X0127505Y0099974D01*
X0127803Y0099903D01*
X0128100Y0099825D01*
X0128395Y0099740D01*
X0128687Y0099647D01*
X0128977Y0099547D01*
X0129265Y0099440D01*
X0129550Y0099326D01*
X0129832Y0099206D01*
X0130110Y0099078D01*
X0130386Y0098943D01*
X0130658Y0098802D01*
X0130927Y0098654D01*
X0131192Y0098500D01*
X0131453Y0098339D01*
X0131711Y0098171D01*
X0131964Y0097998D01*
X0132212Y0097818D01*
X0132456Y0097632D01*
X0132696Y0097441D01*
X0132931Y0097243D01*
X0133160Y0097040D01*
X0133385Y0096831D01*
X0133605Y0096617D01*
X0133819Y0096397D01*
X0134028Y0096172D01*
X0134231Y0095943D01*
X0134429Y0095708D01*
X0134620Y0095468D01*
X0134806Y0095224D01*
X0134986Y0094976D01*
X0135159Y0094723D01*
X0135327Y0094465D01*
X0135488Y0094204D01*
X0135642Y0093939D01*
X0135790Y0093670D01*
X0135931Y0093398D01*
X0136066Y0093122D01*
X0136194Y0092844D01*
X0136314Y0092562D01*
X0136428Y0092277D01*
X0136535Y0091989D01*
X0136635Y0091699D01*
X0136728Y0091407D01*
X0136813Y0091112D01*
X0136891Y0090815D01*
X0136962Y0090517D01*
X0137026Y0090217D01*
X0137082Y0089915D01*
X0137131Y0089612D01*
X0137172Y0089308D01*
X0137206Y0089003D01*
X0137232Y0088698D01*
X0137251Y0088391D01*
X0137262Y0088085D01*
X0137266Y0087778D01*
X0137262Y0087471D01*
X0137251Y0087165D01*
X0137232Y0086858D01*
X0137206Y0086553D01*
X0137172Y0086248D01*
X0137131Y0085944D01*
X0137082Y0085641D01*
X0137026Y0085339D01*
X0136962Y0085039D01*
X0136891Y0084741D01*
X0136813Y0084444D01*
X0136728Y0084149D01*
X0136635Y0083857D01*
X0136535Y0083567D01*
X0136428Y0083279D01*
X0136314Y0082994D01*
X0136194Y0082712D01*
X0136066Y0082434D01*
X0135931Y0082158D01*
X0135790Y0081886D01*
X0135642Y0081617D01*
X0135488Y0081352D01*
X0135327Y0081091D01*
X0135159Y0080833D01*
X0134986Y0080580D01*
X0134806Y0080332D01*
X0134620Y0080088D01*
X0134429Y0079848D01*
X0134231Y0079613D01*
X0134028Y0079384D01*
X0133819Y0079159D01*
X0133605Y0078939D01*
X0133385Y0078725D01*
X0133160Y0078516D01*
X0132931Y0078313D01*
X0132696Y0078115D01*
X0132456Y0077924D01*
X0132212Y0077738D01*
X0131964Y0077558D01*
X0131711Y0077385D01*
X0131453Y0077217D01*
X0131192Y0077056D01*
X0130927Y0076902D01*
X0130658Y0076754D01*
X0130386Y0076613D01*
X0130110Y0076478D01*
X0129832Y0076350D01*
X0129550Y0076230D01*
X0129265Y0076116D01*
X0128977Y0076009D01*
X0128687Y0075909D01*
X0128395Y0075816D01*
X0128100Y0075731D01*
X0127803Y0075653D01*
X0127505Y0075582D01*
X0127205Y0075518D01*
X0126903Y0075462D01*
X0126600Y0075413D01*
X0126296Y0075372D01*
X0125991Y0075338D01*
X0125686Y0075312D01*
X0125379Y0075293D01*
X0125073Y0075282D01*
X0124766Y0075278D01*
X0124459Y0075282D01*
X0124153Y0075293D01*
X0123846Y0075312D01*
X0123541Y0075338D01*
X0123236Y0075372D01*
X0122932Y0075413D01*
X0122629Y0075462D01*
X0122327Y0075518D01*
X0122027Y0075582D01*
X0121729Y0075653D01*
X0121432Y0075731D01*
X0121137Y0075816D01*
X0120845Y0075909D01*
X0120555Y0076009D01*
X0120267Y0076116D01*
X0119982Y0076230D01*
X0119700Y0076350D01*
X0119422Y0076478D01*
X0119146Y0076613D01*
X0118874Y0076754D01*
X0118605Y0076902D01*
X0118340Y0077056D01*
X0118079Y0077217D01*
X0117821Y0077385D01*
X0117568Y0077558D01*
X0117320Y0077738D01*
X0117076Y0077924D01*
X0116836Y0078115D01*
X0116601Y0078313D01*
X0116372Y0078516D01*
X0116147Y0078725D01*
X0115927Y0078939D01*
X0115713Y0079159D01*
X0115504Y0079384D01*
X0115301Y0079613D01*
X0115103Y0079848D01*
X0114912Y0080088D01*
X0114726Y0080332D01*
X0114546Y0080580D01*
X0114373Y0080833D01*
X0114205Y0081091D01*
X0114044Y0081352D01*
X0113890Y0081617D01*
X0113742Y0081886D01*
X0113601Y0082158D01*
X0113466Y0082434D01*
X0113338Y0082712D01*
X0113218Y0082994D01*
X0113104Y0083279D01*
X0112997Y0083567D01*
X0112897Y0083857D01*
X0112804Y0084149D01*
X0112719Y0084444D01*
X0112641Y0084741D01*
X0112570Y0085039D01*
X0112506Y0085339D01*
X0112450Y0085641D01*
X0112401Y0085944D01*
X0112360Y0086248D01*
X0112326Y0086553D01*
X0112300Y0086858D01*
X0112281Y0087165D01*
X0112270Y0087471D01*
X0112266Y0087778D01*
D11*
X0044866Y0046528D02*
X0044869Y0046771D01*
X0044878Y0047014D01*
X0044893Y0047256D01*
X0044914Y0047498D01*
X0044940Y0047740D01*
X0044973Y0047981D01*
X0045012Y0048221D01*
X0045056Y0048459D01*
X0045107Y0048697D01*
X0045163Y0048934D01*
X0045225Y0049168D01*
X0045292Y0049402D01*
X0045366Y0049633D01*
X0045445Y0049863D01*
X0045529Y0050091D01*
X0045620Y0050317D01*
X0045715Y0050540D01*
X0045817Y0050761D01*
X0045923Y0050979D01*
X0046035Y0051195D01*
X0046152Y0051408D01*
X0046274Y0051618D01*
X0046402Y0051824D01*
X0046534Y0052028D01*
X0046672Y0052229D01*
X0046814Y0052425D01*
X0046961Y0052619D01*
X0047113Y0052808D01*
X0047270Y0052994D01*
X0047431Y0053176D01*
X0047596Y0053354D01*
X0047766Y0053528D01*
X0047940Y0053698D01*
X0048118Y0053863D01*
X0048300Y0054024D01*
X0048486Y0054181D01*
X0048675Y0054333D01*
X0048869Y0054480D01*
X0049065Y0054622D01*
X0049266Y0054760D01*
X0049470Y0054892D01*
X0049676Y0055020D01*
X0049886Y0055142D01*
X0050099Y0055259D01*
X0050315Y0055371D01*
X0050533Y0055477D01*
X0050754Y0055579D01*
X0050977Y0055674D01*
X0051203Y0055765D01*
X0051431Y0055849D01*
X0051661Y0055928D01*
X0051892Y0056002D01*
X0052126Y0056069D01*
X0052360Y0056131D01*
X0052597Y0056187D01*
X0052835Y0056238D01*
X0053073Y0056282D01*
X0053313Y0056321D01*
X0053554Y0056354D01*
X0053796Y0056380D01*
X0054038Y0056401D01*
X0054280Y0056416D01*
X0054523Y0056425D01*
X0054766Y0056428D01*
X0055009Y0056425D01*
X0055252Y0056416D01*
X0055494Y0056401D01*
X0055736Y0056380D01*
X0055978Y0056354D01*
X0056219Y0056321D01*
X0056459Y0056282D01*
X0056697Y0056238D01*
X0056935Y0056187D01*
X0057172Y0056131D01*
X0057406Y0056069D01*
X0057640Y0056002D01*
X0057871Y0055928D01*
X0058101Y0055849D01*
X0058329Y0055765D01*
X0058555Y0055674D01*
X0058778Y0055579D01*
X0058999Y0055477D01*
X0059217Y0055371D01*
X0059433Y0055259D01*
X0059646Y0055142D01*
X0059856Y0055020D01*
X0060062Y0054892D01*
X0060266Y0054760D01*
X0060467Y0054622D01*
X0060663Y0054480D01*
X0060857Y0054333D01*
X0061046Y0054181D01*
X0061232Y0054024D01*
X0061414Y0053863D01*
X0061592Y0053698D01*
X0061766Y0053528D01*
X0061936Y0053354D01*
X0062101Y0053176D01*
X0062262Y0052994D01*
X0062419Y0052808D01*
X0062571Y0052619D01*
X0062718Y0052425D01*
X0062860Y0052229D01*
X0062998Y0052028D01*
X0063130Y0051824D01*
X0063258Y0051618D01*
X0063380Y0051408D01*
X0063497Y0051195D01*
X0063609Y0050979D01*
X0063715Y0050761D01*
X0063817Y0050540D01*
X0063912Y0050317D01*
X0064003Y0050091D01*
X0064087Y0049863D01*
X0064166Y0049633D01*
X0064240Y0049402D01*
X0064307Y0049168D01*
X0064369Y0048934D01*
X0064425Y0048697D01*
X0064476Y0048459D01*
X0064520Y0048221D01*
X0064559Y0047981D01*
X0064592Y0047740D01*
X0064618Y0047498D01*
X0064639Y0047256D01*
X0064654Y0047014D01*
X0064663Y0046771D01*
X0064666Y0046528D01*
X0064663Y0046285D01*
X0064654Y0046042D01*
X0064639Y0045800D01*
X0064618Y0045558D01*
X0064592Y0045316D01*
X0064559Y0045075D01*
X0064520Y0044835D01*
X0064476Y0044597D01*
X0064425Y0044359D01*
X0064369Y0044122D01*
X0064307Y0043888D01*
X0064240Y0043654D01*
X0064166Y0043423D01*
X0064087Y0043193D01*
X0064003Y0042965D01*
X0063912Y0042739D01*
X0063817Y0042516D01*
X0063715Y0042295D01*
X0063609Y0042077D01*
X0063497Y0041861D01*
X0063380Y0041648D01*
X0063258Y0041438D01*
X0063130Y0041232D01*
X0062998Y0041028D01*
X0062860Y0040827D01*
X0062718Y0040631D01*
X0062571Y0040437D01*
X0062419Y0040248D01*
X0062262Y0040062D01*
X0062101Y0039880D01*
X0061936Y0039702D01*
X0061766Y0039528D01*
X0061592Y0039358D01*
X0061414Y0039193D01*
X0061232Y0039032D01*
X0061046Y0038875D01*
X0060857Y0038723D01*
X0060663Y0038576D01*
X0060467Y0038434D01*
X0060266Y0038296D01*
X0060062Y0038164D01*
X0059856Y0038036D01*
X0059646Y0037914D01*
X0059433Y0037797D01*
X0059217Y0037685D01*
X0058999Y0037579D01*
X0058778Y0037477D01*
X0058555Y0037382D01*
X0058329Y0037291D01*
X0058101Y0037207D01*
X0057871Y0037128D01*
X0057640Y0037054D01*
X0057406Y0036987D01*
X0057172Y0036925D01*
X0056935Y0036869D01*
X0056697Y0036818D01*
X0056459Y0036774D01*
X0056219Y0036735D01*
X0055978Y0036702D01*
X0055736Y0036676D01*
X0055494Y0036655D01*
X0055252Y0036640D01*
X0055009Y0036631D01*
X0054766Y0036628D01*
X0054523Y0036631D01*
X0054280Y0036640D01*
X0054038Y0036655D01*
X0053796Y0036676D01*
X0053554Y0036702D01*
X0053313Y0036735D01*
X0053073Y0036774D01*
X0052835Y0036818D01*
X0052597Y0036869D01*
X0052360Y0036925D01*
X0052126Y0036987D01*
X0051892Y0037054D01*
X0051661Y0037128D01*
X0051431Y0037207D01*
X0051203Y0037291D01*
X0050977Y0037382D01*
X0050754Y0037477D01*
X0050533Y0037579D01*
X0050315Y0037685D01*
X0050099Y0037797D01*
X0049886Y0037914D01*
X0049676Y0038036D01*
X0049470Y0038164D01*
X0049266Y0038296D01*
X0049065Y0038434D01*
X0048869Y0038576D01*
X0048675Y0038723D01*
X0048486Y0038875D01*
X0048300Y0039032D01*
X0048118Y0039193D01*
X0047940Y0039358D01*
X0047766Y0039528D01*
X0047596Y0039702D01*
X0047431Y0039880D01*
X0047270Y0040062D01*
X0047113Y0040248D01*
X0046961Y0040437D01*
X0046814Y0040631D01*
X0046672Y0040827D01*
X0046534Y0041028D01*
X0046402Y0041232D01*
X0046274Y0041438D01*
X0046152Y0041648D01*
X0046035Y0041861D01*
X0045923Y0042077D01*
X0045817Y0042295D01*
X0045715Y0042516D01*
X0045620Y0042739D01*
X0045529Y0042965D01*
X0045445Y0043193D01*
X0045366Y0043423D01*
X0045292Y0043654D01*
X0045225Y0043888D01*
X0045163Y0044122D01*
X0045107Y0044359D01*
X0045056Y0044597D01*
X0045012Y0044835D01*
X0044973Y0045075D01*
X0044940Y0045316D01*
X0044914Y0045558D01*
X0044893Y0045800D01*
X0044878Y0046042D01*
X0044869Y0046285D01*
X0044866Y0046528D01*
X0079866Y0027778D02*
X0079869Y0028021D01*
X0079878Y0028264D01*
X0079893Y0028506D01*
X0079914Y0028748D01*
X0079940Y0028990D01*
X0079973Y0029231D01*
X0080012Y0029471D01*
X0080056Y0029709D01*
X0080107Y0029947D01*
X0080163Y0030184D01*
X0080225Y0030418D01*
X0080292Y0030652D01*
X0080366Y0030883D01*
X0080445Y0031113D01*
X0080529Y0031341D01*
X0080620Y0031567D01*
X0080715Y0031790D01*
X0080817Y0032011D01*
X0080923Y0032229D01*
X0081035Y0032445D01*
X0081152Y0032658D01*
X0081274Y0032868D01*
X0081402Y0033074D01*
X0081534Y0033278D01*
X0081672Y0033479D01*
X0081814Y0033675D01*
X0081961Y0033869D01*
X0082113Y0034058D01*
X0082270Y0034244D01*
X0082431Y0034426D01*
X0082596Y0034604D01*
X0082766Y0034778D01*
X0082940Y0034948D01*
X0083118Y0035113D01*
X0083300Y0035274D01*
X0083486Y0035431D01*
X0083675Y0035583D01*
X0083869Y0035730D01*
X0084065Y0035872D01*
X0084266Y0036010D01*
X0084470Y0036142D01*
X0084676Y0036270D01*
X0084886Y0036392D01*
X0085099Y0036509D01*
X0085315Y0036621D01*
X0085533Y0036727D01*
X0085754Y0036829D01*
X0085977Y0036924D01*
X0086203Y0037015D01*
X0086431Y0037099D01*
X0086661Y0037178D01*
X0086892Y0037252D01*
X0087126Y0037319D01*
X0087360Y0037381D01*
X0087597Y0037437D01*
X0087835Y0037488D01*
X0088073Y0037532D01*
X0088313Y0037571D01*
X0088554Y0037604D01*
X0088796Y0037630D01*
X0089038Y0037651D01*
X0089280Y0037666D01*
X0089523Y0037675D01*
X0089766Y0037678D01*
X0090009Y0037675D01*
X0090252Y0037666D01*
X0090494Y0037651D01*
X0090736Y0037630D01*
X0090978Y0037604D01*
X0091219Y0037571D01*
X0091459Y0037532D01*
X0091697Y0037488D01*
X0091935Y0037437D01*
X0092172Y0037381D01*
X0092406Y0037319D01*
X0092640Y0037252D01*
X0092871Y0037178D01*
X0093101Y0037099D01*
X0093329Y0037015D01*
X0093555Y0036924D01*
X0093778Y0036829D01*
X0093999Y0036727D01*
X0094217Y0036621D01*
X0094433Y0036509D01*
X0094646Y0036392D01*
X0094856Y0036270D01*
X0095062Y0036142D01*
X0095266Y0036010D01*
X0095467Y0035872D01*
X0095663Y0035730D01*
X0095857Y0035583D01*
X0096046Y0035431D01*
X0096232Y0035274D01*
X0096414Y0035113D01*
X0096592Y0034948D01*
X0096766Y0034778D01*
X0096936Y0034604D01*
X0097101Y0034426D01*
X0097262Y0034244D01*
X0097419Y0034058D01*
X0097571Y0033869D01*
X0097718Y0033675D01*
X0097860Y0033479D01*
X0097998Y0033278D01*
X0098130Y0033074D01*
X0098258Y0032868D01*
X0098380Y0032658D01*
X0098497Y0032445D01*
X0098609Y0032229D01*
X0098715Y0032011D01*
X0098817Y0031790D01*
X0098912Y0031567D01*
X0099003Y0031341D01*
X0099087Y0031113D01*
X0099166Y0030883D01*
X0099240Y0030652D01*
X0099307Y0030418D01*
X0099369Y0030184D01*
X0099425Y0029947D01*
X0099476Y0029709D01*
X0099520Y0029471D01*
X0099559Y0029231D01*
X0099592Y0028990D01*
X0099618Y0028748D01*
X0099639Y0028506D01*
X0099654Y0028264D01*
X0099663Y0028021D01*
X0099666Y0027778D01*
X0099663Y0027535D01*
X0099654Y0027292D01*
X0099639Y0027050D01*
X0099618Y0026808D01*
X0099592Y0026566D01*
X0099559Y0026325D01*
X0099520Y0026085D01*
X0099476Y0025847D01*
X0099425Y0025609D01*
X0099369Y0025372D01*
X0099307Y0025138D01*
X0099240Y0024904D01*
X0099166Y0024673D01*
X0099087Y0024443D01*
X0099003Y0024215D01*
X0098912Y0023989D01*
X0098817Y0023766D01*
X0098715Y0023545D01*
X0098609Y0023327D01*
X0098497Y0023111D01*
X0098380Y0022898D01*
X0098258Y0022688D01*
X0098130Y0022482D01*
X0097998Y0022278D01*
X0097860Y0022077D01*
X0097718Y0021881D01*
X0097571Y0021687D01*
X0097419Y0021498D01*
X0097262Y0021312D01*
X0097101Y0021130D01*
X0096936Y0020952D01*
X0096766Y0020778D01*
X0096592Y0020608D01*
X0096414Y0020443D01*
X0096232Y0020282D01*
X0096046Y0020125D01*
X0095857Y0019973D01*
X0095663Y0019826D01*
X0095467Y0019684D01*
X0095266Y0019546D01*
X0095062Y0019414D01*
X0094856Y0019286D01*
X0094646Y0019164D01*
X0094433Y0019047D01*
X0094217Y0018935D01*
X0093999Y0018829D01*
X0093778Y0018727D01*
X0093555Y0018632D01*
X0093329Y0018541D01*
X0093101Y0018457D01*
X0092871Y0018378D01*
X0092640Y0018304D01*
X0092406Y0018237D01*
X0092172Y0018175D01*
X0091935Y0018119D01*
X0091697Y0018068D01*
X0091459Y0018024D01*
X0091219Y0017985D01*
X0090978Y0017952D01*
X0090736Y0017926D01*
X0090494Y0017905D01*
X0090252Y0017890D01*
X0090009Y0017881D01*
X0089766Y0017878D01*
X0089523Y0017881D01*
X0089280Y0017890D01*
X0089038Y0017905D01*
X0088796Y0017926D01*
X0088554Y0017952D01*
X0088313Y0017985D01*
X0088073Y0018024D01*
X0087835Y0018068D01*
X0087597Y0018119D01*
X0087360Y0018175D01*
X0087126Y0018237D01*
X0086892Y0018304D01*
X0086661Y0018378D01*
X0086431Y0018457D01*
X0086203Y0018541D01*
X0085977Y0018632D01*
X0085754Y0018727D01*
X0085533Y0018829D01*
X0085315Y0018935D01*
X0085099Y0019047D01*
X0084886Y0019164D01*
X0084676Y0019286D01*
X0084470Y0019414D01*
X0084266Y0019546D01*
X0084065Y0019684D01*
X0083869Y0019826D01*
X0083675Y0019973D01*
X0083486Y0020125D01*
X0083300Y0020282D01*
X0083118Y0020443D01*
X0082940Y0020608D01*
X0082766Y0020778D01*
X0082596Y0020952D01*
X0082431Y0021130D01*
X0082270Y0021312D01*
X0082113Y0021498D01*
X0081961Y0021687D01*
X0081814Y0021881D01*
X0081672Y0022077D01*
X0081534Y0022278D01*
X0081402Y0022482D01*
X0081274Y0022688D01*
X0081152Y0022898D01*
X0081035Y0023111D01*
X0080923Y0023327D01*
X0080817Y0023545D01*
X0080715Y0023766D01*
X0080620Y0023989D01*
X0080529Y0024215D01*
X0080445Y0024443D01*
X0080366Y0024673D01*
X0080292Y0024904D01*
X0080225Y0025138D01*
X0080163Y0025372D01*
X0080107Y0025609D01*
X0080056Y0025847D01*
X0080012Y0026085D01*
X0079973Y0026325D01*
X0079940Y0026566D01*
X0079914Y0026808D01*
X0079893Y0027050D01*
X0079878Y0027292D01*
X0079869Y0027535D01*
X0079866Y0027778D01*
X0114866Y0047778D02*
X0114869Y0048021D01*
X0114878Y0048264D01*
X0114893Y0048506D01*
X0114914Y0048748D01*
X0114940Y0048990D01*
X0114973Y0049231D01*
X0115012Y0049471D01*
X0115056Y0049709D01*
X0115107Y0049947D01*
X0115163Y0050184D01*
X0115225Y0050418D01*
X0115292Y0050652D01*
X0115366Y0050883D01*
X0115445Y0051113D01*
X0115529Y0051341D01*
X0115620Y0051567D01*
X0115715Y0051790D01*
X0115817Y0052011D01*
X0115923Y0052229D01*
X0116035Y0052445D01*
X0116152Y0052658D01*
X0116274Y0052868D01*
X0116402Y0053074D01*
X0116534Y0053278D01*
X0116672Y0053479D01*
X0116814Y0053675D01*
X0116961Y0053869D01*
X0117113Y0054058D01*
X0117270Y0054244D01*
X0117431Y0054426D01*
X0117596Y0054604D01*
X0117766Y0054778D01*
X0117940Y0054948D01*
X0118118Y0055113D01*
X0118300Y0055274D01*
X0118486Y0055431D01*
X0118675Y0055583D01*
X0118869Y0055730D01*
X0119065Y0055872D01*
X0119266Y0056010D01*
X0119470Y0056142D01*
X0119676Y0056270D01*
X0119886Y0056392D01*
X0120099Y0056509D01*
X0120315Y0056621D01*
X0120533Y0056727D01*
X0120754Y0056829D01*
X0120977Y0056924D01*
X0121203Y0057015D01*
X0121431Y0057099D01*
X0121661Y0057178D01*
X0121892Y0057252D01*
X0122126Y0057319D01*
X0122360Y0057381D01*
X0122597Y0057437D01*
X0122835Y0057488D01*
X0123073Y0057532D01*
X0123313Y0057571D01*
X0123554Y0057604D01*
X0123796Y0057630D01*
X0124038Y0057651D01*
X0124280Y0057666D01*
X0124523Y0057675D01*
X0124766Y0057678D01*
X0125009Y0057675D01*
X0125252Y0057666D01*
X0125494Y0057651D01*
X0125736Y0057630D01*
X0125978Y0057604D01*
X0126219Y0057571D01*
X0126459Y0057532D01*
X0126697Y0057488D01*
X0126935Y0057437D01*
X0127172Y0057381D01*
X0127406Y0057319D01*
X0127640Y0057252D01*
X0127871Y0057178D01*
X0128101Y0057099D01*
X0128329Y0057015D01*
X0128555Y0056924D01*
X0128778Y0056829D01*
X0128999Y0056727D01*
X0129217Y0056621D01*
X0129433Y0056509D01*
X0129646Y0056392D01*
X0129856Y0056270D01*
X0130062Y0056142D01*
X0130266Y0056010D01*
X0130467Y0055872D01*
X0130663Y0055730D01*
X0130857Y0055583D01*
X0131046Y0055431D01*
X0131232Y0055274D01*
X0131414Y0055113D01*
X0131592Y0054948D01*
X0131766Y0054778D01*
X0131936Y0054604D01*
X0132101Y0054426D01*
X0132262Y0054244D01*
X0132419Y0054058D01*
X0132571Y0053869D01*
X0132718Y0053675D01*
X0132860Y0053479D01*
X0132998Y0053278D01*
X0133130Y0053074D01*
X0133258Y0052868D01*
X0133380Y0052658D01*
X0133497Y0052445D01*
X0133609Y0052229D01*
X0133715Y0052011D01*
X0133817Y0051790D01*
X0133912Y0051567D01*
X0134003Y0051341D01*
X0134087Y0051113D01*
X0134166Y0050883D01*
X0134240Y0050652D01*
X0134307Y0050418D01*
X0134369Y0050184D01*
X0134425Y0049947D01*
X0134476Y0049709D01*
X0134520Y0049471D01*
X0134559Y0049231D01*
X0134592Y0048990D01*
X0134618Y0048748D01*
X0134639Y0048506D01*
X0134654Y0048264D01*
X0134663Y0048021D01*
X0134666Y0047778D01*
X0134663Y0047535D01*
X0134654Y0047292D01*
X0134639Y0047050D01*
X0134618Y0046808D01*
X0134592Y0046566D01*
X0134559Y0046325D01*
X0134520Y0046085D01*
X0134476Y0045847D01*
X0134425Y0045609D01*
X0134369Y0045372D01*
X0134307Y0045138D01*
X0134240Y0044904D01*
X0134166Y0044673D01*
X0134087Y0044443D01*
X0134003Y0044215D01*
X0133912Y0043989D01*
X0133817Y0043766D01*
X0133715Y0043545D01*
X0133609Y0043327D01*
X0133497Y0043111D01*
X0133380Y0042898D01*
X0133258Y0042688D01*
X0133130Y0042482D01*
X0132998Y0042278D01*
X0132860Y0042077D01*
X0132718Y0041881D01*
X0132571Y0041687D01*
X0132419Y0041498D01*
X0132262Y0041312D01*
X0132101Y0041130D01*
X0131936Y0040952D01*
X0131766Y0040778D01*
X0131592Y0040608D01*
X0131414Y0040443D01*
X0131232Y0040282D01*
X0131046Y0040125D01*
X0130857Y0039973D01*
X0130663Y0039826D01*
X0130467Y0039684D01*
X0130266Y0039546D01*
X0130062Y0039414D01*
X0129856Y0039286D01*
X0129646Y0039164D01*
X0129433Y0039047D01*
X0129217Y0038935D01*
X0128999Y0038829D01*
X0128778Y0038727D01*
X0128555Y0038632D01*
X0128329Y0038541D01*
X0128101Y0038457D01*
X0127871Y0038378D01*
X0127640Y0038304D01*
X0127406Y0038237D01*
X0127172Y0038175D01*
X0126935Y0038119D01*
X0126697Y0038068D01*
X0126459Y0038024D01*
X0126219Y0037985D01*
X0125978Y0037952D01*
X0125736Y0037926D01*
X0125494Y0037905D01*
X0125252Y0037890D01*
X0125009Y0037881D01*
X0124766Y0037878D01*
X0124523Y0037881D01*
X0124280Y0037890D01*
X0124038Y0037905D01*
X0123796Y0037926D01*
X0123554Y0037952D01*
X0123313Y0037985D01*
X0123073Y0038024D01*
X0122835Y0038068D01*
X0122597Y0038119D01*
X0122360Y0038175D01*
X0122126Y0038237D01*
X0121892Y0038304D01*
X0121661Y0038378D01*
X0121431Y0038457D01*
X0121203Y0038541D01*
X0120977Y0038632D01*
X0120754Y0038727D01*
X0120533Y0038829D01*
X0120315Y0038935D01*
X0120099Y0039047D01*
X0119886Y0039164D01*
X0119676Y0039286D01*
X0119470Y0039414D01*
X0119266Y0039546D01*
X0119065Y0039684D01*
X0118869Y0039826D01*
X0118675Y0039973D01*
X0118486Y0040125D01*
X0118300Y0040282D01*
X0118118Y0040443D01*
X0117940Y0040608D01*
X0117766Y0040778D01*
X0117596Y0040952D01*
X0117431Y0041130D01*
X0117270Y0041312D01*
X0117113Y0041498D01*
X0116961Y0041687D01*
X0116814Y0041881D01*
X0116672Y0042077D01*
X0116534Y0042278D01*
X0116402Y0042482D01*
X0116274Y0042688D01*
X0116152Y0042898D01*
X0116035Y0043111D01*
X0115923Y0043327D01*
X0115817Y0043545D01*
X0115715Y0043766D01*
X0115620Y0043989D01*
X0115529Y0044215D01*
X0115445Y0044443D01*
X0115366Y0044673D01*
X0115292Y0044904D01*
X0115225Y0045138D01*
X0115163Y0045372D01*
X0115107Y0045609D01*
X0115056Y0045847D01*
X0115012Y0046085D01*
X0114973Y0046325D01*
X0114940Y0046566D01*
X0114914Y0046808D01*
X0114893Y0047050D01*
X0114878Y0047292D01*
X0114869Y0047535D01*
X0114866Y0047778D01*
X0114866Y0087778D02*
X0114869Y0088021D01*
X0114878Y0088264D01*
X0114893Y0088506D01*
X0114914Y0088748D01*
X0114940Y0088990D01*
X0114973Y0089231D01*
X0115012Y0089471D01*
X0115056Y0089709D01*
X0115107Y0089947D01*
X0115163Y0090184D01*
X0115225Y0090418D01*
X0115292Y0090652D01*
X0115366Y0090883D01*
X0115445Y0091113D01*
X0115529Y0091341D01*
X0115620Y0091567D01*
X0115715Y0091790D01*
X0115817Y0092011D01*
X0115923Y0092229D01*
X0116035Y0092445D01*
X0116152Y0092658D01*
X0116274Y0092868D01*
X0116402Y0093074D01*
X0116534Y0093278D01*
X0116672Y0093479D01*
X0116814Y0093675D01*
X0116961Y0093869D01*
X0117113Y0094058D01*
X0117270Y0094244D01*
X0117431Y0094426D01*
X0117596Y0094604D01*
X0117766Y0094778D01*
X0117940Y0094948D01*
X0118118Y0095113D01*
X0118300Y0095274D01*
X0118486Y0095431D01*
X0118675Y0095583D01*
X0118869Y0095730D01*
X0119065Y0095872D01*
X0119266Y0096010D01*
X0119470Y0096142D01*
X0119676Y0096270D01*
X0119886Y0096392D01*
X0120099Y0096509D01*
X0120315Y0096621D01*
X0120533Y0096727D01*
X0120754Y0096829D01*
X0120977Y0096924D01*
X0121203Y0097015D01*
X0121431Y0097099D01*
X0121661Y0097178D01*
X0121892Y0097252D01*
X0122126Y0097319D01*
X0122360Y0097381D01*
X0122597Y0097437D01*
X0122835Y0097488D01*
X0123073Y0097532D01*
X0123313Y0097571D01*
X0123554Y0097604D01*
X0123796Y0097630D01*
X0124038Y0097651D01*
X0124280Y0097666D01*
X0124523Y0097675D01*
X0124766Y0097678D01*
X0125009Y0097675D01*
X0125252Y0097666D01*
X0125494Y0097651D01*
X0125736Y0097630D01*
X0125978Y0097604D01*
X0126219Y0097571D01*
X0126459Y0097532D01*
X0126697Y0097488D01*
X0126935Y0097437D01*
X0127172Y0097381D01*
X0127406Y0097319D01*
X0127640Y0097252D01*
X0127871Y0097178D01*
X0128101Y0097099D01*
X0128329Y0097015D01*
X0128555Y0096924D01*
X0128778Y0096829D01*
X0128999Y0096727D01*
X0129217Y0096621D01*
X0129433Y0096509D01*
X0129646Y0096392D01*
X0129856Y0096270D01*
X0130062Y0096142D01*
X0130266Y0096010D01*
X0130467Y0095872D01*
X0130663Y0095730D01*
X0130857Y0095583D01*
X0131046Y0095431D01*
X0131232Y0095274D01*
X0131414Y0095113D01*
X0131592Y0094948D01*
X0131766Y0094778D01*
X0131936Y0094604D01*
X0132101Y0094426D01*
X0132262Y0094244D01*
X0132419Y0094058D01*
X0132571Y0093869D01*
X0132718Y0093675D01*
X0132860Y0093479D01*
X0132998Y0093278D01*
X0133130Y0093074D01*
X0133258Y0092868D01*
X0133380Y0092658D01*
X0133497Y0092445D01*
X0133609Y0092229D01*
X0133715Y0092011D01*
X0133817Y0091790D01*
X0133912Y0091567D01*
X0134003Y0091341D01*
X0134087Y0091113D01*
X0134166Y0090883D01*
X0134240Y0090652D01*
X0134307Y0090418D01*
X0134369Y0090184D01*
X0134425Y0089947D01*
X0134476Y0089709D01*
X0134520Y0089471D01*
X0134559Y0089231D01*
X0134592Y0088990D01*
X0134618Y0088748D01*
X0134639Y0088506D01*
X0134654Y0088264D01*
X0134663Y0088021D01*
X0134666Y0087778D01*
X0134663Y0087535D01*
X0134654Y0087292D01*
X0134639Y0087050D01*
X0134618Y0086808D01*
X0134592Y0086566D01*
X0134559Y0086325D01*
X0134520Y0086085D01*
X0134476Y0085847D01*
X0134425Y0085609D01*
X0134369Y0085372D01*
X0134307Y0085138D01*
X0134240Y0084904D01*
X0134166Y0084673D01*
X0134087Y0084443D01*
X0134003Y0084215D01*
X0133912Y0083989D01*
X0133817Y0083766D01*
X0133715Y0083545D01*
X0133609Y0083327D01*
X0133497Y0083111D01*
X0133380Y0082898D01*
X0133258Y0082688D01*
X0133130Y0082482D01*
X0132998Y0082278D01*
X0132860Y0082077D01*
X0132718Y0081881D01*
X0132571Y0081687D01*
X0132419Y0081498D01*
X0132262Y0081312D01*
X0132101Y0081130D01*
X0131936Y0080952D01*
X0131766Y0080778D01*
X0131592Y0080608D01*
X0131414Y0080443D01*
X0131232Y0080282D01*
X0131046Y0080125D01*
X0130857Y0079973D01*
X0130663Y0079826D01*
X0130467Y0079684D01*
X0130266Y0079546D01*
X0130062Y0079414D01*
X0129856Y0079286D01*
X0129646Y0079164D01*
X0129433Y0079047D01*
X0129217Y0078935D01*
X0128999Y0078829D01*
X0128778Y0078727D01*
X0128555Y0078632D01*
X0128329Y0078541D01*
X0128101Y0078457D01*
X0127871Y0078378D01*
X0127640Y0078304D01*
X0127406Y0078237D01*
X0127172Y0078175D01*
X0126935Y0078119D01*
X0126697Y0078068D01*
X0126459Y0078024D01*
X0126219Y0077985D01*
X0125978Y0077952D01*
X0125736Y0077926D01*
X0125494Y0077905D01*
X0125252Y0077890D01*
X0125009Y0077881D01*
X0124766Y0077878D01*
X0124523Y0077881D01*
X0124280Y0077890D01*
X0124038Y0077905D01*
X0123796Y0077926D01*
X0123554Y0077952D01*
X0123313Y0077985D01*
X0123073Y0078024D01*
X0122835Y0078068D01*
X0122597Y0078119D01*
X0122360Y0078175D01*
X0122126Y0078237D01*
X0121892Y0078304D01*
X0121661Y0078378D01*
X0121431Y0078457D01*
X0121203Y0078541D01*
X0120977Y0078632D01*
X0120754Y0078727D01*
X0120533Y0078829D01*
X0120315Y0078935D01*
X0120099Y0079047D01*
X0119886Y0079164D01*
X0119676Y0079286D01*
X0119470Y0079414D01*
X0119266Y0079546D01*
X0119065Y0079684D01*
X0118869Y0079826D01*
X0118675Y0079973D01*
X0118486Y0080125D01*
X0118300Y0080282D01*
X0118118Y0080443D01*
X0117940Y0080608D01*
X0117766Y0080778D01*
X0117596Y0080952D01*
X0117431Y0081130D01*
X0117270Y0081312D01*
X0117113Y0081498D01*
X0116961Y0081687D01*
X0116814Y0081881D01*
X0116672Y0082077D01*
X0116534Y0082278D01*
X0116402Y0082482D01*
X0116274Y0082688D01*
X0116152Y0082898D01*
X0116035Y0083111D01*
X0115923Y0083327D01*
X0115817Y0083545D01*
X0115715Y0083766D01*
X0115620Y0083989D01*
X0115529Y0084215D01*
X0115445Y0084443D01*
X0115366Y0084673D01*
X0115292Y0084904D01*
X0115225Y0085138D01*
X0115163Y0085372D01*
X0115107Y0085609D01*
X0115056Y0085847D01*
X0115012Y0086085D01*
X0114973Y0086325D01*
X0114940Y0086566D01*
X0114914Y0086808D01*
X0114893Y0087050D01*
X0114878Y0087292D01*
X0114869Y0087535D01*
X0114866Y0087778D01*
X0079866Y0107778D02*
X0079869Y0108021D01*
X0079878Y0108264D01*
X0079893Y0108506D01*
X0079914Y0108748D01*
X0079940Y0108990D01*
X0079973Y0109231D01*
X0080012Y0109471D01*
X0080056Y0109709D01*
X0080107Y0109947D01*
X0080163Y0110184D01*
X0080225Y0110418D01*
X0080292Y0110652D01*
X0080366Y0110883D01*
X0080445Y0111113D01*
X0080529Y0111341D01*
X0080620Y0111567D01*
X0080715Y0111790D01*
X0080817Y0112011D01*
X0080923Y0112229D01*
X0081035Y0112445D01*
X0081152Y0112658D01*
X0081274Y0112868D01*
X0081402Y0113074D01*
X0081534Y0113278D01*
X0081672Y0113479D01*
X0081814Y0113675D01*
X0081961Y0113869D01*
X0082113Y0114058D01*
X0082270Y0114244D01*
X0082431Y0114426D01*
X0082596Y0114604D01*
X0082766Y0114778D01*
X0082940Y0114948D01*
X0083118Y0115113D01*
X0083300Y0115274D01*
X0083486Y0115431D01*
X0083675Y0115583D01*
X0083869Y0115730D01*
X0084065Y0115872D01*
X0084266Y0116010D01*
X0084470Y0116142D01*
X0084676Y0116270D01*
X0084886Y0116392D01*
X0085099Y0116509D01*
X0085315Y0116621D01*
X0085533Y0116727D01*
X0085754Y0116829D01*
X0085977Y0116924D01*
X0086203Y0117015D01*
X0086431Y0117099D01*
X0086661Y0117178D01*
X0086892Y0117252D01*
X0087126Y0117319D01*
X0087360Y0117381D01*
X0087597Y0117437D01*
X0087835Y0117488D01*
X0088073Y0117532D01*
X0088313Y0117571D01*
X0088554Y0117604D01*
X0088796Y0117630D01*
X0089038Y0117651D01*
X0089280Y0117666D01*
X0089523Y0117675D01*
X0089766Y0117678D01*
X0090009Y0117675D01*
X0090252Y0117666D01*
X0090494Y0117651D01*
X0090736Y0117630D01*
X0090978Y0117604D01*
X0091219Y0117571D01*
X0091459Y0117532D01*
X0091697Y0117488D01*
X0091935Y0117437D01*
X0092172Y0117381D01*
X0092406Y0117319D01*
X0092640Y0117252D01*
X0092871Y0117178D01*
X0093101Y0117099D01*
X0093329Y0117015D01*
X0093555Y0116924D01*
X0093778Y0116829D01*
X0093999Y0116727D01*
X0094217Y0116621D01*
X0094433Y0116509D01*
X0094646Y0116392D01*
X0094856Y0116270D01*
X0095062Y0116142D01*
X0095266Y0116010D01*
X0095467Y0115872D01*
X0095663Y0115730D01*
X0095857Y0115583D01*
X0096046Y0115431D01*
X0096232Y0115274D01*
X0096414Y0115113D01*
X0096592Y0114948D01*
X0096766Y0114778D01*
X0096936Y0114604D01*
X0097101Y0114426D01*
X0097262Y0114244D01*
X0097419Y0114058D01*
X0097571Y0113869D01*
X0097718Y0113675D01*
X0097860Y0113479D01*
X0097998Y0113278D01*
X0098130Y0113074D01*
X0098258Y0112868D01*
X0098380Y0112658D01*
X0098497Y0112445D01*
X0098609Y0112229D01*
X0098715Y0112011D01*
X0098817Y0111790D01*
X0098912Y0111567D01*
X0099003Y0111341D01*
X0099087Y0111113D01*
X0099166Y0110883D01*
X0099240Y0110652D01*
X0099307Y0110418D01*
X0099369Y0110184D01*
X0099425Y0109947D01*
X0099476Y0109709D01*
X0099520Y0109471D01*
X0099559Y0109231D01*
X0099592Y0108990D01*
X0099618Y0108748D01*
X0099639Y0108506D01*
X0099654Y0108264D01*
X0099663Y0108021D01*
X0099666Y0107778D01*
X0099663Y0107535D01*
X0099654Y0107292D01*
X0099639Y0107050D01*
X0099618Y0106808D01*
X0099592Y0106566D01*
X0099559Y0106325D01*
X0099520Y0106085D01*
X0099476Y0105847D01*
X0099425Y0105609D01*
X0099369Y0105372D01*
X0099307Y0105138D01*
X0099240Y0104904D01*
X0099166Y0104673D01*
X0099087Y0104443D01*
X0099003Y0104215D01*
X0098912Y0103989D01*
X0098817Y0103766D01*
X0098715Y0103545D01*
X0098609Y0103327D01*
X0098497Y0103111D01*
X0098380Y0102898D01*
X0098258Y0102688D01*
X0098130Y0102482D01*
X0097998Y0102278D01*
X0097860Y0102077D01*
X0097718Y0101881D01*
X0097571Y0101687D01*
X0097419Y0101498D01*
X0097262Y0101312D01*
X0097101Y0101130D01*
X0096936Y0100952D01*
X0096766Y0100778D01*
X0096592Y0100608D01*
X0096414Y0100443D01*
X0096232Y0100282D01*
X0096046Y0100125D01*
X0095857Y0099973D01*
X0095663Y0099826D01*
X0095467Y0099684D01*
X0095266Y0099546D01*
X0095062Y0099414D01*
X0094856Y0099286D01*
X0094646Y0099164D01*
X0094433Y0099047D01*
X0094217Y0098935D01*
X0093999Y0098829D01*
X0093778Y0098727D01*
X0093555Y0098632D01*
X0093329Y0098541D01*
X0093101Y0098457D01*
X0092871Y0098378D01*
X0092640Y0098304D01*
X0092406Y0098237D01*
X0092172Y0098175D01*
X0091935Y0098119D01*
X0091697Y0098068D01*
X0091459Y0098024D01*
X0091219Y0097985D01*
X0090978Y0097952D01*
X0090736Y0097926D01*
X0090494Y0097905D01*
X0090252Y0097890D01*
X0090009Y0097881D01*
X0089766Y0097878D01*
X0089523Y0097881D01*
X0089280Y0097890D01*
X0089038Y0097905D01*
X0088796Y0097926D01*
X0088554Y0097952D01*
X0088313Y0097985D01*
X0088073Y0098024D01*
X0087835Y0098068D01*
X0087597Y0098119D01*
X0087360Y0098175D01*
X0087126Y0098237D01*
X0086892Y0098304D01*
X0086661Y0098378D01*
X0086431Y0098457D01*
X0086203Y0098541D01*
X0085977Y0098632D01*
X0085754Y0098727D01*
X0085533Y0098829D01*
X0085315Y0098935D01*
X0085099Y0099047D01*
X0084886Y0099164D01*
X0084676Y0099286D01*
X0084470Y0099414D01*
X0084266Y0099546D01*
X0084065Y0099684D01*
X0083869Y0099826D01*
X0083675Y0099973D01*
X0083486Y0100125D01*
X0083300Y0100282D01*
X0083118Y0100443D01*
X0082940Y0100608D01*
X0082766Y0100778D01*
X0082596Y0100952D01*
X0082431Y0101130D01*
X0082270Y0101312D01*
X0082113Y0101498D01*
X0081961Y0101687D01*
X0081814Y0101881D01*
X0081672Y0102077D01*
X0081534Y0102278D01*
X0081402Y0102482D01*
X0081274Y0102688D01*
X0081152Y0102898D01*
X0081035Y0103111D01*
X0080923Y0103327D01*
X0080817Y0103545D01*
X0080715Y0103766D01*
X0080620Y0103989D01*
X0080529Y0104215D01*
X0080445Y0104443D01*
X0080366Y0104673D01*
X0080292Y0104904D01*
X0080225Y0105138D01*
X0080163Y0105372D01*
X0080107Y0105609D01*
X0080056Y0105847D01*
X0080012Y0106085D01*
X0079973Y0106325D01*
X0079940Y0106566D01*
X0079914Y0106808D01*
X0079893Y0107050D01*
X0079878Y0107292D01*
X0079869Y0107535D01*
X0079866Y0107778D01*
X0044866Y0087778D02*
X0044869Y0088021D01*
X0044878Y0088264D01*
X0044893Y0088506D01*
X0044914Y0088748D01*
X0044940Y0088990D01*
X0044973Y0089231D01*
X0045012Y0089471D01*
X0045056Y0089709D01*
X0045107Y0089947D01*
X0045163Y0090184D01*
X0045225Y0090418D01*
X0045292Y0090652D01*
X0045366Y0090883D01*
X0045445Y0091113D01*
X0045529Y0091341D01*
X0045620Y0091567D01*
X0045715Y0091790D01*
X0045817Y0092011D01*
X0045923Y0092229D01*
X0046035Y0092445D01*
X0046152Y0092658D01*
X0046274Y0092868D01*
X0046402Y0093074D01*
X0046534Y0093278D01*
X0046672Y0093479D01*
X0046814Y0093675D01*
X0046961Y0093869D01*
X0047113Y0094058D01*
X0047270Y0094244D01*
X0047431Y0094426D01*
X0047596Y0094604D01*
X0047766Y0094778D01*
X0047940Y0094948D01*
X0048118Y0095113D01*
X0048300Y0095274D01*
X0048486Y0095431D01*
X0048675Y0095583D01*
X0048869Y0095730D01*
X0049065Y0095872D01*
X0049266Y0096010D01*
X0049470Y0096142D01*
X0049676Y0096270D01*
X0049886Y0096392D01*
X0050099Y0096509D01*
X0050315Y0096621D01*
X0050533Y0096727D01*
X0050754Y0096829D01*
X0050977Y0096924D01*
X0051203Y0097015D01*
X0051431Y0097099D01*
X0051661Y0097178D01*
X0051892Y0097252D01*
X0052126Y0097319D01*
X0052360Y0097381D01*
X0052597Y0097437D01*
X0052835Y0097488D01*
X0053073Y0097532D01*
X0053313Y0097571D01*
X0053554Y0097604D01*
X0053796Y0097630D01*
X0054038Y0097651D01*
X0054280Y0097666D01*
X0054523Y0097675D01*
X0054766Y0097678D01*
X0055009Y0097675D01*
X0055252Y0097666D01*
X0055494Y0097651D01*
X0055736Y0097630D01*
X0055978Y0097604D01*
X0056219Y0097571D01*
X0056459Y0097532D01*
X0056697Y0097488D01*
X0056935Y0097437D01*
X0057172Y0097381D01*
X0057406Y0097319D01*
X0057640Y0097252D01*
X0057871Y0097178D01*
X0058101Y0097099D01*
X0058329Y0097015D01*
X0058555Y0096924D01*
X0058778Y0096829D01*
X0058999Y0096727D01*
X0059217Y0096621D01*
X0059433Y0096509D01*
X0059646Y0096392D01*
X0059856Y0096270D01*
X0060062Y0096142D01*
X0060266Y0096010D01*
X0060467Y0095872D01*
X0060663Y0095730D01*
X0060857Y0095583D01*
X0061046Y0095431D01*
X0061232Y0095274D01*
X0061414Y0095113D01*
X0061592Y0094948D01*
X0061766Y0094778D01*
X0061936Y0094604D01*
X0062101Y0094426D01*
X0062262Y0094244D01*
X0062419Y0094058D01*
X0062571Y0093869D01*
X0062718Y0093675D01*
X0062860Y0093479D01*
X0062998Y0093278D01*
X0063130Y0093074D01*
X0063258Y0092868D01*
X0063380Y0092658D01*
X0063497Y0092445D01*
X0063609Y0092229D01*
X0063715Y0092011D01*
X0063817Y0091790D01*
X0063912Y0091567D01*
X0064003Y0091341D01*
X0064087Y0091113D01*
X0064166Y0090883D01*
X0064240Y0090652D01*
X0064307Y0090418D01*
X0064369Y0090184D01*
X0064425Y0089947D01*
X0064476Y0089709D01*
X0064520Y0089471D01*
X0064559Y0089231D01*
X0064592Y0088990D01*
X0064618Y0088748D01*
X0064639Y0088506D01*
X0064654Y0088264D01*
X0064663Y0088021D01*
X0064666Y0087778D01*
X0064663Y0087535D01*
X0064654Y0087292D01*
X0064639Y0087050D01*
X0064618Y0086808D01*
X0064592Y0086566D01*
X0064559Y0086325D01*
X0064520Y0086085D01*
X0064476Y0085847D01*
X0064425Y0085609D01*
X0064369Y0085372D01*
X0064307Y0085138D01*
X0064240Y0084904D01*
X0064166Y0084673D01*
X0064087Y0084443D01*
X0064003Y0084215D01*
X0063912Y0083989D01*
X0063817Y0083766D01*
X0063715Y0083545D01*
X0063609Y0083327D01*
X0063497Y0083111D01*
X0063380Y0082898D01*
X0063258Y0082688D01*
X0063130Y0082482D01*
X0062998Y0082278D01*
X0062860Y0082077D01*
X0062718Y0081881D01*
X0062571Y0081687D01*
X0062419Y0081498D01*
X0062262Y0081312D01*
X0062101Y0081130D01*
X0061936Y0080952D01*
X0061766Y0080778D01*
X0061592Y0080608D01*
X0061414Y0080443D01*
X0061232Y0080282D01*
X0061046Y0080125D01*
X0060857Y0079973D01*
X0060663Y0079826D01*
X0060467Y0079684D01*
X0060266Y0079546D01*
X0060062Y0079414D01*
X0059856Y0079286D01*
X0059646Y0079164D01*
X0059433Y0079047D01*
X0059217Y0078935D01*
X0058999Y0078829D01*
X0058778Y0078727D01*
X0058555Y0078632D01*
X0058329Y0078541D01*
X0058101Y0078457D01*
X0057871Y0078378D01*
X0057640Y0078304D01*
X0057406Y0078237D01*
X0057172Y0078175D01*
X0056935Y0078119D01*
X0056697Y0078068D01*
X0056459Y0078024D01*
X0056219Y0077985D01*
X0055978Y0077952D01*
X0055736Y0077926D01*
X0055494Y0077905D01*
X0055252Y0077890D01*
X0055009Y0077881D01*
X0054766Y0077878D01*
X0054523Y0077881D01*
X0054280Y0077890D01*
X0054038Y0077905D01*
X0053796Y0077926D01*
X0053554Y0077952D01*
X0053313Y0077985D01*
X0053073Y0078024D01*
X0052835Y0078068D01*
X0052597Y0078119D01*
X0052360Y0078175D01*
X0052126Y0078237D01*
X0051892Y0078304D01*
X0051661Y0078378D01*
X0051431Y0078457D01*
X0051203Y0078541D01*
X0050977Y0078632D01*
X0050754Y0078727D01*
X0050533Y0078829D01*
X0050315Y0078935D01*
X0050099Y0079047D01*
X0049886Y0079164D01*
X0049676Y0079286D01*
X0049470Y0079414D01*
X0049266Y0079546D01*
X0049065Y0079684D01*
X0048869Y0079826D01*
X0048675Y0079973D01*
X0048486Y0080125D01*
X0048300Y0080282D01*
X0048118Y0080443D01*
X0047940Y0080608D01*
X0047766Y0080778D01*
X0047596Y0080952D01*
X0047431Y0081130D01*
X0047270Y0081312D01*
X0047113Y0081498D01*
X0046961Y0081687D01*
X0046814Y0081881D01*
X0046672Y0082077D01*
X0046534Y0082278D01*
X0046402Y0082482D01*
X0046274Y0082688D01*
X0046152Y0082898D01*
X0046035Y0083111D01*
X0045923Y0083327D01*
X0045817Y0083545D01*
X0045715Y0083766D01*
X0045620Y0083989D01*
X0045529Y0084215D01*
X0045445Y0084443D01*
X0045366Y0084673D01*
X0045292Y0084904D01*
X0045225Y0085138D01*
X0045163Y0085372D01*
X0045107Y0085609D01*
X0045056Y0085847D01*
X0045012Y0086085D01*
X0044973Y0086325D01*
X0044940Y0086566D01*
X0044914Y0086808D01*
X0044893Y0087050D01*
X0044878Y0087292D01*
X0044869Y0087535D01*
X0044866Y0087778D01*
D12*
X0033766Y0067778D02*
X0033783Y0069152D01*
X0033833Y0070526D01*
X0033918Y0071898D01*
X0034036Y0073267D01*
X0034187Y0074633D01*
X0034372Y0075995D01*
X0034590Y0077352D01*
X0034842Y0078703D01*
X0035127Y0080048D01*
X0035444Y0081385D01*
X0035795Y0082714D01*
X0036177Y0084034D01*
X0036592Y0085344D01*
X0037040Y0086644D01*
X0037518Y0087932D01*
X0038029Y0089208D01*
X0038570Y0090472D01*
X0039143Y0091721D01*
X0039745Y0092956D01*
X0040378Y0094176D01*
X0041041Y0095380D01*
X0041733Y0096568D01*
X0042454Y0097738D01*
X0043204Y0098890D01*
X0043981Y0100023D01*
X0044786Y0101137D01*
X0045619Y0102231D01*
X0046477Y0103304D01*
X0047362Y0104356D01*
X0048273Y0105385D01*
X0049208Y0106392D01*
X0050168Y0107376D01*
X0051152Y0108336D01*
X0052159Y0109271D01*
X0053188Y0110182D01*
X0054240Y0111067D01*
X0055313Y0111925D01*
X0056407Y0112758D01*
X0057521Y0113563D01*
X0058654Y0114340D01*
X0059806Y0115090D01*
X0060976Y0115811D01*
X0062164Y0116503D01*
X0063368Y0117166D01*
X0064588Y0117799D01*
X0065823Y0118401D01*
X0067072Y0118974D01*
X0068336Y0119515D01*
X0069612Y0120026D01*
X0070900Y0120504D01*
X0072200Y0120952D01*
X0073510Y0121367D01*
X0074830Y0121749D01*
X0076159Y0122100D01*
X0077496Y0122417D01*
X0078841Y0122702D01*
X0080192Y0122954D01*
X0081549Y0123172D01*
X0082911Y0123357D01*
X0084277Y0123508D01*
X0085646Y0123626D01*
X0087018Y0123711D01*
X0088392Y0123761D01*
X0089766Y0123778D01*
X0091140Y0123761D01*
X0092514Y0123711D01*
X0093886Y0123626D01*
X0095255Y0123508D01*
X0096621Y0123357D01*
X0097983Y0123172D01*
X0099340Y0122954D01*
X0100691Y0122702D01*
X0102036Y0122417D01*
X0103373Y0122100D01*
X0104702Y0121749D01*
X0106022Y0121367D01*
X0107332Y0120952D01*
X0108632Y0120504D01*
X0109920Y0120026D01*
X0111196Y0119515D01*
X0112460Y0118974D01*
X0113709Y0118401D01*
X0114944Y0117799D01*
X0116164Y0117166D01*
X0117368Y0116503D01*
X0118556Y0115811D01*
X0119726Y0115090D01*
X0120878Y0114340D01*
X0122011Y0113563D01*
X0123125Y0112758D01*
X0124219Y0111925D01*
X0125292Y0111067D01*
X0126344Y0110182D01*
X0127373Y0109271D01*
X0128380Y0108336D01*
X0129364Y0107376D01*
X0130324Y0106392D01*
X0131259Y0105385D01*
X0132170Y0104356D01*
X0133055Y0103304D01*
X0133913Y0102231D01*
X0134746Y0101137D01*
X0135551Y0100023D01*
X0136328Y0098890D01*
X0137078Y0097738D01*
X0137799Y0096568D01*
X0138491Y0095380D01*
X0139154Y0094176D01*
X0139787Y0092956D01*
X0140389Y0091721D01*
X0140962Y0090472D01*
X0141503Y0089208D01*
X0142014Y0087932D01*
X0142492Y0086644D01*
X0142940Y0085344D01*
X0143355Y0084034D01*
X0143737Y0082714D01*
X0144088Y0081385D01*
X0144405Y0080048D01*
X0144690Y0078703D01*
X0144942Y0077352D01*
X0145160Y0075995D01*
X0145345Y0074633D01*
X0145496Y0073267D01*
X0145614Y0071898D01*
X0145699Y0070526D01*
X0145749Y0069152D01*
X0145766Y0067778D01*
X0145749Y0066404D01*
X0145699Y0065030D01*
X0145614Y0063658D01*
X0145496Y0062289D01*
X0145345Y0060923D01*
X0145160Y0059561D01*
X0144942Y0058204D01*
X0144690Y0056853D01*
X0144405Y0055508D01*
X0144088Y0054171D01*
X0143737Y0052842D01*
X0143355Y0051522D01*
X0142940Y0050212D01*
X0142492Y0048912D01*
X0142014Y0047624D01*
X0141503Y0046348D01*
X0140962Y0045084D01*
X0140389Y0043835D01*
X0139787Y0042600D01*
X0139154Y0041380D01*
X0138491Y0040176D01*
X0137799Y0038988D01*
X0137078Y0037818D01*
X0136328Y0036666D01*
X0135551Y0035533D01*
X0134746Y0034419D01*
X0133913Y0033325D01*
X0133055Y0032252D01*
X0132170Y0031200D01*
X0131259Y0030171D01*
X0130324Y0029164D01*
X0129364Y0028180D01*
X0128380Y0027220D01*
X0127373Y0026285D01*
X0126344Y0025374D01*
X0125292Y0024489D01*
X0124219Y0023631D01*
X0123125Y0022798D01*
X0122011Y0021993D01*
X0120878Y0021216D01*
X0119726Y0020466D01*
X0118556Y0019745D01*
X0117368Y0019053D01*
X0116164Y0018390D01*
X0114944Y0017757D01*
X0113709Y0017155D01*
X0112460Y0016582D01*
X0111196Y0016041D01*
X0109920Y0015530D01*
X0108632Y0015052D01*
X0107332Y0014604D01*
X0106022Y0014189D01*
X0104702Y0013807D01*
X0103373Y0013456D01*
X0102036Y0013139D01*
X0100691Y0012854D01*
X0099340Y0012602D01*
X0097983Y0012384D01*
X0096621Y0012199D01*
X0095255Y0012048D01*
X0093886Y0011930D01*
X0092514Y0011845D01*
X0091140Y0011795D01*
X0089766Y0011778D01*
X0088392Y0011795D01*
X0087018Y0011845D01*
X0085646Y0011930D01*
X0084277Y0012048D01*
X0082911Y0012199D01*
X0081549Y0012384D01*
X0080192Y0012602D01*
X0078841Y0012854D01*
X0077496Y0013139D01*
X0076159Y0013456D01*
X0074830Y0013807D01*
X0073510Y0014189D01*
X0072200Y0014604D01*
X0070900Y0015052D01*
X0069612Y0015530D01*
X0068336Y0016041D01*
X0067072Y0016582D01*
X0065823Y0017155D01*
X0064588Y0017757D01*
X0063368Y0018390D01*
X0062164Y0019053D01*
X0060976Y0019745D01*
X0059806Y0020466D01*
X0058654Y0021216D01*
X0057521Y0021993D01*
X0056407Y0022798D01*
X0055313Y0023631D01*
X0054240Y0024489D01*
X0053188Y0025374D01*
X0052159Y0026285D01*
X0051152Y0027220D01*
X0050168Y0028180D01*
X0049208Y0029164D01*
X0048273Y0030171D01*
X0047362Y0031200D01*
X0046477Y0032252D01*
X0045619Y0033325D01*
X0044786Y0034419D01*
X0043981Y0035533D01*
X0043204Y0036666D01*
X0042454Y0037818D01*
X0041733Y0038988D01*
X0041041Y0040176D01*
X0040378Y0041380D01*
X0039745Y0042600D01*
X0039143Y0043835D01*
X0038570Y0045084D01*
X0038029Y0046348D01*
X0037518Y0047624D01*
X0037040Y0048912D01*
X0036592Y0050212D01*
X0036177Y0051522D01*
X0035795Y0052842D01*
X0035444Y0054171D01*
X0035127Y0055508D01*
X0034842Y0056853D01*
X0034590Y0058204D01*
X0034372Y0059561D01*
X0034187Y0060923D01*
X0034036Y0062289D01*
X0033918Y0063658D01*
X0033833Y0065030D01*
X0033783Y0066404D01*
X0033766Y0067778D01*
D13*
X0033929Y0067778D02*
X0033931Y0067952D01*
X0033938Y0068126D01*
X0033948Y0068299D01*
X0033963Y0068473D01*
X0033982Y0068646D01*
X0034006Y0068818D01*
X0034033Y0068990D01*
X0034065Y0069161D01*
X0034101Y0069331D01*
X0034141Y0069500D01*
X0034186Y0069668D01*
X0034234Y0069835D01*
X0034287Y0070001D01*
X0034343Y0070166D01*
X0034404Y0070329D01*
X0034468Y0070490D01*
X0034537Y0070650D01*
X0034609Y0070808D01*
X0034686Y0070964D01*
X0034766Y0071119D01*
X0034850Y0071271D01*
X0034937Y0071421D01*
X0035029Y0071570D01*
X0035123Y0071715D01*
X0035222Y0071859D01*
X0035324Y0072000D01*
X0035429Y0072138D01*
X0035538Y0072274D01*
X0035650Y0072407D01*
X0035765Y0072537D01*
X0035883Y0072665D01*
X0036005Y0072789D01*
X0036129Y0072911D01*
X0036257Y0073029D01*
X0036387Y0073144D01*
X0036520Y0073256D01*
X0036656Y0073365D01*
X0036794Y0073470D01*
X0036935Y0073572D01*
X0037079Y0073671D01*
X0037224Y0073765D01*
X0037373Y0073857D01*
X0037523Y0073944D01*
X0037675Y0074028D01*
X0037830Y0074108D01*
X0037986Y0074185D01*
X0038144Y0074257D01*
X0038304Y0074326D01*
X0038465Y0074390D01*
X0038628Y0074451D01*
X0038793Y0074507D01*
X0038959Y0074560D01*
X0039126Y0074608D01*
X0039294Y0074653D01*
X0039463Y0074693D01*
X0039633Y0074729D01*
X0039804Y0074761D01*
X0039976Y0074788D01*
X0040148Y0074812D01*
X0040321Y0074831D01*
X0040495Y0074846D01*
X0040668Y0074856D01*
X0040842Y0074863D01*
X0041016Y0074865D01*
X0041190Y0074863D01*
X0041364Y0074856D01*
X0041537Y0074846D01*
X0041711Y0074831D01*
X0041884Y0074812D01*
X0042056Y0074788D01*
X0042228Y0074761D01*
X0042399Y0074729D01*
X0042569Y0074693D01*
X0042738Y0074653D01*
X0042906Y0074608D01*
X0043073Y0074560D01*
X0043239Y0074507D01*
X0043404Y0074451D01*
X0043567Y0074390D01*
X0043728Y0074326D01*
X0043888Y0074257D01*
X0044046Y0074185D01*
X0044202Y0074108D01*
X0044357Y0074028D01*
X0044509Y0073944D01*
X0044659Y0073857D01*
X0044808Y0073765D01*
X0044953Y0073671D01*
X0045097Y0073572D01*
X0045238Y0073470D01*
X0045376Y0073365D01*
X0045512Y0073256D01*
X0045645Y0073144D01*
X0045775Y0073029D01*
X0045903Y0072911D01*
X0046027Y0072789D01*
X0046149Y0072665D01*
X0046267Y0072537D01*
X0046382Y0072407D01*
X0046494Y0072274D01*
X0046603Y0072138D01*
X0046708Y0072000D01*
X0046810Y0071859D01*
X0046909Y0071715D01*
X0047003Y0071570D01*
X0047095Y0071421D01*
X0047182Y0071271D01*
X0047266Y0071119D01*
X0047346Y0070964D01*
X0047423Y0070808D01*
X0047495Y0070650D01*
X0047564Y0070490D01*
X0047628Y0070329D01*
X0047689Y0070166D01*
X0047745Y0070001D01*
X0047798Y0069835D01*
X0047846Y0069668D01*
X0047891Y0069500D01*
X0047931Y0069331D01*
X0047967Y0069161D01*
X0047999Y0068990D01*
X0048026Y0068818D01*
X0048050Y0068646D01*
X0048069Y0068473D01*
X0048084Y0068299D01*
X0048094Y0068126D01*
X0048101Y0067952D01*
X0048103Y0067778D01*
X0048101Y0067604D01*
X0048094Y0067430D01*
X0048084Y0067257D01*
X0048069Y0067083D01*
X0048050Y0066910D01*
X0048026Y0066738D01*
X0047999Y0066566D01*
X0047967Y0066395D01*
X0047931Y0066225D01*
X0047891Y0066056D01*
X0047846Y0065888D01*
X0047798Y0065721D01*
X0047745Y0065555D01*
X0047689Y0065390D01*
X0047628Y0065227D01*
X0047564Y0065066D01*
X0047495Y0064906D01*
X0047423Y0064748D01*
X0047346Y0064592D01*
X0047266Y0064437D01*
X0047182Y0064285D01*
X0047095Y0064135D01*
X0047003Y0063986D01*
X0046909Y0063841D01*
X0046810Y0063697D01*
X0046708Y0063556D01*
X0046603Y0063418D01*
X0046494Y0063282D01*
X0046382Y0063149D01*
X0046267Y0063019D01*
X0046149Y0062891D01*
X0046027Y0062767D01*
X0045903Y0062645D01*
X0045775Y0062527D01*
X0045645Y0062412D01*
X0045512Y0062300D01*
X0045376Y0062191D01*
X0045238Y0062086D01*
X0045097Y0061984D01*
X0044953Y0061885D01*
X0044808Y0061791D01*
X0044659Y0061699D01*
X0044509Y0061612D01*
X0044357Y0061528D01*
X0044202Y0061448D01*
X0044046Y0061371D01*
X0043888Y0061299D01*
X0043728Y0061230D01*
X0043567Y0061166D01*
X0043404Y0061105D01*
X0043239Y0061049D01*
X0043073Y0060996D01*
X0042906Y0060948D01*
X0042738Y0060903D01*
X0042569Y0060863D01*
X0042399Y0060827D01*
X0042228Y0060795D01*
X0042056Y0060768D01*
X0041884Y0060744D01*
X0041711Y0060725D01*
X0041537Y0060710D01*
X0041364Y0060700D01*
X0041190Y0060693D01*
X0041016Y0060691D01*
X0040842Y0060693D01*
X0040668Y0060700D01*
X0040495Y0060710D01*
X0040321Y0060725D01*
X0040148Y0060744D01*
X0039976Y0060768D01*
X0039804Y0060795D01*
X0039633Y0060827D01*
X0039463Y0060863D01*
X0039294Y0060903D01*
X0039126Y0060948D01*
X0038959Y0060996D01*
X0038793Y0061049D01*
X0038628Y0061105D01*
X0038465Y0061166D01*
X0038304Y0061230D01*
X0038144Y0061299D01*
X0037986Y0061371D01*
X0037830Y0061448D01*
X0037675Y0061528D01*
X0037523Y0061612D01*
X0037373Y0061699D01*
X0037224Y0061791D01*
X0037079Y0061885D01*
X0036935Y0061984D01*
X0036794Y0062086D01*
X0036656Y0062191D01*
X0036520Y0062300D01*
X0036387Y0062412D01*
X0036257Y0062527D01*
X0036129Y0062645D01*
X0036005Y0062767D01*
X0035883Y0062891D01*
X0035765Y0063019D01*
X0035650Y0063149D01*
X0035538Y0063282D01*
X0035429Y0063418D01*
X0035324Y0063556D01*
X0035222Y0063697D01*
X0035123Y0063841D01*
X0035029Y0063986D01*
X0034937Y0064135D01*
X0034850Y0064285D01*
X0034766Y0064437D01*
X0034686Y0064592D01*
X0034609Y0064748D01*
X0034537Y0064906D01*
X0034468Y0065066D01*
X0034404Y0065227D01*
X0034343Y0065390D01*
X0034287Y0065555D01*
X0034234Y0065721D01*
X0034186Y0065888D01*
X0034141Y0066056D01*
X0034101Y0066225D01*
X0034065Y0066395D01*
X0034033Y0066566D01*
X0034006Y0066738D01*
X0033982Y0066910D01*
X0033963Y0067083D01*
X0033948Y0067257D01*
X0033938Y0067430D01*
X0033931Y0067604D01*
X0033929Y0067778D01*
X0076266Y0067778D02*
X0076270Y0068109D01*
X0076282Y0068440D01*
X0076303Y0068771D01*
X0076331Y0069101D01*
X0076368Y0069431D01*
X0076412Y0069759D01*
X0076465Y0070086D01*
X0076525Y0070412D01*
X0076594Y0070736D01*
X0076671Y0071058D01*
X0076755Y0071379D01*
X0076847Y0071697D01*
X0076947Y0072013D01*
X0077055Y0072326D01*
X0077171Y0072637D01*
X0077294Y0072944D01*
X0077424Y0073249D01*
X0077562Y0073550D01*
X0077707Y0073848D01*
X0077860Y0074142D01*
X0078020Y0074432D01*
X0078187Y0074718D01*
X0078360Y0075000D01*
X0078541Y0075278D01*
X0078729Y0075551D01*
X0078923Y0075820D01*
X0079123Y0076084D01*
X0079330Y0076342D01*
X0079544Y0076596D01*
X0079763Y0076844D01*
X0079989Y0077087D01*
X0080220Y0077324D01*
X0080457Y0077555D01*
X0080700Y0077781D01*
X0080948Y0078000D01*
X0081202Y0078214D01*
X0081460Y0078421D01*
X0081724Y0078621D01*
X0081993Y0078815D01*
X0082266Y0079003D01*
X0082544Y0079184D01*
X0082826Y0079357D01*
X0083112Y0079524D01*
X0083402Y0079684D01*
X0083696Y0079837D01*
X0083994Y0079982D01*
X0084295Y0080120D01*
X0084600Y0080250D01*
X0084907Y0080373D01*
X0085218Y0080489D01*
X0085531Y0080597D01*
X0085847Y0080697D01*
X0086165Y0080789D01*
X0086486Y0080873D01*
X0086808Y0080950D01*
X0087132Y0081019D01*
X0087458Y0081079D01*
X0087785Y0081132D01*
X0088113Y0081176D01*
X0088443Y0081213D01*
X0088773Y0081241D01*
X0089104Y0081262D01*
X0089435Y0081274D01*
X0089766Y0081278D01*
X0090097Y0081274D01*
X0090428Y0081262D01*
X0090759Y0081241D01*
X0091089Y0081213D01*
X0091419Y0081176D01*
X0091747Y0081132D01*
X0092074Y0081079D01*
X0092400Y0081019D01*
X0092724Y0080950D01*
X0093046Y0080873D01*
X0093367Y0080789D01*
X0093685Y0080697D01*
X0094001Y0080597D01*
X0094314Y0080489D01*
X0094625Y0080373D01*
X0094932Y0080250D01*
X0095237Y0080120D01*
X0095538Y0079982D01*
X0095836Y0079837D01*
X0096130Y0079684D01*
X0096420Y0079524D01*
X0096706Y0079357D01*
X0096988Y0079184D01*
X0097266Y0079003D01*
X0097539Y0078815D01*
X0097808Y0078621D01*
X0098072Y0078421D01*
X0098330Y0078214D01*
X0098584Y0078000D01*
X0098832Y0077781D01*
X0099075Y0077555D01*
X0099312Y0077324D01*
X0099543Y0077087D01*
X0099769Y0076844D01*
X0099988Y0076596D01*
X0100202Y0076342D01*
X0100409Y0076084D01*
X0100609Y0075820D01*
X0100803Y0075551D01*
X0100991Y0075278D01*
X0101172Y0075000D01*
X0101345Y0074718D01*
X0101512Y0074432D01*
X0101672Y0074142D01*
X0101825Y0073848D01*
X0101970Y0073550D01*
X0102108Y0073249D01*
X0102238Y0072944D01*
X0102361Y0072637D01*
X0102477Y0072326D01*
X0102585Y0072013D01*
X0102685Y0071697D01*
X0102777Y0071379D01*
X0102861Y0071058D01*
X0102938Y0070736D01*
X0103007Y0070412D01*
X0103067Y0070086D01*
X0103120Y0069759D01*
X0103164Y0069431D01*
X0103201Y0069101D01*
X0103229Y0068771D01*
X0103250Y0068440D01*
X0103262Y0068109D01*
X0103266Y0067778D01*
X0103262Y0067447D01*
X0103250Y0067116D01*
X0103229Y0066785D01*
X0103201Y0066455D01*
X0103164Y0066125D01*
X0103120Y0065797D01*
X0103067Y0065470D01*
X0103007Y0065144D01*
X0102938Y0064820D01*
X0102861Y0064498D01*
X0102777Y0064177D01*
X0102685Y0063859D01*
X0102585Y0063543D01*
X0102477Y0063230D01*
X0102361Y0062919D01*
X0102238Y0062612D01*
X0102108Y0062307D01*
X0101970Y0062006D01*
X0101825Y0061708D01*
X0101672Y0061414D01*
X0101512Y0061124D01*
X0101345Y0060838D01*
X0101172Y0060556D01*
X0100991Y0060278D01*
X0100803Y0060005D01*
X0100609Y0059736D01*
X0100409Y0059472D01*
X0100202Y0059214D01*
X0099988Y0058960D01*
X0099769Y0058712D01*
X0099543Y0058469D01*
X0099312Y0058232D01*
X0099075Y0058001D01*
X0098832Y0057775D01*
X0098584Y0057556D01*
X0098330Y0057342D01*
X0098072Y0057135D01*
X0097808Y0056935D01*
X0097539Y0056741D01*
X0097266Y0056553D01*
X0096988Y0056372D01*
X0096706Y0056199D01*
X0096420Y0056032D01*
X0096130Y0055872D01*
X0095836Y0055719D01*
X0095538Y0055574D01*
X0095237Y0055436D01*
X0094932Y0055306D01*
X0094625Y0055183D01*
X0094314Y0055067D01*
X0094001Y0054959D01*
X0093685Y0054859D01*
X0093367Y0054767D01*
X0093046Y0054683D01*
X0092724Y0054606D01*
X0092400Y0054537D01*
X0092074Y0054477D01*
X0091747Y0054424D01*
X0091419Y0054380D01*
X0091089Y0054343D01*
X0090759Y0054315D01*
X0090428Y0054294D01*
X0090097Y0054282D01*
X0089766Y0054278D01*
X0089435Y0054282D01*
X0089104Y0054294D01*
X0088773Y0054315D01*
X0088443Y0054343D01*
X0088113Y0054380D01*
X0087785Y0054424D01*
X0087458Y0054477D01*
X0087132Y0054537D01*
X0086808Y0054606D01*
X0086486Y0054683D01*
X0086165Y0054767D01*
X0085847Y0054859D01*
X0085531Y0054959D01*
X0085218Y0055067D01*
X0084907Y0055183D01*
X0084600Y0055306D01*
X0084295Y0055436D01*
X0083994Y0055574D01*
X0083696Y0055719D01*
X0083402Y0055872D01*
X0083112Y0056032D01*
X0082826Y0056199D01*
X0082544Y0056372D01*
X0082266Y0056553D01*
X0081993Y0056741D01*
X0081724Y0056935D01*
X0081460Y0057135D01*
X0081202Y0057342D01*
X0080948Y0057556D01*
X0080700Y0057775D01*
X0080457Y0058001D01*
X0080220Y0058232D01*
X0079989Y0058469D01*
X0079763Y0058712D01*
X0079544Y0058960D01*
X0079330Y0059214D01*
X0079123Y0059472D01*
X0078923Y0059736D01*
X0078729Y0060005D01*
X0078541Y0060278D01*
X0078360Y0060556D01*
X0078187Y0060838D01*
X0078020Y0061124D01*
X0077860Y0061414D01*
X0077707Y0061708D01*
X0077562Y0062006D01*
X0077424Y0062307D01*
X0077294Y0062612D01*
X0077171Y0062919D01*
X0077055Y0063230D01*
X0076947Y0063543D01*
X0076847Y0063859D01*
X0076755Y0064177D01*
X0076671Y0064498D01*
X0076594Y0064820D01*
X0076525Y0065144D01*
X0076465Y0065470D01*
X0076412Y0065797D01*
X0076368Y0066125D01*
X0076331Y0066455D01*
X0076303Y0066785D01*
X0076282Y0067116D01*
X0076270Y0067447D01*
X0076266Y0067778D01*
X0058304Y0109965D02*
X0058306Y0110139D01*
X0058313Y0110313D01*
X0058323Y0110486D01*
X0058338Y0110660D01*
X0058357Y0110833D01*
X0058381Y0111005D01*
X0058408Y0111177D01*
X0058440Y0111348D01*
X0058476Y0111518D01*
X0058516Y0111687D01*
X0058561Y0111855D01*
X0058609Y0112022D01*
X0058662Y0112188D01*
X0058718Y0112353D01*
X0058779Y0112516D01*
X0058843Y0112677D01*
X0058912Y0112837D01*
X0058984Y0112995D01*
X0059061Y0113151D01*
X0059141Y0113306D01*
X0059225Y0113458D01*
X0059312Y0113608D01*
X0059404Y0113757D01*
X0059498Y0113902D01*
X0059597Y0114046D01*
X0059699Y0114187D01*
X0059804Y0114325D01*
X0059913Y0114461D01*
X0060025Y0114594D01*
X0060140Y0114724D01*
X0060258Y0114852D01*
X0060380Y0114976D01*
X0060504Y0115098D01*
X0060632Y0115216D01*
X0060762Y0115331D01*
X0060895Y0115443D01*
X0061031Y0115552D01*
X0061169Y0115657D01*
X0061310Y0115759D01*
X0061454Y0115858D01*
X0061599Y0115952D01*
X0061748Y0116044D01*
X0061898Y0116131D01*
X0062050Y0116215D01*
X0062205Y0116295D01*
X0062361Y0116372D01*
X0062519Y0116444D01*
X0062679Y0116513D01*
X0062840Y0116577D01*
X0063003Y0116638D01*
X0063168Y0116694D01*
X0063334Y0116747D01*
X0063501Y0116795D01*
X0063669Y0116840D01*
X0063838Y0116880D01*
X0064008Y0116916D01*
X0064179Y0116948D01*
X0064351Y0116975D01*
X0064523Y0116999D01*
X0064696Y0117018D01*
X0064870Y0117033D01*
X0065043Y0117043D01*
X0065217Y0117050D01*
X0065391Y0117052D01*
X0065565Y0117050D01*
X0065739Y0117043D01*
X0065912Y0117033D01*
X0066086Y0117018D01*
X0066259Y0116999D01*
X0066431Y0116975D01*
X0066603Y0116948D01*
X0066774Y0116916D01*
X0066944Y0116880D01*
X0067113Y0116840D01*
X0067281Y0116795D01*
X0067448Y0116747D01*
X0067614Y0116694D01*
X0067779Y0116638D01*
X0067942Y0116577D01*
X0068103Y0116513D01*
X0068263Y0116444D01*
X0068421Y0116372D01*
X0068577Y0116295D01*
X0068732Y0116215D01*
X0068884Y0116131D01*
X0069034Y0116044D01*
X0069183Y0115952D01*
X0069328Y0115858D01*
X0069472Y0115759D01*
X0069613Y0115657D01*
X0069751Y0115552D01*
X0069887Y0115443D01*
X0070020Y0115331D01*
X0070150Y0115216D01*
X0070278Y0115098D01*
X0070402Y0114976D01*
X0070524Y0114852D01*
X0070642Y0114724D01*
X0070757Y0114594D01*
X0070869Y0114461D01*
X0070978Y0114325D01*
X0071083Y0114187D01*
X0071185Y0114046D01*
X0071284Y0113902D01*
X0071378Y0113757D01*
X0071470Y0113608D01*
X0071557Y0113458D01*
X0071641Y0113306D01*
X0071721Y0113151D01*
X0071798Y0112995D01*
X0071870Y0112837D01*
X0071939Y0112677D01*
X0072003Y0112516D01*
X0072064Y0112353D01*
X0072120Y0112188D01*
X0072173Y0112022D01*
X0072221Y0111855D01*
X0072266Y0111687D01*
X0072306Y0111518D01*
X0072342Y0111348D01*
X0072374Y0111177D01*
X0072401Y0111005D01*
X0072425Y0110833D01*
X0072444Y0110660D01*
X0072459Y0110486D01*
X0072469Y0110313D01*
X0072476Y0110139D01*
X0072478Y0109965D01*
X0072476Y0109791D01*
X0072469Y0109617D01*
X0072459Y0109444D01*
X0072444Y0109270D01*
X0072425Y0109097D01*
X0072401Y0108925D01*
X0072374Y0108753D01*
X0072342Y0108582D01*
X0072306Y0108412D01*
X0072266Y0108243D01*
X0072221Y0108075D01*
X0072173Y0107908D01*
X0072120Y0107742D01*
X0072064Y0107577D01*
X0072003Y0107414D01*
X0071939Y0107253D01*
X0071870Y0107093D01*
X0071798Y0106935D01*
X0071721Y0106779D01*
X0071641Y0106624D01*
X0071557Y0106472D01*
X0071470Y0106322D01*
X0071378Y0106173D01*
X0071284Y0106028D01*
X0071185Y0105884D01*
X0071083Y0105743D01*
X0070978Y0105605D01*
X0070869Y0105469D01*
X0070757Y0105336D01*
X0070642Y0105206D01*
X0070524Y0105078D01*
X0070402Y0104954D01*
X0070278Y0104832D01*
X0070150Y0104714D01*
X0070020Y0104599D01*
X0069887Y0104487D01*
X0069751Y0104378D01*
X0069613Y0104273D01*
X0069472Y0104171D01*
X0069328Y0104072D01*
X0069183Y0103978D01*
X0069034Y0103886D01*
X0068884Y0103799D01*
X0068732Y0103715D01*
X0068577Y0103635D01*
X0068421Y0103558D01*
X0068263Y0103486D01*
X0068103Y0103417D01*
X0067942Y0103353D01*
X0067779Y0103292D01*
X0067614Y0103236D01*
X0067448Y0103183D01*
X0067281Y0103135D01*
X0067113Y0103090D01*
X0066944Y0103050D01*
X0066774Y0103014D01*
X0066603Y0102982D01*
X0066431Y0102955D01*
X0066259Y0102931D01*
X0066086Y0102912D01*
X0065912Y0102897D01*
X0065739Y0102887D01*
X0065565Y0102880D01*
X0065391Y0102878D01*
X0065217Y0102880D01*
X0065043Y0102887D01*
X0064870Y0102897D01*
X0064696Y0102912D01*
X0064523Y0102931D01*
X0064351Y0102955D01*
X0064179Y0102982D01*
X0064008Y0103014D01*
X0063838Y0103050D01*
X0063669Y0103090D01*
X0063501Y0103135D01*
X0063334Y0103183D01*
X0063168Y0103236D01*
X0063003Y0103292D01*
X0062840Y0103353D01*
X0062679Y0103417D01*
X0062519Y0103486D01*
X0062361Y0103558D01*
X0062205Y0103635D01*
X0062050Y0103715D01*
X0061898Y0103799D01*
X0061748Y0103886D01*
X0061599Y0103978D01*
X0061454Y0104072D01*
X0061310Y0104171D01*
X0061169Y0104273D01*
X0061031Y0104378D01*
X0060895Y0104487D01*
X0060762Y0104599D01*
X0060632Y0104714D01*
X0060504Y0104832D01*
X0060380Y0104954D01*
X0060258Y0105078D01*
X0060140Y0105206D01*
X0060025Y0105336D01*
X0059913Y0105469D01*
X0059804Y0105605D01*
X0059699Y0105743D01*
X0059597Y0105884D01*
X0059498Y0106028D01*
X0059404Y0106173D01*
X0059312Y0106322D01*
X0059225Y0106472D01*
X0059141Y0106624D01*
X0059061Y0106779D01*
X0058984Y0106935D01*
X0058912Y0107093D01*
X0058843Y0107253D01*
X0058779Y0107414D01*
X0058718Y0107577D01*
X0058662Y0107742D01*
X0058609Y0107908D01*
X0058561Y0108075D01*
X0058516Y0108243D01*
X0058476Y0108412D01*
X0058440Y0108582D01*
X0058408Y0108753D01*
X0058381Y0108925D01*
X0058357Y0109097D01*
X0058338Y0109270D01*
X0058323Y0109444D01*
X0058313Y0109617D01*
X0058306Y0109791D01*
X0058304Y0109965D01*
X0107054Y0109965D02*
X0107056Y0110139D01*
X0107063Y0110313D01*
X0107073Y0110486D01*
X0107088Y0110660D01*
X0107107Y0110833D01*
X0107131Y0111005D01*
X0107158Y0111177D01*
X0107190Y0111348D01*
X0107226Y0111518D01*
X0107266Y0111687D01*
X0107311Y0111855D01*
X0107359Y0112022D01*
X0107412Y0112188D01*
X0107468Y0112353D01*
X0107529Y0112516D01*
X0107593Y0112677D01*
X0107662Y0112837D01*
X0107734Y0112995D01*
X0107811Y0113151D01*
X0107891Y0113306D01*
X0107975Y0113458D01*
X0108062Y0113608D01*
X0108154Y0113757D01*
X0108248Y0113902D01*
X0108347Y0114046D01*
X0108449Y0114187D01*
X0108554Y0114325D01*
X0108663Y0114461D01*
X0108775Y0114594D01*
X0108890Y0114724D01*
X0109008Y0114852D01*
X0109130Y0114976D01*
X0109254Y0115098D01*
X0109382Y0115216D01*
X0109512Y0115331D01*
X0109645Y0115443D01*
X0109781Y0115552D01*
X0109919Y0115657D01*
X0110060Y0115759D01*
X0110204Y0115858D01*
X0110349Y0115952D01*
X0110498Y0116044D01*
X0110648Y0116131D01*
X0110800Y0116215D01*
X0110955Y0116295D01*
X0111111Y0116372D01*
X0111269Y0116444D01*
X0111429Y0116513D01*
X0111590Y0116577D01*
X0111753Y0116638D01*
X0111918Y0116694D01*
X0112084Y0116747D01*
X0112251Y0116795D01*
X0112419Y0116840D01*
X0112588Y0116880D01*
X0112758Y0116916D01*
X0112929Y0116948D01*
X0113101Y0116975D01*
X0113273Y0116999D01*
X0113446Y0117018D01*
X0113620Y0117033D01*
X0113793Y0117043D01*
X0113967Y0117050D01*
X0114141Y0117052D01*
X0114315Y0117050D01*
X0114489Y0117043D01*
X0114662Y0117033D01*
X0114836Y0117018D01*
X0115009Y0116999D01*
X0115181Y0116975D01*
X0115353Y0116948D01*
X0115524Y0116916D01*
X0115694Y0116880D01*
X0115863Y0116840D01*
X0116031Y0116795D01*
X0116198Y0116747D01*
X0116364Y0116694D01*
X0116529Y0116638D01*
X0116692Y0116577D01*
X0116853Y0116513D01*
X0117013Y0116444D01*
X0117171Y0116372D01*
X0117327Y0116295D01*
X0117482Y0116215D01*
X0117634Y0116131D01*
X0117784Y0116044D01*
X0117933Y0115952D01*
X0118078Y0115858D01*
X0118222Y0115759D01*
X0118363Y0115657D01*
X0118501Y0115552D01*
X0118637Y0115443D01*
X0118770Y0115331D01*
X0118900Y0115216D01*
X0119028Y0115098D01*
X0119152Y0114976D01*
X0119274Y0114852D01*
X0119392Y0114724D01*
X0119507Y0114594D01*
X0119619Y0114461D01*
X0119728Y0114325D01*
X0119833Y0114187D01*
X0119935Y0114046D01*
X0120034Y0113902D01*
X0120128Y0113757D01*
X0120220Y0113608D01*
X0120307Y0113458D01*
X0120391Y0113306D01*
X0120471Y0113151D01*
X0120548Y0112995D01*
X0120620Y0112837D01*
X0120689Y0112677D01*
X0120753Y0112516D01*
X0120814Y0112353D01*
X0120870Y0112188D01*
X0120923Y0112022D01*
X0120971Y0111855D01*
X0121016Y0111687D01*
X0121056Y0111518D01*
X0121092Y0111348D01*
X0121124Y0111177D01*
X0121151Y0111005D01*
X0121175Y0110833D01*
X0121194Y0110660D01*
X0121209Y0110486D01*
X0121219Y0110313D01*
X0121226Y0110139D01*
X0121228Y0109965D01*
X0121226Y0109791D01*
X0121219Y0109617D01*
X0121209Y0109444D01*
X0121194Y0109270D01*
X0121175Y0109097D01*
X0121151Y0108925D01*
X0121124Y0108753D01*
X0121092Y0108582D01*
X0121056Y0108412D01*
X0121016Y0108243D01*
X0120971Y0108075D01*
X0120923Y0107908D01*
X0120870Y0107742D01*
X0120814Y0107577D01*
X0120753Y0107414D01*
X0120689Y0107253D01*
X0120620Y0107093D01*
X0120548Y0106935D01*
X0120471Y0106779D01*
X0120391Y0106624D01*
X0120307Y0106472D01*
X0120220Y0106322D01*
X0120128Y0106173D01*
X0120034Y0106028D01*
X0119935Y0105884D01*
X0119833Y0105743D01*
X0119728Y0105605D01*
X0119619Y0105469D01*
X0119507Y0105336D01*
X0119392Y0105206D01*
X0119274Y0105078D01*
X0119152Y0104954D01*
X0119028Y0104832D01*
X0118900Y0104714D01*
X0118770Y0104599D01*
X0118637Y0104487D01*
X0118501Y0104378D01*
X0118363Y0104273D01*
X0118222Y0104171D01*
X0118078Y0104072D01*
X0117933Y0103978D01*
X0117784Y0103886D01*
X0117634Y0103799D01*
X0117482Y0103715D01*
X0117327Y0103635D01*
X0117171Y0103558D01*
X0117013Y0103486D01*
X0116853Y0103417D01*
X0116692Y0103353D01*
X0116529Y0103292D01*
X0116364Y0103236D01*
X0116198Y0103183D01*
X0116031Y0103135D01*
X0115863Y0103090D01*
X0115694Y0103050D01*
X0115524Y0103014D01*
X0115353Y0102982D01*
X0115181Y0102955D01*
X0115009Y0102931D01*
X0114836Y0102912D01*
X0114662Y0102897D01*
X0114489Y0102887D01*
X0114315Y0102880D01*
X0114141Y0102878D01*
X0113967Y0102880D01*
X0113793Y0102887D01*
X0113620Y0102897D01*
X0113446Y0102912D01*
X0113273Y0102931D01*
X0113101Y0102955D01*
X0112929Y0102982D01*
X0112758Y0103014D01*
X0112588Y0103050D01*
X0112419Y0103090D01*
X0112251Y0103135D01*
X0112084Y0103183D01*
X0111918Y0103236D01*
X0111753Y0103292D01*
X0111590Y0103353D01*
X0111429Y0103417D01*
X0111269Y0103486D01*
X0111111Y0103558D01*
X0110955Y0103635D01*
X0110800Y0103715D01*
X0110648Y0103799D01*
X0110498Y0103886D01*
X0110349Y0103978D01*
X0110204Y0104072D01*
X0110060Y0104171D01*
X0109919Y0104273D01*
X0109781Y0104378D01*
X0109645Y0104487D01*
X0109512Y0104599D01*
X0109382Y0104714D01*
X0109254Y0104832D01*
X0109130Y0104954D01*
X0109008Y0105078D01*
X0108890Y0105206D01*
X0108775Y0105336D01*
X0108663Y0105469D01*
X0108554Y0105605D01*
X0108449Y0105743D01*
X0108347Y0105884D01*
X0108248Y0106028D01*
X0108154Y0106173D01*
X0108062Y0106322D01*
X0107975Y0106472D01*
X0107891Y0106624D01*
X0107811Y0106779D01*
X0107734Y0106935D01*
X0107662Y0107093D01*
X0107593Y0107253D01*
X0107529Y0107414D01*
X0107468Y0107577D01*
X0107412Y0107742D01*
X0107359Y0107908D01*
X0107311Y0108075D01*
X0107266Y0108243D01*
X0107226Y0108412D01*
X0107190Y0108582D01*
X0107158Y0108753D01*
X0107131Y0108925D01*
X0107107Y0109097D01*
X0107088Y0109270D01*
X0107073Y0109444D01*
X0107063Y0109617D01*
X0107056Y0109791D01*
X0107054Y0109965D01*
X0131429Y0067778D02*
X0131431Y0067952D01*
X0131438Y0068126D01*
X0131448Y0068299D01*
X0131463Y0068473D01*
X0131482Y0068646D01*
X0131506Y0068818D01*
X0131533Y0068990D01*
X0131565Y0069161D01*
X0131601Y0069331D01*
X0131641Y0069500D01*
X0131686Y0069668D01*
X0131734Y0069835D01*
X0131787Y0070001D01*
X0131843Y0070166D01*
X0131904Y0070329D01*
X0131968Y0070490D01*
X0132037Y0070650D01*
X0132109Y0070808D01*
X0132186Y0070964D01*
X0132266Y0071119D01*
X0132350Y0071271D01*
X0132437Y0071421D01*
X0132529Y0071570D01*
X0132623Y0071715D01*
X0132722Y0071859D01*
X0132824Y0072000D01*
X0132929Y0072138D01*
X0133038Y0072274D01*
X0133150Y0072407D01*
X0133265Y0072537D01*
X0133383Y0072665D01*
X0133505Y0072789D01*
X0133629Y0072911D01*
X0133757Y0073029D01*
X0133887Y0073144D01*
X0134020Y0073256D01*
X0134156Y0073365D01*
X0134294Y0073470D01*
X0134435Y0073572D01*
X0134579Y0073671D01*
X0134724Y0073765D01*
X0134873Y0073857D01*
X0135023Y0073944D01*
X0135175Y0074028D01*
X0135330Y0074108D01*
X0135486Y0074185D01*
X0135644Y0074257D01*
X0135804Y0074326D01*
X0135965Y0074390D01*
X0136128Y0074451D01*
X0136293Y0074507D01*
X0136459Y0074560D01*
X0136626Y0074608D01*
X0136794Y0074653D01*
X0136963Y0074693D01*
X0137133Y0074729D01*
X0137304Y0074761D01*
X0137476Y0074788D01*
X0137648Y0074812D01*
X0137821Y0074831D01*
X0137995Y0074846D01*
X0138168Y0074856D01*
X0138342Y0074863D01*
X0138516Y0074865D01*
X0138690Y0074863D01*
X0138864Y0074856D01*
X0139037Y0074846D01*
X0139211Y0074831D01*
X0139384Y0074812D01*
X0139556Y0074788D01*
X0139728Y0074761D01*
X0139899Y0074729D01*
X0140069Y0074693D01*
X0140238Y0074653D01*
X0140406Y0074608D01*
X0140573Y0074560D01*
X0140739Y0074507D01*
X0140904Y0074451D01*
X0141067Y0074390D01*
X0141228Y0074326D01*
X0141388Y0074257D01*
X0141546Y0074185D01*
X0141702Y0074108D01*
X0141857Y0074028D01*
X0142009Y0073944D01*
X0142159Y0073857D01*
X0142308Y0073765D01*
X0142453Y0073671D01*
X0142597Y0073572D01*
X0142738Y0073470D01*
X0142876Y0073365D01*
X0143012Y0073256D01*
X0143145Y0073144D01*
X0143275Y0073029D01*
X0143403Y0072911D01*
X0143527Y0072789D01*
X0143649Y0072665D01*
X0143767Y0072537D01*
X0143882Y0072407D01*
X0143994Y0072274D01*
X0144103Y0072138D01*
X0144208Y0072000D01*
X0144310Y0071859D01*
X0144409Y0071715D01*
X0144503Y0071570D01*
X0144595Y0071421D01*
X0144682Y0071271D01*
X0144766Y0071119D01*
X0144846Y0070964D01*
X0144923Y0070808D01*
X0144995Y0070650D01*
X0145064Y0070490D01*
X0145128Y0070329D01*
X0145189Y0070166D01*
X0145245Y0070001D01*
X0145298Y0069835D01*
X0145346Y0069668D01*
X0145391Y0069500D01*
X0145431Y0069331D01*
X0145467Y0069161D01*
X0145499Y0068990D01*
X0145526Y0068818D01*
X0145550Y0068646D01*
X0145569Y0068473D01*
X0145584Y0068299D01*
X0145594Y0068126D01*
X0145601Y0067952D01*
X0145603Y0067778D01*
X0145601Y0067604D01*
X0145594Y0067430D01*
X0145584Y0067257D01*
X0145569Y0067083D01*
X0145550Y0066910D01*
X0145526Y0066738D01*
X0145499Y0066566D01*
X0145467Y0066395D01*
X0145431Y0066225D01*
X0145391Y0066056D01*
X0145346Y0065888D01*
X0145298Y0065721D01*
X0145245Y0065555D01*
X0145189Y0065390D01*
X0145128Y0065227D01*
X0145064Y0065066D01*
X0144995Y0064906D01*
X0144923Y0064748D01*
X0144846Y0064592D01*
X0144766Y0064437D01*
X0144682Y0064285D01*
X0144595Y0064135D01*
X0144503Y0063986D01*
X0144409Y0063841D01*
X0144310Y0063697D01*
X0144208Y0063556D01*
X0144103Y0063418D01*
X0143994Y0063282D01*
X0143882Y0063149D01*
X0143767Y0063019D01*
X0143649Y0062891D01*
X0143527Y0062767D01*
X0143403Y0062645D01*
X0143275Y0062527D01*
X0143145Y0062412D01*
X0143012Y0062300D01*
X0142876Y0062191D01*
X0142738Y0062086D01*
X0142597Y0061984D01*
X0142453Y0061885D01*
X0142308Y0061791D01*
X0142159Y0061699D01*
X0142009Y0061612D01*
X0141857Y0061528D01*
X0141702Y0061448D01*
X0141546Y0061371D01*
X0141388Y0061299D01*
X0141228Y0061230D01*
X0141067Y0061166D01*
X0140904Y0061105D01*
X0140739Y0061049D01*
X0140573Y0060996D01*
X0140406Y0060948D01*
X0140238Y0060903D01*
X0140069Y0060863D01*
X0139899Y0060827D01*
X0139728Y0060795D01*
X0139556Y0060768D01*
X0139384Y0060744D01*
X0139211Y0060725D01*
X0139037Y0060710D01*
X0138864Y0060700D01*
X0138690Y0060693D01*
X0138516Y0060691D01*
X0138342Y0060693D01*
X0138168Y0060700D01*
X0137995Y0060710D01*
X0137821Y0060725D01*
X0137648Y0060744D01*
X0137476Y0060768D01*
X0137304Y0060795D01*
X0137133Y0060827D01*
X0136963Y0060863D01*
X0136794Y0060903D01*
X0136626Y0060948D01*
X0136459Y0060996D01*
X0136293Y0061049D01*
X0136128Y0061105D01*
X0135965Y0061166D01*
X0135804Y0061230D01*
X0135644Y0061299D01*
X0135486Y0061371D01*
X0135330Y0061448D01*
X0135175Y0061528D01*
X0135023Y0061612D01*
X0134873Y0061699D01*
X0134724Y0061791D01*
X0134579Y0061885D01*
X0134435Y0061984D01*
X0134294Y0062086D01*
X0134156Y0062191D01*
X0134020Y0062300D01*
X0133887Y0062412D01*
X0133757Y0062527D01*
X0133629Y0062645D01*
X0133505Y0062767D01*
X0133383Y0062891D01*
X0133265Y0063019D01*
X0133150Y0063149D01*
X0133038Y0063282D01*
X0132929Y0063418D01*
X0132824Y0063556D01*
X0132722Y0063697D01*
X0132623Y0063841D01*
X0132529Y0063986D01*
X0132437Y0064135D01*
X0132350Y0064285D01*
X0132266Y0064437D01*
X0132186Y0064592D01*
X0132109Y0064748D01*
X0132037Y0064906D01*
X0131968Y0065066D01*
X0131904Y0065227D01*
X0131843Y0065390D01*
X0131787Y0065555D01*
X0131734Y0065721D01*
X0131686Y0065888D01*
X0131641Y0066056D01*
X0131601Y0066225D01*
X0131565Y0066395D01*
X0131533Y0066566D01*
X0131506Y0066738D01*
X0131482Y0066910D01*
X0131463Y0067083D01*
X0131448Y0067257D01*
X0131438Y0067430D01*
X0131431Y0067604D01*
X0131429Y0067778D01*
X0107054Y0025590D02*
X0107056Y0025764D01*
X0107063Y0025938D01*
X0107073Y0026111D01*
X0107088Y0026285D01*
X0107107Y0026458D01*
X0107131Y0026630D01*
X0107158Y0026802D01*
X0107190Y0026973D01*
X0107226Y0027143D01*
X0107266Y0027312D01*
X0107311Y0027480D01*
X0107359Y0027647D01*
X0107412Y0027813D01*
X0107468Y0027978D01*
X0107529Y0028141D01*
X0107593Y0028302D01*
X0107662Y0028462D01*
X0107734Y0028620D01*
X0107811Y0028776D01*
X0107891Y0028931D01*
X0107975Y0029083D01*
X0108062Y0029233D01*
X0108154Y0029382D01*
X0108248Y0029527D01*
X0108347Y0029671D01*
X0108449Y0029812D01*
X0108554Y0029950D01*
X0108663Y0030086D01*
X0108775Y0030219D01*
X0108890Y0030349D01*
X0109008Y0030477D01*
X0109130Y0030601D01*
X0109254Y0030723D01*
X0109382Y0030841D01*
X0109512Y0030956D01*
X0109645Y0031068D01*
X0109781Y0031177D01*
X0109919Y0031282D01*
X0110060Y0031384D01*
X0110204Y0031483D01*
X0110349Y0031577D01*
X0110498Y0031669D01*
X0110648Y0031756D01*
X0110800Y0031840D01*
X0110955Y0031920D01*
X0111111Y0031997D01*
X0111269Y0032069D01*
X0111429Y0032138D01*
X0111590Y0032202D01*
X0111753Y0032263D01*
X0111918Y0032319D01*
X0112084Y0032372D01*
X0112251Y0032420D01*
X0112419Y0032465D01*
X0112588Y0032505D01*
X0112758Y0032541D01*
X0112929Y0032573D01*
X0113101Y0032600D01*
X0113273Y0032624D01*
X0113446Y0032643D01*
X0113620Y0032658D01*
X0113793Y0032668D01*
X0113967Y0032675D01*
X0114141Y0032677D01*
X0114315Y0032675D01*
X0114489Y0032668D01*
X0114662Y0032658D01*
X0114836Y0032643D01*
X0115009Y0032624D01*
X0115181Y0032600D01*
X0115353Y0032573D01*
X0115524Y0032541D01*
X0115694Y0032505D01*
X0115863Y0032465D01*
X0116031Y0032420D01*
X0116198Y0032372D01*
X0116364Y0032319D01*
X0116529Y0032263D01*
X0116692Y0032202D01*
X0116853Y0032138D01*
X0117013Y0032069D01*
X0117171Y0031997D01*
X0117327Y0031920D01*
X0117482Y0031840D01*
X0117634Y0031756D01*
X0117784Y0031669D01*
X0117933Y0031577D01*
X0118078Y0031483D01*
X0118222Y0031384D01*
X0118363Y0031282D01*
X0118501Y0031177D01*
X0118637Y0031068D01*
X0118770Y0030956D01*
X0118900Y0030841D01*
X0119028Y0030723D01*
X0119152Y0030601D01*
X0119274Y0030477D01*
X0119392Y0030349D01*
X0119507Y0030219D01*
X0119619Y0030086D01*
X0119728Y0029950D01*
X0119833Y0029812D01*
X0119935Y0029671D01*
X0120034Y0029527D01*
X0120128Y0029382D01*
X0120220Y0029233D01*
X0120307Y0029083D01*
X0120391Y0028931D01*
X0120471Y0028776D01*
X0120548Y0028620D01*
X0120620Y0028462D01*
X0120689Y0028302D01*
X0120753Y0028141D01*
X0120814Y0027978D01*
X0120870Y0027813D01*
X0120923Y0027647D01*
X0120971Y0027480D01*
X0121016Y0027312D01*
X0121056Y0027143D01*
X0121092Y0026973D01*
X0121124Y0026802D01*
X0121151Y0026630D01*
X0121175Y0026458D01*
X0121194Y0026285D01*
X0121209Y0026111D01*
X0121219Y0025938D01*
X0121226Y0025764D01*
X0121228Y0025590D01*
X0121226Y0025416D01*
X0121219Y0025242D01*
X0121209Y0025069D01*
X0121194Y0024895D01*
X0121175Y0024722D01*
X0121151Y0024550D01*
X0121124Y0024378D01*
X0121092Y0024207D01*
X0121056Y0024037D01*
X0121016Y0023868D01*
X0120971Y0023700D01*
X0120923Y0023533D01*
X0120870Y0023367D01*
X0120814Y0023202D01*
X0120753Y0023039D01*
X0120689Y0022878D01*
X0120620Y0022718D01*
X0120548Y0022560D01*
X0120471Y0022404D01*
X0120391Y0022249D01*
X0120307Y0022097D01*
X0120220Y0021947D01*
X0120128Y0021798D01*
X0120034Y0021653D01*
X0119935Y0021509D01*
X0119833Y0021368D01*
X0119728Y0021230D01*
X0119619Y0021094D01*
X0119507Y0020961D01*
X0119392Y0020831D01*
X0119274Y0020703D01*
X0119152Y0020579D01*
X0119028Y0020457D01*
X0118900Y0020339D01*
X0118770Y0020224D01*
X0118637Y0020112D01*
X0118501Y0020003D01*
X0118363Y0019898D01*
X0118222Y0019796D01*
X0118078Y0019697D01*
X0117933Y0019603D01*
X0117784Y0019511D01*
X0117634Y0019424D01*
X0117482Y0019340D01*
X0117327Y0019260D01*
X0117171Y0019183D01*
X0117013Y0019111D01*
X0116853Y0019042D01*
X0116692Y0018978D01*
X0116529Y0018917D01*
X0116364Y0018861D01*
X0116198Y0018808D01*
X0116031Y0018760D01*
X0115863Y0018715D01*
X0115694Y0018675D01*
X0115524Y0018639D01*
X0115353Y0018607D01*
X0115181Y0018580D01*
X0115009Y0018556D01*
X0114836Y0018537D01*
X0114662Y0018522D01*
X0114489Y0018512D01*
X0114315Y0018505D01*
X0114141Y0018503D01*
X0113967Y0018505D01*
X0113793Y0018512D01*
X0113620Y0018522D01*
X0113446Y0018537D01*
X0113273Y0018556D01*
X0113101Y0018580D01*
X0112929Y0018607D01*
X0112758Y0018639D01*
X0112588Y0018675D01*
X0112419Y0018715D01*
X0112251Y0018760D01*
X0112084Y0018808D01*
X0111918Y0018861D01*
X0111753Y0018917D01*
X0111590Y0018978D01*
X0111429Y0019042D01*
X0111269Y0019111D01*
X0111111Y0019183D01*
X0110955Y0019260D01*
X0110800Y0019340D01*
X0110648Y0019424D01*
X0110498Y0019511D01*
X0110349Y0019603D01*
X0110204Y0019697D01*
X0110060Y0019796D01*
X0109919Y0019898D01*
X0109781Y0020003D01*
X0109645Y0020112D01*
X0109512Y0020224D01*
X0109382Y0020339D01*
X0109254Y0020457D01*
X0109130Y0020579D01*
X0109008Y0020703D01*
X0108890Y0020831D01*
X0108775Y0020961D01*
X0108663Y0021094D01*
X0108554Y0021230D01*
X0108449Y0021368D01*
X0108347Y0021509D01*
X0108248Y0021653D01*
X0108154Y0021798D01*
X0108062Y0021947D01*
X0107975Y0022097D01*
X0107891Y0022249D01*
X0107811Y0022404D01*
X0107734Y0022560D01*
X0107662Y0022718D01*
X0107593Y0022878D01*
X0107529Y0023039D01*
X0107468Y0023202D01*
X0107412Y0023367D01*
X0107359Y0023533D01*
X0107311Y0023700D01*
X0107266Y0023868D01*
X0107226Y0024037D01*
X0107190Y0024207D01*
X0107158Y0024378D01*
X0107131Y0024550D01*
X0107107Y0024722D01*
X0107088Y0024895D01*
X0107073Y0025069D01*
X0107063Y0025242D01*
X0107056Y0025416D01*
X0107054Y0025590D01*
X0058304Y0025278D02*
X0058306Y0025452D01*
X0058313Y0025626D01*
X0058323Y0025799D01*
X0058338Y0025973D01*
X0058357Y0026146D01*
X0058381Y0026318D01*
X0058408Y0026490D01*
X0058440Y0026661D01*
X0058476Y0026831D01*
X0058516Y0027000D01*
X0058561Y0027168D01*
X0058609Y0027335D01*
X0058662Y0027501D01*
X0058718Y0027666D01*
X0058779Y0027829D01*
X0058843Y0027990D01*
X0058912Y0028150D01*
X0058984Y0028308D01*
X0059061Y0028464D01*
X0059141Y0028619D01*
X0059225Y0028771D01*
X0059312Y0028921D01*
X0059404Y0029070D01*
X0059498Y0029215D01*
X0059597Y0029359D01*
X0059699Y0029500D01*
X0059804Y0029638D01*
X0059913Y0029774D01*
X0060025Y0029907D01*
X0060140Y0030037D01*
X0060258Y0030165D01*
X0060380Y0030289D01*
X0060504Y0030411D01*
X0060632Y0030529D01*
X0060762Y0030644D01*
X0060895Y0030756D01*
X0061031Y0030865D01*
X0061169Y0030970D01*
X0061310Y0031072D01*
X0061454Y0031171D01*
X0061599Y0031265D01*
X0061748Y0031357D01*
X0061898Y0031444D01*
X0062050Y0031528D01*
X0062205Y0031608D01*
X0062361Y0031685D01*
X0062519Y0031757D01*
X0062679Y0031826D01*
X0062840Y0031890D01*
X0063003Y0031951D01*
X0063168Y0032007D01*
X0063334Y0032060D01*
X0063501Y0032108D01*
X0063669Y0032153D01*
X0063838Y0032193D01*
X0064008Y0032229D01*
X0064179Y0032261D01*
X0064351Y0032288D01*
X0064523Y0032312D01*
X0064696Y0032331D01*
X0064870Y0032346D01*
X0065043Y0032356D01*
X0065217Y0032363D01*
X0065391Y0032365D01*
X0065565Y0032363D01*
X0065739Y0032356D01*
X0065912Y0032346D01*
X0066086Y0032331D01*
X0066259Y0032312D01*
X0066431Y0032288D01*
X0066603Y0032261D01*
X0066774Y0032229D01*
X0066944Y0032193D01*
X0067113Y0032153D01*
X0067281Y0032108D01*
X0067448Y0032060D01*
X0067614Y0032007D01*
X0067779Y0031951D01*
X0067942Y0031890D01*
X0068103Y0031826D01*
X0068263Y0031757D01*
X0068421Y0031685D01*
X0068577Y0031608D01*
X0068732Y0031528D01*
X0068884Y0031444D01*
X0069034Y0031357D01*
X0069183Y0031265D01*
X0069328Y0031171D01*
X0069472Y0031072D01*
X0069613Y0030970D01*
X0069751Y0030865D01*
X0069887Y0030756D01*
X0070020Y0030644D01*
X0070150Y0030529D01*
X0070278Y0030411D01*
X0070402Y0030289D01*
X0070524Y0030165D01*
X0070642Y0030037D01*
X0070757Y0029907D01*
X0070869Y0029774D01*
X0070978Y0029638D01*
X0071083Y0029500D01*
X0071185Y0029359D01*
X0071284Y0029215D01*
X0071378Y0029070D01*
X0071470Y0028921D01*
X0071557Y0028771D01*
X0071641Y0028619D01*
X0071721Y0028464D01*
X0071798Y0028308D01*
X0071870Y0028150D01*
X0071939Y0027990D01*
X0072003Y0027829D01*
X0072064Y0027666D01*
X0072120Y0027501D01*
X0072173Y0027335D01*
X0072221Y0027168D01*
X0072266Y0027000D01*
X0072306Y0026831D01*
X0072342Y0026661D01*
X0072374Y0026490D01*
X0072401Y0026318D01*
X0072425Y0026146D01*
X0072444Y0025973D01*
X0072459Y0025799D01*
X0072469Y0025626D01*
X0072476Y0025452D01*
X0072478Y0025278D01*
X0072476Y0025104D01*
X0072469Y0024930D01*
X0072459Y0024757D01*
X0072444Y0024583D01*
X0072425Y0024410D01*
X0072401Y0024238D01*
X0072374Y0024066D01*
X0072342Y0023895D01*
X0072306Y0023725D01*
X0072266Y0023556D01*
X0072221Y0023388D01*
X0072173Y0023221D01*
X0072120Y0023055D01*
X0072064Y0022890D01*
X0072003Y0022727D01*
X0071939Y0022566D01*
X0071870Y0022406D01*
X0071798Y0022248D01*
X0071721Y0022092D01*
X0071641Y0021937D01*
X0071557Y0021785D01*
X0071470Y0021635D01*
X0071378Y0021486D01*
X0071284Y0021341D01*
X0071185Y0021197D01*
X0071083Y0021056D01*
X0070978Y0020918D01*
X0070869Y0020782D01*
X0070757Y0020649D01*
X0070642Y0020519D01*
X0070524Y0020391D01*
X0070402Y0020267D01*
X0070278Y0020145D01*
X0070150Y0020027D01*
X0070020Y0019912D01*
X0069887Y0019800D01*
X0069751Y0019691D01*
X0069613Y0019586D01*
X0069472Y0019484D01*
X0069328Y0019385D01*
X0069183Y0019291D01*
X0069034Y0019199D01*
X0068884Y0019112D01*
X0068732Y0019028D01*
X0068577Y0018948D01*
X0068421Y0018871D01*
X0068263Y0018799D01*
X0068103Y0018730D01*
X0067942Y0018666D01*
X0067779Y0018605D01*
X0067614Y0018549D01*
X0067448Y0018496D01*
X0067281Y0018448D01*
X0067113Y0018403D01*
X0066944Y0018363D01*
X0066774Y0018327D01*
X0066603Y0018295D01*
X0066431Y0018268D01*
X0066259Y0018244D01*
X0066086Y0018225D01*
X0065912Y0018210D01*
X0065739Y0018200D01*
X0065565Y0018193D01*
X0065391Y0018191D01*
X0065217Y0018193D01*
X0065043Y0018200D01*
X0064870Y0018210D01*
X0064696Y0018225D01*
X0064523Y0018244D01*
X0064351Y0018268D01*
X0064179Y0018295D01*
X0064008Y0018327D01*
X0063838Y0018363D01*
X0063669Y0018403D01*
X0063501Y0018448D01*
X0063334Y0018496D01*
X0063168Y0018549D01*
X0063003Y0018605D01*
X0062840Y0018666D01*
X0062679Y0018730D01*
X0062519Y0018799D01*
X0062361Y0018871D01*
X0062205Y0018948D01*
X0062050Y0019028D01*
X0061898Y0019112D01*
X0061748Y0019199D01*
X0061599Y0019291D01*
X0061454Y0019385D01*
X0061310Y0019484D01*
X0061169Y0019586D01*
X0061031Y0019691D01*
X0060895Y0019800D01*
X0060762Y0019912D01*
X0060632Y0020027D01*
X0060504Y0020145D01*
X0060380Y0020267D01*
X0060258Y0020391D01*
X0060140Y0020519D01*
X0060025Y0020649D01*
X0059913Y0020782D01*
X0059804Y0020918D01*
X0059699Y0021056D01*
X0059597Y0021197D01*
X0059498Y0021341D01*
X0059404Y0021486D01*
X0059312Y0021635D01*
X0059225Y0021785D01*
X0059141Y0021937D01*
X0059061Y0022092D01*
X0058984Y0022248D01*
X0058912Y0022406D01*
X0058843Y0022566D01*
X0058779Y0022727D01*
X0058718Y0022890D01*
X0058662Y0023055D01*
X0058609Y0023221D01*
X0058561Y0023388D01*
X0058516Y0023556D01*
X0058476Y0023725D01*
X0058440Y0023895D01*
X0058408Y0024066D01*
X0058381Y0024238D01*
X0058357Y0024410D01*
X0058338Y0024583D01*
X0058323Y0024757D01*
X0058313Y0024930D01*
X0058306Y0025104D01*
X0058304Y0025278D01*
M02*
